<?xml version="1.0" encoding="UTF-8" standalone="no"?>
<!-- Created with Inkscape (http://www.inkscape.org/) -->

<svg
   xmlns:dc="http://purl.org/dc/elements/1.1/"
   xmlns:cc="http://creativecommons.org/ns#"
   xmlns:rdf="http://www.w3.org/1999/02/22-rdf-syntax-ns#"
   xmlns:svg="http://www.w3.org/2000/svg"
   xmlns="http://www.w3.org/2000/svg"
   xmlns:sodipodi="http://sodipodi.sourceforge.net/DTD/sodipodi-0.dtd"
   xmlns:inkscape="http://www.inkscape.org/namespaces/inkscape"
   width="320mm"
   height="180mm"
   viewBox="0 0 320 180"
   version="1.1"
   id="svg1265"
   inkscape:version="0.92.1 r15371"
   sodipodi:docname="3.svg">
  <defs
     id="defs1259" />
  <sodipodi:namedview
     id="base"
     pagecolor="#ffffff"
     bordercolor="#666666"
     borderopacity="1.0"
     inkscape:pageopacity="0.0"
     inkscape:pageshadow="2"
     inkscape:zoom="0.81496822"
     inkscape:cx="656.91714"
     inkscape:cy="565.64832"
     inkscape:document-units="mm"
     inkscape:current-layer="layer1"
     showgrid="false"
     inkscape:window-width="1822"
     inkscape:window-height="1046"
     inkscape:window-x="87"
     inkscape:window-y="-11"
     inkscape:window-maximized="1"
     showguides="true"
     inkscape:guide-bbox="true"
     inkscape:snap-global="true">
    <sodipodi:guide
       position="249.01023,183.42996"
       orientation="0,1"
       id="guide4531"
       inkscape:locked="false" />
    <sodipodi:guide
       position="46.205417,35.950129"
       orientation="0,1"
       id="guide4533"
       inkscape:locked="false" />
    <sodipodi:guide
       position="265.44629,91.969853"
       orientation="1,0"
       id="guide4658"
       inkscape:locked="false" />
    <sodipodi:guide
       position="46.201435,142.34672"
       orientation="1,0"
       id="guide4696"
       inkscape:locked="false" />
  </sodipodi:namedview>
  <metadata
     id="metadata1262">
    <rdf:RDF>
      <cc:Work
         rdf:about="">
        <dc:format>image/svg+xml</dc:format>
        <dc:type
           rdf:resource="http://purl.org/dc/dcmitype/StillImage" />
        <dc:title />
      </cc:Work>
    </rdf:RDF>
  </metadata>
  <g
     inkscape:label="Calque 1"
     inkscape:groupmode="layer"
     id="layer1"
     transform="translate(0,-117)">
    <rect
       style="opacity:1;fill:#6ce09f;fill-opacity:1;fill-rule:nonzero;stroke:none;stroke-width:0.22137159;stroke-linecap:butt;stroke-linejoin:round;stroke-miterlimit:4;stroke-dasharray:none;stroke-dashoffset:0;stroke-opacity:0.00276244;paint-order:normal"
       id="rect4649-0-3"
       width="77.917145"
       height="105.39894"
       x="230.31316"
       y="167.7874" />
    <rect
       style="opacity:1;fill:#e9b6b6;fill-opacity:1;fill-rule:nonzero;stroke:none;stroke-width:0.21021044;stroke-linecap:butt;stroke-linejoin:round;stroke-miterlimit:4;stroke-dasharray:none;stroke-dashoffset:0;stroke-opacity:0.00276244;paint-order:normal"
       id="rect4649-0"
       width="70.258347"
       height="105.39894"
       x="160.05481"
       y="167.7874" />
    <rect
       style="opacity:1;fill:#cfd2e0;fill-opacity:1;fill-rule:nonzero;stroke:none;stroke-width:0.14437908;stroke-linecap:butt;stroke-linejoin:round;stroke-miterlimit:4;stroke-dasharray:none;stroke-dashoffset:0;stroke-opacity:0.00276244;paint-order:normal"
       id="rect4649"
       width="33.143459"
       height="105.39896"
       x="126.91135"
       y="167.7874" />
    <path
       style="font-style:normal;font-variant:normal;font-weight:500;font-stretch:normal;font-size:16px;line-height:1.25;font-family:'Fira Sans';-inkscape-font-specification:'Fira Sans, Medium';font-variant-ligatures:normal;font-variant-caps:normal;font-variant-numeric:normal;font-feature-settings:normal;text-align:center;letter-spacing:0px;word-spacing:0px;writing-mode:lr-tb;text-anchor:middle;fill:#000000;fill-opacity:1;stroke:none;stroke-width:0.32392344"
       d="m 266.3327,129.61783 -4.41576,3.91811 0.90227,1.27486 3.66904,-2.36316 3.45199,2.36316 1.08828,-1.27486 -3.60701,-3.91811 z m -234.951548,0.59067 -0.404112,3.66954 h 3.202906 l 0.373105,-3.66954 z m -18.531169,0.31109 -0.311092,2.95434 h 2.23914 l -1.492416,14.30455 h -2.23914 l -0.311092,2.95383 h 8.831502 l 0.311093,-2.95383 h -3.29644 l 0.497644,-4.88239 h 8.52041 l 0.311092,-2.92282 h -8.52041 l 0.684196,-6.49934 h 6.15673 l 0.249081,3.42046 2.891813,-0.27957 v -6.09523 z m 158.868847,1.92805 -1.02629,1.0573 -0.40411,3.26491 h -1.21285 l -0.90175,0.83974 -0.24857,1.7415 h 2.05208 l -0.87075,7.21455 c -0.37316,2.82979 1.27538,4.47776 4.10517,4.47776 2.58103,0 3.8869,-1.33685 4.66432,-4.35322 l -2.27015,-0.77773 c -0.59083,2.20786 -1.30575,2.58123 -2.05207,2.58123 -1.02619,0 -1.39942,-0.6533 -1.21284,-2.20813 l 0.83922,-6.93446 h 3.54501 l 0.90227,-0.87075 0.24856,-1.71049 h -4.38475 l 0.52865,-4.32221 z m 44.21539,0 -1.02578,1.0573 -0.40462,3.26491 h -1.21233 l -0.90227,0.83974 -0.24856,1.7415 h 2.05258 l -0.87075,7.21455 c -0.37316,2.82979 1.27487,4.47776 4.10466,4.47776 2.58103,0 3.8869,-1.33685 4.66432,-4.35322 l -2.27015,-0.77773 c -0.59083,2.20786 -1.30575,2.58123 -2.05207,2.58123 -1.02619,0 -1.39943,-0.6533 -1.21284,-2.20813 l 0.83974,-6.93446 h 3.545 l 0.90176,-0.87075 0.24856,-1.71049 h -4.38475 l 0.52865,-4.32221 z m 62.31507,0 -1.02632,1.0573 -0.40409,3.26491 h -1.21285 l -0.90176,0.83974 -0.24908,1.7415 h 2.05259 l -0.87074,7.21455 c -0.37317,2.82979 1.27486,4.47776 4.10466,4.47776 2.58101,0 3.88742,-1.33685 4.66482,-4.35322 l -2.27013,-0.77773 c -0.59084,2.20786 -1.30627,2.58123 -2.05261,2.58123 -1.02618,0 -1.39941,-0.6533 -1.21282,-2.20813 l 0.83973,-6.93446 h 3.545 l 0.90175,-0.87075 0.24908,-1.71049 h -4.38473 l 0.52864,-4.32221 z m -232.047855,4.04264 c -2.145667,0 -3.6073,1.18174 -4.571296,2.98535 l -0.09354,-2.70578 h -4.011641 l -0.870231,0.74673 -0.218074,1.83451 h 2.145604 l -1.398879,11.38122 h 3.171381 l 0.995288,-8.02277 v 0.031 c 0.248775,-2.02128 1.33708,-3.66955 3.389458,-3.66955 1.710314,0 2.519101,0.99533 2.208133,3.63854 l -0.995288,8.02277 h 4.415753 l 0.839742,-0.6842 0.248563,-1.86552 h -2.021065 l 0.808218,-6.68589 c 0.435353,-3.45173 -1.492205,-5.00642 -4.04213,-5.00642 z m 13.190926,0 c -4.633401,0 -6.467821,4.91345 -6.467821,8.61395 0,3.45172 1.585836,5.93917 4.633309,5.93917 2.30115,0 3.762603,-1.43058 4.633307,-3.14089 l 0.06201,2.8298 h 3.856095 l 0.808736,-0.6842 0.217557,-1.86552 h -1.897042 l 0.839743,-6.68589 c 0.186579,-1.58593 0.590849,-3.14092 1.057299,-4.72685 H 64.05719 c -0.279871,0.77742 -0.466611,1.55526 -0.65319,2.33268 -0.559739,-1.61703 -1.959263,-2.61225 -4.011642,-2.61225 z m 19.423621,0 c -2.14567,0 -3.606784,1.18174 -4.57078,2.98535 l -0.09354,-2.70578 h -4.011641 l -0.870231,0.74673 -0.218075,1.83451 h 2.145607 l -1.398881,11.38122 h 3.171383 l 0.995286,-8.02277 v 0.031 c 0.248774,-2.02128 1.33708,-3.66955 3.389458,-3.66955 1.710317,0 2.5191,0.99533 2.208133,3.63854 l -0.995289,8.02277 h 4.415753 l 0.839743,-0.6842 0.248563,-1.86552 h -2.021065 l 0.80822,-6.68589 c 0.435351,-3.45173 -1.492724,-5.00642 -4.042648,-5.00642 z m 13.782622,0 c -5.068755,0 -7.059001,4.41577 -7.059001,8.30285 0,3.94928 2.083062,6.25027 5.628079,6.25027 3.855984,0 5.691042,-2.73648 6.250782,-5.31751 l -2.581239,-0.52864 c -0.621932,2.14566 -1.461582,3.29643 -3.171899,3.29643 -1.990185,0 -2.674255,-1.52384 -2.674255,-3.85609 0,-3.23405 1.243851,-5.56659 3.545004,-5.56659 0.715222,0 1.337273,0.0624 2.083594,0.46664 l 0.217556,2.42569 2.674259,-0.28008 -0.15555,-3.91811 c -1.43045,-0.9018 -3.202498,-1.27486 -4.75733,-1.27486 z m 13.944876,0 c -4.5712,0 -7.369566,3.79366 -7.369566,8.36487 0,4.22914 2.425696,6.18825 5.784136,6.18825 3.51392,0 5.69028,-2.11433 6.15673,-4.50877 l -2.58072,-0.52865 c -0.37316,1.08838 -1.0576,2.4877 -3.07888,2.4877 -1.99019,0 -2.70499,-1.24378 -2.79828,-3.38945 1.39935,-0.15549 2.67418,-0.34241 3.76256,-0.59118 3.7005,-0.77742 4.97541,-2.23874 4.97541,-4.32222 0,-2.23896 -2.05269,-3.70055 -4.85139,-3.70055 z m 16.183,0 c -2.14567,0 -3.57578,1.21284 -4.53978,2.98535 l -0.0625,-2.70578 h -4.01112 l -0.87075,0.74673 -0.21808,1.83451 h 2.14613 l -1.3994,11.38122 h 3.1719 l 0.96376,-8.05377 0.031,0.062 c 0.24877,-2.05238 1.08833,-3.66955 3.20291,-3.66955 1.64812,0 2.39456,0.99533 2.08359,3.63854 l -0.99529,8.02277 h 3.1719 l 0.99529,-8.36487 c 0.31096,-1.8347 1.18171,-3.29644 3.1719,-3.29644 1.67922,0 2.42565,0.99533 2.08359,3.63854 l -0.96428,8.02277 h 4.41575 l 0.83974,-0.6842 0.21756,-1.86552 h -1.99006 l 0.80874,-6.68589 c 0.40425,-3.42064 -1.27517,-5.00642 -3.82509,-5.00642 -2.20787,0 -3.66932,1.2751 -4.63331,3.1409 -0.27987,-2.11458 -1.74171,-3.1409 -3.79408,-3.1409 z m 22.3237,0 c -4.57121,0 -7.3701,3.79366 -7.3701,8.36487 0,4.22914 2.42571,6.18825 5.78415,6.18825 3.51392,0 5.69079,-2.11433 6.15724,-4.50877 l -2.58123,-0.52865 c -0.37316,1.08838 -1.05709,2.4877 -3.07837,2.4877 -1.99018,0 -2.7055,-1.24378 -2.79879,-3.38945 1.39935,-0.15549 2.67417,-0.34241 3.76256,-0.59118 3.7005,-0.77742 4.9754,-2.23874 4.9754,-4.32222 0,-2.23896 -2.05217,-3.70055 -4.85086,-3.70055 z m 16.245,0 c -2.14567,0 -3.6073,1.18174 -4.5713,2.98535 l -0.093,-2.70578 h -4.01164 l -0.87074,0.74673 -0.21756,1.83451 h 2.1456 l -1.39939,11.38122 h 3.1719 l 0.99528,-8.02277 v 0.031 c 0.24878,-2.02128 1.33708,-3.66955 3.38946,-3.66955 1.71032,0 2.51858,0.99533 2.20762,3.63854 l -0.99477,8.02277 h 4.41575 l 0.83922,-0.6842 0.24908,-1.86552 h -2.02158 l 0.80874,-6.68589 c 0.43535,-3.45173 -1.49273,-5.00642 -4.04265,-5.00642 z m 24.09103,0 c -2.82979,0 -5.62807,1.27508 -5.62807,4.38475 0,2.45663 1.83441,3.23401 3.63802,3.73155 1.92799,0.52865 3.57601,0.74626 3.57601,2.14561 0,1.11948 -0.99513,1.74149 -2.64325,1.74149 -0.65303,0 -1.7724,-0.0936 -2.51871,-0.43563 l 0.21756,-1.74149 -2.54972,-0.24857 -0.87075,3.60702 c 1.49264,0.9018 4.10499,1.36839 5.93969,1.36839 3.23405,0 5.78363,-1.52392 5.78363,-4.54029 0,-2.92309 -2.42542,-3.60711 -4.29122,-4.10466 -1.89689,-0.46645 -2.95434,-0.7464 -2.95434,-1.7415 0,-1.05728 1.15082,-1.58595 2.39469,-1.58595 0.80851,0 1.64785,0.21769 2.39417,0.52865 l 0.0625,1.92805 2.58072,-0.31057 0.031,-3.45199 c -1.43044,-0.87071 -3.51383,-1.27486 -5.16196,-1.27486 z m 20.46025,0 c -4.5712,0 -7.37009,3.79366 -7.37009,8.36487 0,4.22914 2.42571,6.18825 5.78414,6.18825 3.51393,0 5.6908,-2.11433 6.15725,-4.50877 l -2.58123,-0.52865 c -0.37317,1.08838 -1.05709,2.4877 -3.07837,2.4877 -1.99019,0 -2.70551,-1.24378 -2.7988,-3.38945 1.39935,-0.15549 2.67418,-0.34241 3.76256,-0.59118 3.70051,-0.77742 4.97593,-2.23874 4.97593,-4.32222 0,-2.23896 -2.05269,-3.70055 -4.85139,-3.70055 z m 30.51339,0 c -5.06876,0 -7.059,4.41577 -7.059,8.30285 0,3.94928 2.08306,6.25027 5.62808,6.25027 3.85598,0 5.69104,-2.73648 6.25078,-5.31751 l -2.58124,-0.52864 c -0.62193,2.14566 -1.46158,3.29643 -3.1719,3.29643 -1.99018,0 -2.67425,-1.52384 -2.67425,-3.85609 0,-3.23405 1.24385,-5.56659 3.545,-5.56659 0.71522,0 1.33727,0.0624 2.08359,0.46664 l 0.21756,2.42569 2.67425,-0.28008 -0.15554,-3.91811 c -1.43045,-0.9018 -3.2025,-1.27486 -4.75733,-1.27486 z m 14.00741,0 c -5.00656,0 -7.4011,3.98051 -7.4011,8.27185 0,3.91818 2.05237,6.28127 5.84616,6.28127 4.5712,0 7.49411,-3.38961 7.49411,-8.1163 0,-3.66941 -1.74112,-6.43682 -5.93917,-6.43682 z m 41.5494,0 c -2.8298,0 -5.62858,1.27508 -5.62858,4.38475 0,2.45663 1.83491,3.23401 3.63852,3.73155 1.92799,0.52865 3.576,0.74626 3.576,2.14561 0,1.11948 -0.99512,1.74149 -2.64324,1.74149 -0.65302,0 -1.77239,-0.0936 -2.5187,-0.43563 l 0.21754,-1.74149 -2.54971,-0.24857 -0.87074,3.60702 c 1.49264,0.9018 4.10448,1.36839 5.93918,1.36839 3.23405,0 5.78413,-1.52392 5.78413,-4.54029 0,-2.92309 -2.42541,-3.60711 -4.29119,-4.10466 -1.89691,-0.46645 -2.95437,-0.7464 -2.95437,-1.7415 0,-1.05728 1.15083,-1.58595 2.39469,-1.58595 0.80852,0 1.64785,0.21769 2.39416,0.52865 l 0.062,1.92805 2.58125,-0.31057 0.031,-3.45199 c -1.43044,-0.87071 -3.51385,-1.27486 -5.16197,-1.27486 z m -262.650108,0.27957 -0.839743,0.74673 -0.248563,1.83451 h 2.145604 l -1.399397,11.38122 h 4.415751 l 0.839742,-0.6842 0.217559,-1.86552 h -1.959054 l 1.368393,-11.41274 z m 229.665558,0 -0.80873,0.6842 -0.24857,1.89704 h 2.02107 l -0.80874,6.65489 c -0.43535,3.45173 1.49273,5.00641 4.04265,5.00641 2.11457,0 3.6074,-1.18183 4.5403,-2.95434 l 0.093,2.67426 h 4.01164 l 0.87077,-0.74621 0.21754,-1.80351 h -2.11461 l 1.3684,-11.41274 h -3.1719 l -1.02629,8.33438 c -0.34206,1.8658 -1.39893,3.35845 -3.32692,3.35845 -1.74142,0 -2.5502,-1.02633 -2.20814,-3.66955 l 0.99529,-8.02328 z m -152.79274,2.05259 c 1.05729,0 1.89705,0.43537 1.89705,1.58595 0,0.9329 -0.4664,1.80342 -3.20291,2.36316 -0.55974,0.0933 -1.27508,0.24881 -2.08359,0.3421 0.27987,-2.17676 1.21269,-4.29121 3.38945,-4.29121 z m 38.5067,0 c 1.05728,0 1.89652,0.43537 1.89652,1.58595 0,0.9329 -0.4664,1.80342 -3.2029,2.36316 -0.55974,0.0933 -1.27508,0.24881 -2.0836,0.3421 0.27987,-2.17676 1.21321,-4.29121 3.38998,-4.29121 z m 60.79629,0 c 1.05728,0 1.89704,0.43537 1.89704,1.58595 0,0.9329 -0.46692,1.80342 -3.20342,2.36316 -0.55974,0.0933 -1.27457,0.24881 -2.08308,0.3421 0.27987,-2.17676 1.21269,-4.29121 3.38946,-4.29121 z M 59.858999,139.071 c 1.648121,0 2.985103,1.36876 2.891814,3.54552 l -0.248563,1.89653 c -0.404257,1.8658 -1.83466,3.98063 -3.731556,3.98063 -1.585929,0 -2.394686,-1.36854 -2.394686,-3.79408 0,-2.67431 0.933067,-5.6286 3.482991,-5.6286 z m 190.166161,0 c 2.05238,0 2.86081,1.33752 2.86081,3.94963 0,2.95418 -1.05715,5.47305 -3.76256,5.47305 -2.11457,0 -2.70526,-1.58619 -2.70526,-3.98063 0,-3.48283 1.18147,-5.44205 3.60701,-5.44205 z"
       id="flowRoot5181"
       inkscape:connector-curvature="0" />
    <g
       id="g4516"
       transform="matrix(0.63879028,0,0,0.63879028,-4.4760458,61.692142)">
      <rect
         y="168.6954"
         x="20.674778"
         height="33.005314"
         width="66.323471"
         id="rect5204"
         style="opacity:1;fill:#cafbab;fill-opacity:1;fill-rule:nonzero;stroke:#000000;stroke-width:1.36277628;stroke-linecap:butt;stroke-linejoin:round;stroke-miterlimit:4;stroke-dasharray:1.36277629, 1.36277629;stroke-dashoffset:0;stroke-opacity:0.00276244;paint-order:normal" />
      <rect
         y="168.57808"
         x="65.098999"
         height="33.239948"
         width="14.234519"
         id="rect5206"
         style="opacity:1;fill:#b5b5b5;fill-opacity:1;fill-rule:nonzero;stroke:#000000;stroke-width:1.36277628;stroke-linecap:butt;stroke-linejoin:round;stroke-miterlimit:4;stroke-dasharray:1.36277629, 1.36277629;stroke-dashoffset:0;stroke-opacity:0.00276244;paint-order:normal" />
      <path
         id="flowRoot5208"
         transform="matrix(0.26458333,0,0,0.26458333,0,117)"
         d="m 278.10156,205.30273 c -7.75195,0 -13.98766,5.0108 -16.08594,13.69532 h -4.08007 l -1.05078,4.25586 h 4.83789 v 4.66211 h -3.78711 l -1.05078,4.19726 h 5.01367 c 1.69027,8.97595 7.34446,13.98828 15.9707,13.98828 3.55541,0 6.29441,-0.87428 9.15039,-2.21484 v -5.94531 c -2.3897,1.34056 -5.07195,2.44726 -8.33594,2.44726 -5.07082,0 -8.04266,-2.50514 -9.09179,-8.27539 h 11.54101 l 0.99024,-4.19726 h -12.76367 v -4.66211 h 13.7539 l 1.10742,-4.25586 h -14.51172 c 1.45714,-5.5954 4.60362,-8.04297 8.6836,-8.04297 3.08912,0 5.30458,0.75863 7.86914,2.39062 L 289,208.625 c -3.03084,-2.03999 -6.46875,-3.32227 -10.89844,-3.32227 z"
         style="font-style:normal;font-variant:normal;font-weight:500;font-stretch:normal;font-size:16px;line-height:1.25;font-family:'Fira Sans';-inkscape-font-specification:'Fira Sans, Medium';font-variant-ligatures:normal;font-variant-caps:normal;font-variant-numeric:normal;font-feature-settings:normal;text-align:center;letter-spacing:0px;word-spacing:0px;writing-mode:lr-tb;text-anchor:middle;fill:#ffffff;fill-opacity:1;stroke:none;stroke-width:3.64283633"
         inkscape:connector-curvature="0" />
      <path
         id="flowRoot5224"
         transform="matrix(0.26458333,0,0,0.26458333,0,117)"
         d="m 102.87695,210.4668 -9.144528,20.71484 v 4.10547 h 13.343748 v 7.18359 h 5.83203 v -7.18359 h 3.7793 v -4.57227 h -3.7793 v -7.88476 h -5.17968 l -0.60547,7.88476 H 99.9375 l 8.02539,-18.33593 z m 28.35547,0.0469 c -7.37149,0 -11.24219,5.83053 -11.24219,16.28125 0,10.49738 3.8707,16.37696 11.24219,16.37696 7.41815,0 11.24414,-5.87958 11.24414,-16.37696 0,-10.45072 -3.82599,-16.28125 -11.24414,-16.28125 z m 38.36328,0 c -7.37149,0 -11.24414,5.83053 -11.24414,16.28125 0,10.49738 3.87265,16.37696 11.24414,16.37696 7.41815,0 11.24414,-5.87958 11.24414,-16.37696 0,-10.45072 -3.82599,-16.28125 -11.24414,-16.28125 z m 26.69922,0 c -7.37149,0 -11.24414,5.83053 -11.24414,16.28125 0,10.49738 3.87265,16.37696 11.24414,16.37696 7.41815,0 11.24414,-5.87958 11.24414,-16.37696 0,-10.45072 -3.82599,-16.28125 -11.24414,-16.28125 z m 26.69922,0 c -7.37149,0 -11.24414,5.83053 -11.24414,16.28125 0,10.49738 3.87265,16.37696 11.24414,16.37696 7.41815,0 11.24414,-5.87958 11.24414,-16.37696 0,-10.45072 -3.82599,-16.28125 -11.24414,-16.28125 z m -91.76172,4.52539 c 3.45247,0 5.08594,2.93806 5.08594,11.75586 0,8.86446 -1.63347,11.85156 -5.08594,11.85156 -3.45247,0 -5.08398,-3.08041 -5.08398,-11.85156 0,-8.67783 1.63151,-11.75586 5.08398,-11.75586 z m 38.36328,0 c 3.45248,0 5.08594,2.93806 5.08594,11.75586 0,8.86446 -1.63346,11.85156 -5.08594,11.85156 -3.45247,0 -5.08593,-3.08041 -5.08593,-11.85156 0,-8.67783 1.63346,-11.75586 5.08593,-11.75586 z m 26.69922,0 c 3.45247,0 5.08594,2.93806 5.08594,11.75586 0,8.86446 -1.63347,11.85156 -5.08594,11.85156 -3.45247,0 -5.08594,-3.08041 -5.08594,-11.85156 0,-8.67783 1.63347,-11.75586 5.08594,-11.75586 z m 26.69922,0 c 3.45247,0 5.08594,2.93806 5.08594,11.75586 0,8.86446 -1.63347,11.85156 -5.08594,11.85156 -3.45247,0 -5.08594,-3.08041 -5.08594,-11.85156 0,-8.67783 1.63347,-11.75586 5.08594,-11.75586 z"
         style="font-style:normal;font-variant:normal;font-weight:500;font-stretch:normal;font-size:16px;line-height:1.25;font-family:'Fira Sans';-inkscape-font-specification:'Fira Sans, Medium';font-variant-ligatures:normal;font-variant-caps:normal;font-variant-numeric:normal;font-feature-settings:normal;text-align:center;letter-spacing:0px;word-spacing:0px;writing-mode:lr-tb;text-anchor:middle;fill:#000000;fill-opacity:1;stroke:none;stroke-width:2.91593933"
         inkscape:connector-curvature="0" />
    </g>
    <g
       id="g4522"
       transform="matrix(0.63879028,0,0,0.63879028,-4.4760458,63.864322)">
      <rect
         y="210.13234"
         x="20.674778"
         height="33.005314"
         width="66.323471"
         id="rect5204-6"
         style="opacity:1;fill:#cafbab;fill-opacity:1;fill-rule:nonzero;stroke:#000000;stroke-width:1.36277628;stroke-linecap:butt;stroke-linejoin:round;stroke-miterlimit:4;stroke-dasharray:1.36277629, 1.36277629;stroke-dashoffset:0;stroke-opacity:0.00276244;paint-order:normal" />
      <rect
         y="210.01501"
         x="65.098999"
         height="33.239948"
         width="14.234519"
         id="rect5206-2"
         style="opacity:1;fill:#b5b5b5;fill-opacity:1;fill-rule:nonzero;stroke:#000000;stroke-width:1.36277628;stroke-linecap:butt;stroke-linejoin:round;stroke-miterlimit:4;stroke-dasharray:1.36277629, 1.36277629;stroke-dashoffset:0;stroke-opacity:0.00276244;paint-order:normal" />
      <path
         id="flowRoot5208-0"
         transform="matrix(0.26458333,0,0,0.26458333,0,117)"
         d="m 278.10156,361.91406 c -7.75195,0 -13.98766,5.01275 -16.08594,13.69727 h -4.08007 l -1.05078,4.2539 h 4.83789 v 4.66407 h -3.78711 l -1.05078,4.19531 h 5.01367 c 1.69027,8.97595 7.34446,13.98828 15.9707,13.98828 3.55541,0 6.29441,-0.87428 9.15039,-2.21484 v -5.94532 c -2.3897,1.34057 -5.07195,2.44922 -8.33594,2.44922 -5.07082,0 -8.04266,-2.50709 -9.09179,-8.27734 h 11.54101 l 0.99024,-4.19531 h -12.76367 v -4.66407 h 13.7539 l 1.10742,-4.2539 h -14.51172 c 1.45714,-5.5954 4.60362,-8.04297 8.6836,-8.04297 3.08912,0 5.30458,0.75668 7.86914,2.38867 L 289,365.23633 c -3.03084,-2.03999 -6.46875,-3.32227 -10.89844,-3.32227 z"
         style="font-style:normal;font-variant:normal;font-weight:500;font-stretch:normal;font-size:16px;line-height:1.25;font-family:'Fira Sans';-inkscape-font-specification:'Fira Sans, Medium';font-variant-ligatures:normal;font-variant-caps:normal;font-variant-numeric:normal;font-feature-settings:normal;text-align:center;letter-spacing:0px;word-spacing:0px;writing-mode:lr-tb;text-anchor:middle;fill:#ffffff;fill-opacity:1;stroke:none;stroke-width:3.64283633"
         inkscape:connector-curvature="0" />
      <path
         id="flowRoot5224-6"
         transform="matrix(0.26458333,0,0,0.26458333,0,117)"
         d="m 102.87695,367.07812 -9.144528,20.71485 v 4.10547 h 13.343748 v 7.18554 h 5.83203 v -7.18554 h 3.7793 v -4.57227 h -3.7793 v -7.88476 h -5.17968 l -0.60547,7.88476 H 99.9375 l 8.02539,-18.33398 z m 28.35547,0.0469 c -7.37149,0 -11.24219,5.83248 -11.24219,16.2832 0,10.49738 3.8707,16.375 11.24219,16.375 7.41815,0 11.24414,-5.87762 11.24414,-16.375 0,-10.45072 -3.82599,-16.2832 -11.24414,-16.2832 z m 38.36328,0 c -7.37149,0 -11.24414,5.83248 -11.24414,16.2832 0,10.49738 3.87265,16.375 11.24414,16.375 7.41815,0 11.24414,-5.87762 11.24414,-16.375 0,-10.45072 -3.82599,-16.2832 -11.24414,-16.2832 z m 26.69922,0 c -7.37149,0 -11.24414,5.83248 -11.24414,16.2832 0,10.49738 3.87265,16.375 11.24414,16.375 7.41815,0 11.24414,-5.87762 11.24414,-16.375 0,-10.45072 -3.82599,-16.2832 -11.24414,-16.2832 z m 26.69922,0 c -7.37149,0 -11.24414,5.83248 -11.24414,16.2832 0,10.49738 3.87265,16.375 11.24414,16.375 7.41815,0 11.24414,-5.87762 11.24414,-16.375 0,-10.45072 -3.82599,-16.2832 -11.24414,-16.2832 z m -91.76172,4.52539 c 3.45247,0 5.08594,2.94001 5.08594,11.75781 0,8.86446 -1.63347,11.84961 -5.08594,11.84961 -3.45247,0 -5.08398,-3.07846 -5.08398,-11.84961 0,-8.67783 1.63151,-11.75781 5.08398,-11.75781 z m 38.36328,0 c 3.45248,0 5.08594,2.94001 5.08594,11.75781 0,8.86446 -1.63346,11.84961 -5.08594,11.84961 -3.45247,0 -5.08593,-3.07846 -5.08593,-11.84961 0,-8.67783 1.63346,-11.75781 5.08593,-11.75781 z m 26.69922,0 c 3.45247,0 5.08594,2.94001 5.08594,11.75781 0,8.86446 -1.63347,11.84961 -5.08594,11.84961 -3.45247,0 -5.08594,-3.07846 -5.08594,-11.84961 0,-8.67783 1.63347,-11.75781 5.08594,-11.75781 z m 26.69922,0 c 3.45247,0 5.08594,2.94001 5.08594,11.75781 0,8.86446 -1.63347,11.84961 -5.08594,11.84961 -3.45247,0 -5.08594,-3.07846 -5.08594,-11.84961 0,-8.67783 1.63347,-11.75781 5.08594,-11.75781 z"
         style="font-style:normal;font-variant:normal;font-weight:500;font-stretch:normal;font-size:16px;line-height:1.25;font-family:'Fira Sans';-inkscape-font-specification:'Fira Sans, Medium';font-variant-ligatures:normal;font-variant-caps:normal;font-variant-numeric:normal;font-feature-settings:normal;text-align:center;letter-spacing:0px;word-spacing:0px;writing-mode:lr-tb;text-anchor:middle;fill:#000000;fill-opacity:1;stroke:none;stroke-width:2.91593933"
         inkscape:connector-curvature="0" />
    </g>
    <g
       id="g4528"
       transform="matrix(0.63879028,0,0,0.63879028,-4.4760458,68.452407)">
      <rect
         y="251.56927"
         x="20.674778"
         height="33.005314"
         width="66.323471"
         id="rect5204-6-7"
         style="opacity:1;fill:#cafbab;fill-opacity:1;fill-rule:nonzero;stroke:#000000;stroke-width:1.36277628;stroke-linecap:butt;stroke-linejoin:round;stroke-miterlimit:4;stroke-dasharray:1.36277629, 1.36277629;stroke-dashoffset:0;stroke-opacity:0.00276244;paint-order:normal" />
      <rect
         y="251.45197"
         x="65.098999"
         height="33.239948"
         width="14.234519"
         id="rect5206-2-4"
         style="opacity:1;fill:#b5b5b5;fill-opacity:1;fill-rule:nonzero;stroke:#000000;stroke-width:1.36277628;stroke-linecap:butt;stroke-linejoin:round;stroke-miterlimit:4;stroke-dasharray:1.36277629, 1.36277629;stroke-dashoffset:0;stroke-opacity:0.00276244;paint-order:normal" />
      <path
         id="flowRoot5208-0-0"
         transform="matrix(0.26458333,0,0,0.26458333,0,117)"
         d="m 278.10156,518.52539 c -7.75195,0 -13.98766,5.01274 -16.08594,13.69727 h -4.08007 l -1.05078,4.25586 h 4.83789 v 4.6621 h -3.78711 l -1.05078,4.19727 h 5.01367 c 1.69027,8.97595 7.34446,13.98828 15.9707,13.98828 3.55541,0 6.29441,-0.87428 9.15039,-2.21484 v -5.94531 c -2.3897,1.34056 -5.07195,2.44726 -8.33594,2.44726 -5.07082,0 -8.04266,-2.50514 -9.09179,-8.27539 h 11.54101 l 0.99024,-4.19727 h -12.76367 v -4.6621 h 13.7539 l 1.10742,-4.25586 h -14.51172 c 1.45714,-5.5954 4.60362,-8.04297 8.6836,-8.04297 3.08912,0 5.30458,0.75668 7.86914,2.38867 L 289,521.84766 c -3.03084,-2.03999 -6.46875,-3.32227 -10.89844,-3.32227 z"
         style="font-style:normal;font-variant:normal;font-weight:500;font-stretch:normal;font-size:16px;line-height:1.25;font-family:'Fira Sans';-inkscape-font-specification:'Fira Sans, Medium';font-variant-ligatures:normal;font-variant-caps:normal;font-variant-numeric:normal;font-feature-settings:normal;text-align:center;letter-spacing:0px;word-spacing:0px;writing-mode:lr-tb;text-anchor:middle;fill:#ffffff;fill-opacity:1;stroke:none;stroke-width:3.64283633"
         inkscape:connector-curvature="0" />
      <path
         id="flowRoot5224-6-5"
         transform="matrix(0.26458333,0,0,0.26458333,0,117)"
         d="m 130.50391,523.73633 c -7.3715,0 -11.24414,5.83247 -11.24414,16.2832 0,10.49738 3.87264,16.37695 11.24414,16.37695 7.41815,0 11.24414,-5.87957 11.24414,-16.37695 0,-10.45073 -3.82599,-16.2832 -11.24414,-16.2832 z m 38.36328,0 c -7.3715,0 -11.24414,5.83247 -11.24414,16.2832 0,10.49738 3.87264,16.37695 11.24414,16.37695 7.41815,0 11.24414,-5.87957 11.24414,-16.37695 0,-10.45073 -3.82599,-16.2832 -11.24414,-16.2832 z m 26.69922,0 c -7.3715,0 -11.24414,5.83247 -11.24414,16.2832 0,10.49738 3.87264,16.37695 11.24414,16.37695 7.41815,0 11.24414,-5.87957 11.24414,-16.37695 0,-10.45073 -3.82599,-16.2832 -11.24414,-16.2832 z m 26.69921,0 c -7.37149,0 -11.24414,5.83247 -11.24414,16.2832 0,10.49738 3.87265,16.37695 11.24414,16.37695 7.41815,0 11.24415,-5.87957 11.24415,-16.37695 0,-10.45073 -3.826,-16.2832 -11.24415,-16.2832 z m -126.357417,0.56055 v 16.42187 h 4.246097 c 1.4463,-0.74648 2.61228,-1.07227 4.05859,-1.07227 2.89261,0 5.03906,1.49312 5.03906,5.83204 0,4.05898 -2.19423,6.29882 -5.69336,6.29882 -2.61268,0 -4.61751,-1.07347 -6.343746,-2.98632 l -3.40625,3.17187 c 2.426061,2.65934 5.505052,4.43359 9.890626,4.43359 7.09156,0 11.71094,-4.47957 11.71094,-10.91796 0,-6.39174 -3.77855,-10.125 -9.00391,-10.125 -1.53962,0 -3.17349,0.37483 -4.75977,1.16796 v -7.79296 h 11.75782 l 0.69922,-4.43164 z m 34.595707,3.96484 c 3.45247,0 5.08593,2.94001 5.08593,11.75781 0,8.86446 -1.63346,11.84961 -5.08593,11.84961 -3.45248,0 -5.08594,-3.07846 -5.08594,-11.84961 0,-8.67783 1.63346,-11.75781 5.08594,-11.75781 z m 38.36328,0 c 3.45247,0 5.08593,2.94001 5.08593,11.75781 0,8.86446 -1.63346,11.84961 -5.08593,11.84961 -3.45247,0 -5.08594,-3.07846 -5.08594,-11.84961 0,-8.67783 1.63347,-11.75781 5.08594,-11.75781 z m 26.69922,0 c 3.45247,0 5.08593,2.94001 5.08593,11.75781 0,8.86446 -1.63346,11.84961 -5.08593,11.84961 -3.45248,0 -5.08594,-3.07846 -5.08594,-11.84961 0,-8.67783 1.63346,-11.75781 5.08594,-11.75781 z m 26.69921,0 c 3.45248,0 5.08399,2.94001 5.08399,11.75781 0,8.86446 -1.63151,11.84961 -5.08399,11.84961 -3.45247,0 -5.08593,-3.07846 -5.08593,-11.84961 0,-8.67783 1.63346,-11.75781 5.08593,-11.75781 z"
         style="font-style:normal;font-variant:normal;font-weight:500;font-stretch:normal;font-size:16px;line-height:1.25;font-family:'Fira Sans';-inkscape-font-specification:'Fira Sans, Medium';font-variant-ligatures:normal;font-variant-caps:normal;font-variant-numeric:normal;font-feature-settings:normal;text-align:center;letter-spacing:0px;word-spacing:0px;writing-mode:lr-tb;text-anchor:middle;fill:#000000;fill-opacity:1;stroke:none;stroke-width:2.91593933"
         inkscape:connector-curvature="0" />
    </g>
    <rect
       style="opacity:1;fill:#ffffff;fill-opacity:0.57458562;fill-rule:nonzero;stroke:none;stroke-width:0.17814121;stroke-linecap:butt;stroke-linejoin:round;stroke-miterlimit:4;stroke-dasharray:none;stroke-dashoffset:0;stroke-opacity:0.00276244;paint-order:normal"
       id="rect4681-2-6"
       width="181.39557"
       height="28.625319"
       x="126.70181"
       y="188.5096" />
    <rect
       style="opacity:1;fill:#ffffff;fill-opacity:0.7707182;fill-rule:nonzero;stroke:none;stroke-width:0.15168376;stroke-linecap:butt;stroke-linejoin:round;stroke-miterlimit:4;stroke-dasharray:none;stroke-dashoffset:0;stroke-opacity:0.00276244;paint-order:normal"
       id="rect4681"
       width="181.18604"
       height="20.777903"
       x="126.91135"
       y="167.7874" />
    <path
       style="font-style:normal;font-variant:normal;font-weight:500;font-stretch:normal;font-size:16px;line-height:1.25;font-family:'Fira Sans';-inkscape-font-specification:'Fira Sans, Medium';font-variant-ligatures:normal;font-variant-caps:normal;font-variant-numeric:normal;font-feature-settings:normal;text-align:center;letter-spacing:0px;word-spacing:0px;writing-mode:lr-tb;text-anchor:middle;fill:#000000;fill-opacity:1;stroke:none;stroke-width:2.28155708"
       d="M 677.39648 213.52734 L 669.43945 218.34766 L 671.04492 221.30273 L 679.66016 217.83594 L 677.39648 213.52734 z M 571.27344 213.67969 L 563.31445 218.5 L 564.92188 221.45508 L 573.53711 217.98828 L 571.27344 213.67969 z M 934.50391 213.87695 C 932.49614 213.87695 931.10938 215.30036 931.10938 217.16211 C 931.10938 219.02386 932.49614 220.44727 934.50391 220.44727 C 936.51168 220.44727 937.93555 219.02386 937.93555 217.16211 C 937.93555 215.30036 936.51168 213.87695 934.50391 213.87695 z M 1108.2598 213.87695 C 1106.252 213.87695 1104.8633 215.30036 1104.8633 217.16211 C 1104.8633 219.02386 1106.252 220.44727 1108.2598 220.44727 C 1110.2675 220.44727 1111.6895 219.02386 1111.6895 217.16211 C 1111.6895 215.30036 1110.2675 213.87695 1108.2598 213.87695 z M 950.10156 215.77539 C 945.13689 215.77539 942.68945 218.65931 942.68945 222.38281 L 942.68945 224.09766 L 939.76953 224.09766 L 939.76953 228.11328 L 942.68945 228.11328 L 942.68945 243.48242 L 948.45898 243.48242 L 948.45898 228.11328 L 952.40039 228.11328 L 952.74609 225.87891 L 952.74609 228.11328 L 955.66602 228.11328 L 955.66602 243.48242 L 961.43359 243.48242 L 961.43359 228.11328 L 965.37695 228.11328 L 965.99805 224.09766 L 961.43359 224.09766 L 961.43359 222.60156 C 961.43359 220.77632 962.09226 220.04492 963.77148 220.04492 C 964.6111 220.04492 965.70563 220.22782 966.80078 220.77539 L 968.37109 217.01562 C 966.9474 216.28553 965.0859 215.77539 963.07812 215.77539 C 958.11346 215.77539 955.66602 218.65931 955.66602 222.38281 L 955.66602 224.09766 L 953.02148 224.09766 L 948.45898 224.09766 L 948.45898 222.60156 C 948.45898 220.77632 949.1157 220.04492 950.79492 220.04492 C 951.63453 220.04492 952.72907 220.22782 953.82422 220.77539 L 955.39453 217.01562 C 953.97084 216.28553 952.10933 215.77539 950.10156 215.77539 z M 1021.8359 215.77539 L 1021.8359 225.30273 C 1020.7043 224.17108 1019.1346 223.47656 1017.2363 223.47656 C 1012.4542 223.47656 1009.3145 227.74757 1009.3145 233.73438 C 1009.3145 240.01322 1011.7613 244.10352 1016.6895 244.10352 C 1019.3178 244.10352 1021.0695 242.82497 1022.2012 241.21875 L 1022.4941 243.48242 L 1027.6035 243.48242 L 1027.6035 216.39453 L 1021.8359 215.77539 z M 1068.457 215.77539 C 1063.4924 215.77539 1061.0469 218.65931 1061.0469 222.38281 L 1061.0469 224.09766 L 1058.125 224.09766 L 1058.125 228.11328 L 1061.0469 228.11328 L 1061.0469 243.48242 L 1066.8145 243.48242 L 1066.8145 228.11328 L 1070.7559 228.11328 L 1071.1016 225.87891 L 1071.1016 228.11328 L 1074.0215 228.11328 L 1074.0215 243.48242 L 1079.791 243.48242 L 1079.791 228.11328 L 1083.7324 228.11328 L 1084.3535 224.09766 L 1079.791 224.09766 L 1079.791 222.60156 C 1079.791 220.77632 1080.4477 220.04492 1082.127 220.04492 C 1082.9666 220.04492 1084.0611 220.22782 1085.1562 220.77539 L 1086.7266 217.01562 C 1085.3029 216.28553 1083.4414 215.77539 1081.4336 215.77539 C 1076.4689 215.77539 1074.0215 218.65931 1074.0215 222.38281 L 1074.0215 224.09766 L 1071.377 224.09766 L 1066.8145 224.09766 L 1066.8145 222.60156 C 1066.8145 220.77632 1067.4712 220.04492 1069.1504 220.04492 C 1069.99 220.04492 1071.0845 220.22782 1072.1797 220.77539 L 1073.75 217.01562 C 1072.3263 216.28553 1070.4648 215.77539 1068.457 215.77539 z M 916.39062 215.81055 L 910.62305 216.39453 L 910.62305 243.48242 L 916.39062 243.48242 L 916.39062 230.19336 C 917.41276 228.62365 918.47233 227.71094 919.75 227.71094 C 920.84515 227.71094 921.57422 228.26041 921.57422 230.30469 L 921.57422 243.48242 L 927.34375 243.48242 L 927.34375 229.31836 C 927.34375 225.63136 925.33501 223.47656 921.97656 223.47656 C 919.71326 223.47656 917.96034 224.38899 916.39062 226.17773 L 916.39062 215.81055 z M 900.45898 217.56445 C 893.8881 217.56445 888.95898 222.3082 888.95898 230.77734 C 888.95898 239.42901 893.59532 244.10352 900.53125 244.10352 C 904.03572 244.10352 906.7739 242.53274 908.45312 240.85352 L 905.78906 237.42188 C 904.29236 238.55353 902.83199 239.4668 900.82422 239.4668 C 897.46577 239.4668 895.23828 236.87366 895.23828 230.77734 C 895.23828 224.57151 897.50106 221.98047 900.75 221.98047 C 902.46573 221.98047 903.89076 222.63727 905.31445 223.73242 L 908.16211 220.33789 C 906.04482 218.54915 903.74443 217.56445 900.45898 217.56445 z M 1031.6055 218.18359 L 1032.2988 228.36914 L 1036.0957 228.36914 L 1036.8262 218.18359 L 1031.6055 218.18359 z M 643.06836 218.71094 L 643.06836 244.00977 L 650.66211 244.00977 C 657.12348 244.00977 663.25586 241.41729 663.25586 231.23242 C 663.25586 220.79202 656.86669 218.71094 650.11328 218.71094 L 643.06836 218.71094 z M 501.87109 218.86328 L 494.24219 244.16211 L 500.44727 244.16211 L 501.72461 238.72266 L 509.09961 238.72266 L 510.41211 244.16211 L 516.76562 244.16211 L 509.13477 218.86328 L 501.87109 218.86328 z M 649.05469 223.05664 L 650.95312 223.05664 C 654.4576 223.05664 657.04883 224.44251 657.04883 231.23242 C 657.04883 237.94932 654.64133 239.66602 651.02734 239.66602 L 649.05469 239.66602 L 649.05469 223.05664 z M 505.41211 223.20898 L 508.07617 234.37891 L 502.74609 234.37891 L 505.41211 223.20898 z M 989.38086 223.47656 C 983.50357 223.47656 980.32812 228.07658 980.32812 233.88086 C 980.32812 239.94067 983.61285 244.10352 990.07422 244.10352 C 993.21364 244.10352 995.6961 242.9336 997.63086 241.40039 L 995.25781 238.18945 C 993.57859 239.35761 992.19276 239.9043 990.62305 239.9043 C 988.25023 239.9043 986.60663 238.95625 986.20508 235.48828 L 998.21484 235.48828 C 998.28785 234.9042 998.32422 234.02683 998.32422 233.40625 C 998.32422 227.12741 994.92961 223.47656 989.38086 223.47656 z M 1047.6191 223.47656 C 1045.4288 223.47656 1042.7642 223.98777 1040.3184 224.90039 L 1041.6309 228.69727 C 1043.5656 228.04018 1045.4639 227.67578 1046.7051 227.67578 C 1049.0779 227.67578 1049.9922 228.36816 1049.9922 230.66797 L 1049.9922 231.50781 L 1048.0195 231.50781 C 1042.1422 231.50781 1038.9297 233.8084 1038.9297 238.04297 C 1038.9297 241.58395 1041.3766 244.10352 1045.2461 244.10352 C 1047.5459 244.10352 1049.6988 243.33543 1051.0859 241.18164 C 1051.9621 243.1164 1053.46 243.80966 1055.7598 243.99219 L 1056.9629 240.23242 C 1056.0503 239.90388 1055.6504 239.35608 1055.6504 237.85938 L 1055.6504 230.33984 C 1055.6504 225.84974 1053.2409 223.47656 1047.6191 223.47656 z M 1092.75 223.47656 C 1090.5597 223.47656 1087.895 223.98777 1085.4492 224.90039 L 1086.7637 228.69727 C 1088.6984 228.04018 1090.5967 227.67578 1091.8379 227.67578 C 1094.2107 227.67578 1095.123 228.36816 1095.123 230.66797 L 1095.123 231.50781 L 1093.1523 231.50781 C 1087.2751 231.50781 1084.0625 233.8084 1084.0625 238.04297 C 1084.0625 241.58395 1086.5074 244.10352 1090.377 244.10352 C 1092.6768 244.10352 1094.8316 243.33543 1096.2188 241.18164 C 1097.0949 243.1164 1098.5908 243.80966 1100.8906 243.99219 L 1102.0957 240.23242 C 1101.1831 239.90388 1100.7812 239.35608 1100.7812 237.85938 L 1100.7812 230.33984 C 1100.7812 225.84974 1098.3718 223.47656 1092.75 223.47656 z M 1137.1836 223.47656 C 1131.3063 223.47656 1128.1309 228.07658 1128.1309 233.88086 C 1128.1309 239.94067 1131.4156 244.10352 1137.877 244.10352 C 1141.0164 244.10352 1143.4988 242.9336 1145.4336 241.40039 L 1143.0605 238.18945 C 1141.3813 239.35761 1139.9935 239.9043 1138.4238 239.9043 C 1136.051 239.9043 1134.4094 238.95625 1134.0078 235.48828 L 1146.0176 235.48828 C 1146.0906 234.9042 1146.127 234.02683 1146.127 233.40625 C 1146.127 227.12741 1142.7323 223.47656 1137.1836 223.47656 z M 978.39062 223.55078 C 976.16383 223.55078 974.26479 225.15606 973.38867 227.85742 L 972.91406 224.09766 L 967.87695 224.09766 L 967.87695 243.48242 L 973.64453 243.48242 L 973.64453 233.88086 C 974.26511 230.92396 975.25083 229.13477 977.66016 229.13477 C 978.31724 229.13477 978.79153 229.24461 979.41211 229.39062 L 980.32422 223.80664 C 979.70364 223.62412 979.12072 223.55078 978.39062 223.55078 z M 1126.1914 223.55078 C 1123.9646 223.55078 1122.0675 225.15606 1121.1914 227.85742 L 1120.7168 224.09766 L 1115.6777 224.09766 L 1115.6777 243.48242 L 1121.4473 243.48242 L 1121.4473 233.88086 C 1122.0678 230.92396 1123.0516 229.13477 1125.4609 229.13477 C 1126.118 229.13477 1126.5943 229.24461 1127.2148 229.39062 L 1128.127 223.80664 C 1127.5064 223.62412 1126.9215 223.55078 1126.1914 223.55078 z M 674.66016 224.00586 C 668.78287 224.00586 665.60547 228.60392 665.60547 234.4082 C 665.60547 240.46802 668.89215 244.63086 675.35352 244.63086 C 678.49294 244.63086 680.9754 243.46289 682.91016 241.92969 L 680.53711 238.7168 C 678.85788 239.88495 677.4701 240.43164 675.90039 240.43164 C 673.52757 240.43164 671.88398 239.48359 671.48242 236.01562 L 683.49414 236.01562 C 683.56715 235.43155 683.60352 234.55418 683.60352 233.93359 C 683.60352 227.65475 680.2089 224.00586 674.66016 224.00586 z M 697.83008 224.00586 C 695.93182 224.00586 693.85036 224.77153 692.24414 226.7793 L 691.95312 224.625 L 686.87891 224.625 L 686.87891 252.11328 L 692.64648 251.49219 L 692.64648 242.62305 C 693.85115 243.97373 695.45721 244.63086 697.35547 244.63086 C 702.13761 244.63086 705.05859 240.25048 705.05859 234.26367 C 705.05859 227.98483 702.83125 224.00586 697.83008 224.00586 z M 716.6543 224.00586 C 710.77701 224.00586 707.60156 228.60392 707.60156 234.4082 C 707.60156 240.46802 710.88629 244.63086 717.34766 244.63086 C 720.48708 244.63086 722.96954 243.46289 724.9043 241.92969 L 722.53125 238.7168 C 720.85202 239.88495 719.46424 240.43164 717.89453 240.43164 C 715.52171 240.43164 713.88007 239.48359 713.47852 236.01562 L 725.48828 236.01562 C 725.56129 235.43155 725.59766 234.55418 725.59766 233.93359 C 725.59766 227.65475 722.20304 224.00586 716.6543 224.00586 z M 740.22656 224.00586 C 737.81724 224.00586 735.95522 224.99102 734.3125 226.92578 L 733.91211 224.625 L 728.87305 224.625 L 728.87305 244.00977 L 734.64062 244.00977 L 734.64062 230.75781 C 735.66276 229.1516 736.72233 228.24023 738 228.24023 C 739.13165 228.24023 739.82422 228.78776 739.82422 230.83203 L 739.82422 244.00977 L 745.59375 244.00977 L 745.59375 229.8457 C 745.59375 226.15871 743.58501 224.00586 740.22656 224.00586 z M 756.73242 224.00586 C 751.84076 224.00586 748.8125 226.59602 748.8125 229.91797 C 748.8125 232.91137 750.70995 234.88337 754.54297 235.97852 C 758.04744 236.96415 758.63086 237.36551 758.63086 238.67969 C 758.63086 239.84784 757.57255 240.50586 755.82031 240.50586 C 753.92206 240.50586 752.13402 239.73907 750.67383 238.60742 L 747.86328 241.74609 C 749.76154 243.46182 752.60835 244.63086 755.9668 244.63086 C 760.78544 244.63086 764.58203 242.25773 764.58203 238.24219 C 764.58203 234.77422 762.42872 233.16741 758.5957 232.07227 C 755.12774 231.05013 754.61523 230.61198 754.61523 229.58984 C 754.61523 228.71373 755.38341 228.13086 756.95312 228.13086 C 758.63235 228.13086 760.23767 228.67783 761.73438 229.62695 L 763.85156 226.37695 C 762.06282 224.91676 759.5433 224.00586 756.73242 224.00586 z M 775.47656 224.00586 C 769.59927 224.00586 766.42188 228.60392 766.42188 234.4082 C 766.42188 240.46802 769.70855 244.63086 776.16992 244.63086 C 779.30934 244.63086 781.7918 243.46289 783.72656 241.92969 L 781.35352 238.7168 C 779.67429 239.88495 778.28651 240.43164 776.7168 240.43164 C 774.34398 240.43164 772.70038 239.48359 772.29883 236.01562 L 784.31055 236.01562 C 784.38356 235.43155 784.41992 234.55418 784.41992 233.93359 C 784.41992 227.65475 781.02531 224.00586 775.47656 224.00586 z M 794.52148 224.00586 C 789.62983 224.00586 786.59961 226.59602 786.59961 229.91797 C 786.59961 232.91137 788.49902 234.88337 792.33203 235.97852 C 795.8365 236.96415 796.41992 237.36551 796.41992 238.67969 C 796.41992 239.84784 795.36161 240.50586 793.60938 240.50586 C 791.71112 240.50586 789.92113 239.73907 788.46094 238.60742 L 785.65039 241.74609 C 787.54865 243.46182 790.39545 244.63086 793.75391 244.63086 C 798.57255 244.63086 802.36914 242.25773 802.36914 238.24219 C 802.36914 234.77422 800.21583 233.16741 796.38281 232.07227 C 792.91485 231.05013 792.4043 230.61198 792.4043 229.58984 C 792.4043 228.71373 793.17052 228.13086 794.74023 228.13086 C 796.41946 228.13086 798.02674 228.67783 799.52344 229.62695 L 801.64062 226.37695 C 799.85188 224.91676 797.33236 224.00586 794.52148 224.00586 z M 931.65625 224.09766 L 931.65625 243.48242 L 937.42383 243.48242 L 937.42383 224.09766 L 931.65625 224.09766 z M 1105.4121 224.09766 L 1105.4121 243.48242 L 1111.1797 243.48242 L 1111.1797 224.09766 L 1105.4121 224.09766 z M 529.86523 224.1582 C 527.45591 224.1582 525.59389 225.14336 523.95117 227.07812 L 523.54883 224.77734 L 518.51172 224.77734 L 518.51172 244.16211 L 524.2793 244.16211 L 524.2793 230.91016 C 525.30143 229.30394 526.35905 228.39258 527.63672 228.39258 C 528.76837 228.39258 529.46289 228.9401 529.46289 230.98438 L 529.46289 244.16211 L 535.23047 244.16211 L 535.23047 229.99805 C 535.23047 226.31105 533.22369 224.1582 529.86523 224.1582 z M 550.89648 224.1582 C 548.48716 224.1582 546.6271 225.14336 544.98438 227.07812 L 544.58203 224.77734 L 539.54492 224.77734 L 539.54492 244.16211 L 545.3125 244.16211 L 545.3125 230.91016 C 546.33464 229.30394 547.39225 228.39258 548.66992 228.39258 C 549.80157 228.39258 550.49609 228.9401 550.49609 230.98438 L 550.49609 244.16211 L 556.26367 244.16211 L 556.26367 229.99805 C 556.26367 226.31105 554.25494 224.1582 550.89648 224.1582 z M 568.53516 224.1582 C 562.65787 224.1582 559.48242 228.75627 559.48242 234.56055 C 559.48242 240.62036 562.76715 244.7832 569.22852 244.7832 C 572.36794 244.7832 574.8504 243.61524 576.78516 242.08203 L 574.41211 238.86914 C 572.73288 240.0373 571.34705 240.58398 569.77734 240.58398 C 567.40452 240.58398 565.76093 239.63594 565.35938 236.16797 L 577.36914 236.16797 C 577.44215 235.58389 577.47852 234.70652 577.47852 234.08594 C 577.47852 227.80709 574.0839 224.1582 568.53516 224.1582 z M 588.71289 224.1582 C 582.8356 224.1582 579.66016 228.75627 579.66016 234.56055 C 579.66016 240.62036 582.94488 244.7832 589.40625 244.7832 C 592.54567 244.7832 595.02813 243.61524 596.96289 242.08203 L 594.58984 238.86914 C 592.91062 240.0373 591.52479 240.58398 589.95508 240.58398 C 587.58226 240.58398 585.93866 239.63594 585.53711 236.16797 L 597.54688 236.16797 C 597.61988 235.58389 597.65625 234.70652 597.65625 234.08594 C 597.65625 227.80709 594.26164 224.1582 588.71289 224.1582 z M 989.52734 227.31055 C 991.82715 227.31055 992.62951 229.13532 992.66602 231.76367 L 992.66602 232.01953 L 986.20508 232.01953 C 986.46061 228.55156 987.59258 227.31055 989.52734 227.31055 z M 1137.3301 227.31055 C 1139.6299 227.31055 1140.4322 229.13532 1140.4688 231.76367 L 1140.4688 232.01953 L 1134.0078 232.01953 C 1134.2633 228.55156 1135.3953 227.31055 1137.3301 227.31055 z M 1018.8066 227.67578 C 1020.0843 227.67578 1020.9598 228.29622 1021.8359 229.31836 L 1021.8359 237.67773 C 1020.9233 239.13793 1019.8657 239.86719 1018.4785 239.86719 C 1016.6168 239.86719 1015.3027 238.59013 1015.3027 233.77148 C 1015.3027 229.4274 1016.7624 227.67578 1018.8066 227.67578 z M 674.80469 227.83789 C 677.1045 227.83789 677.90881 229.66266 677.94531 232.29102 L 677.94531 232.54688 L 671.48242 232.54688 C 671.73796 229.07891 672.86993 227.83789 674.80469 227.83789 z M 716.80078 227.83789 C 719.10059 227.83789 719.90295 229.66266 719.93945 232.29102 L 719.93945 232.54688 L 713.47852 232.54688 C 713.73405 229.07891 714.86602 227.83789 716.80078 227.83789 z M 775.62109 227.83789 C 777.9209 227.83789 778.72521 229.66266 778.76172 232.29102 L 778.76172 232.54688 L 772.29883 232.54688 C 772.55436 229.07891 773.68633 227.83789 775.62109 227.83789 z M 568.68164 227.99023 C 570.98145 227.99023 571.78381 229.81501 571.82031 232.44336 L 571.82031 232.69922 L 565.35938 232.69922 C 565.61491 229.23125 566.74688 227.99023 568.68164 227.99023 z M 588.85938 227.99023 C 591.15918 227.99023 591.96154 229.81501 591.99805 232.44336 L 591.99805 232.69922 L 585.53711 232.69922 C 585.79264 229.23125 586.92461 227.99023 588.85938 227.99023 z M 696.00586 228.24023 C 697.90411 228.24023 699.07227 229.51729 699.07227 234.33594 C 699.07227 238.68002 697.75731 240.39648 695.60352 240.39648 C 694.39885 240.39648 693.44959 239.84784 692.64648 238.67969 L 692.64648 230.50195 C 693.4861 229.07826 694.65518 228.24023 696.00586 228.24023 z M 1048.5684 234.68359 L 1049.9922 234.68359 L 1049.9922 238.11523 C 1049.2986 239.28339 1048.2765 239.97656 1046.9258 239.97656 C 1045.5021 239.97656 1044.6621 239.06446 1044.6621 237.53125 C 1044.6621 235.59649 1045.94 234.68359 1048.5684 234.68359 z M 1093.6992 234.68359 L 1095.123 234.68359 L 1095.123 238.11523 C 1094.4295 239.28339 1093.4073 239.97656 1092.0566 239.97656 C 1090.6329 239.97656 1089.793 239.06446 1089.793 237.53125 C 1089.793 235.59649 1091.0709 234.68359 1093.6992 234.68359 z "
       transform="matrix(0.26458333,0,0,0.26458333,0,117)"
       id="flowRoot4546" />
    <rect
       style="opacity:1;fill:#ffffff;fill-opacity:0.33149175;fill-rule:nonzero;stroke:none;stroke-width:0.17695373;stroke-linecap:butt;stroke-linejoin:round;stroke-miterlimit:4;stroke-dasharray:none;stroke-dashoffset:0;stroke-opacity:0.00276244;paint-order:normal"
       id="rect4681-2"
       width="181.39557"
       height="28.244963"
       x="126.70181"
       y="217.13492" />
    <path
       style="font-style:normal;font-variant:normal;font-weight:500;font-stretch:normal;font-size:16px;line-height:1.25;font-family:'Fira Sans';-inkscape-font-specification:'Fira Sans, Medium';font-variant-ligatures:normal;font-variant-caps:normal;font-variant-numeric:normal;font-feature-settings:normal;text-align:center;letter-spacing:0px;word-spacing:0px;writing-mode:lr-tb;text-anchor:middle;fill:#000000;fill-opacity:1;stroke:none"
       d="M 260.9707 209.61719 L 260.9707 246.46875 L 268.00977 246.46875 L 268.00977 231.10938 L 279.37109 231.10938 L 279.37109 225.88281 L 268.00977 225.88281 L 268.00977 214.84375 L 281.07617 214.84375 L 281.82422 209.61719 L 260.9707 209.61719 z M 241.83594 209.93555 C 237.51594 209.93555 233.78203 211.48344 230.58203 214.52344 L 234.04883 218.31055 C 236.28883 216.17721 238.47667 215.16211 241.25 215.16211 C 244.45 215.16211 246.5293 216.92214 246.5293 219.85547 C 246.5293 223.37547 244.12953 225.29688 240.76953 225.29688 L 238.84961 225.29688 L 238.04883 230.15039 L 240.87695 230.15039 C 244.93029 230.15039 247.33008 231.64349 247.33008 235.91016 C 247.33008 239.64349 244.82242 241.93555 240.98242 241.93555 C 238.15576 241.93555 235.91563 240.86875 233.51562 238.46875 L 229.73047 242.0957 C 232.5038 245.4557 236.4488 247.26953 241.35547 247.26953 C 249.5688 247.26953 254.36914 242.3638 254.36914 236.23047 C 254.36914 230.6838 250.68898 227.90909 246.20898 227.48242 C 250.42232 226.36242 253.19531 223.53664 253.19531 219.05664 C 253.19531 214.09664 249.24927 209.93555 241.83594 209.93555 z M 283.21289 315.57812 L 275.85352 322.29883 L 278.4668 325.23047 L 285.40039 320.53711 L 292.33203 325.23047 L 294.94531 322.29883 L 287.5332 315.57812 L 283.21289 315.57812 z M 311.20312 323.41797 L 304.37695 324.21875 L 304.37695 330.45703 L 299.95117 330.45703 L 299.95117 335.36523 L 304.37695 335.36523 L 304.37695 350.24414 C 304.37695 356.27081 307.31076 359.41737 312.85742 359.4707 C 315.36409 359.4707 317.92451 358.77789 319.95117 357.33789 L 317.55078 352.96484 C 316.32411 353.65818 315.25612 353.97852 314.18945 353.97852 C 312.10945 353.97852 311.20312 352.85732 311.20312 350.08398 L 311.20312 335.36523 L 317.07031 335.36523 L 317.76367 330.45703 L 311.20312 330.45703 L 311.20312 323.41797 z M 237.88281 329.6582 C 234.84281 329.6582 231.85719 330.99049 229.61719 333.92383 L 229.24219 330.45703 L 223.26953 330.45703 L 223.26953 370.29883 L 230.0957 369.55078 L 230.0957 356.37891 C 231.8557 358.45891 234.30945 359.4707 237.18945 359.4707 C 244.33612 359.4707 248.33594 353.12438 248.33594 344.48438 C 248.33594 335.47104 245.24281 329.6582 237.88281 329.6582 z M 285.24023 329.6582 C 277.24023 329.6582 272.70703 336.16529 272.70703 344.75195 C 272.70703 353.65862 277.39982 359.4707 286.14648 359.4707 C 290.41315 359.4707 293.82628 357.92555 296.59961 355.68555 L 293.77344 351.79102 C 291.3201 353.49768 289.23909 354.29883 286.73242 354.29883 C 282.99909 354.29883 280.27883 352.43188 279.79883 346.67188 L 297.50586 346.67188 C 297.55919 345.92521 297.66602 344.8051 297.66602 343.89844 C 297.66602 334.99177 293.13357 329.6582 285.24023 329.6582 z M 268.96094 329.71094 C 265.65427 329.71094 262.93294 331.95057 261.59961 336.00391 L 260.96094 330.45703 L 255.04102 330.45703 L 255.04102 358.67188 L 261.86719 358.67188 L 261.86719 343.63086 C 262.93385 338.88419 264.69409 336.37695 268.10742 336.37695 C 269.06742 336.37695 269.75995 336.48393 270.61328 336.69727 L 271.78711 330.08398 C 270.88044 329.81732 269.97427 329.71094 268.96094 329.71094 z M 285.40039 334.51172 C 289.24039 334.51172 290.89258 337.28383 290.89258 341.92383 L 290.89258 342.24414 L 279.79883 342.24414 C 280.17216 336.64414 282.20039 334.51172 285.40039 334.51172 z M 235.85547 334.77734 C 239.2688 334.77734 241.18945 337.39044 241.18945 344.53711 C 241.18945 351.36378 239.00286 354.24414 235.26953 354.24414 C 233.1362 354.24414 231.42904 353.28388 230.0957 351.31055 L 230.0957 338.61719 C 231.42904 336.43052 233.45547 334.77734 235.85547 334.77734 z M 226.3418 440.62109 L 226.3418 477.47461 L 237.43555 477.47461 C 246.39555 477.47461 252.84961 474.968 252.84961 466.86133 C 252.84961 460.72799 248.63521 458.75313 244.42188 457.95312 C 247.94188 457.20646 251.24805 454.59448 251.24805 450.00781 C 251.24805 443.28781 245.48943 440.62109 235.99609 440.62109 L 226.3418 440.62109 z M 259.05078 440.62109 L 259.05078 477.47461 L 266.08984 477.47461 L 266.08984 464.62109 L 270.41016 464.62109 C 278.73016 464.62109 284.86328 460.83352 284.86328 452.35352 C 284.86328 444.40685 279.20969 440.62109 269.92969 440.62109 L 259.05078 440.62109 z M 290.61328 440.62109 L 290.61328 477.47461 L 297.65234 477.47461 L 297.65234 440.62109 L 290.61328 440.62109 z M 233.38281 445.79492 L 236.68945 445.79492 C 241.48945 445.79492 244.04883 446.86042 244.04883 450.59375 C 244.04883 454.06042 241.54117 455.76758 237.70117 455.76758 L 233.38281 455.76758 L 233.38281 445.79492 z M 266.08984 445.79492 L 269.87695 445.79492 C 274.67695 445.79492 277.50391 447.71352 277.50391 452.35352 C 277.50391 457.74018 274.57029 459.33984 269.87695 459.33984 L 266.08984 459.33984 L 266.08984 445.79492 z M 233.38281 460.67383 L 238.23633 460.67383 C 242.34299 460.67383 245.48828 462.16708 245.48828 466.59375 C 245.48828 471.23375 242.12828 472.19336 237.48828 472.19336 L 233.38281 472.19336 L 233.38281 460.67383 z M 308.36914 469.63477 C 305.96914 469.63477 304.10156 471.50039 304.10156 473.90039 C 304.10156 475.39372 304.74268 476.67461 305.91602 477.47461 L 303.72852 486.64648 L 307.88867 486.64648 L 311.35547 478.75391 C 312.31547 476.62057 312.74219 475.33979 312.74219 473.95312 C 312.74219 471.49979 310.87581 469.63477 308.36914 469.63477 z M 226.3418 507.28711 L 226.3418 544.14062 L 233.38281 544.14062 L 233.38281 507.28711 L 226.3418 507.28711 z M 248.95117 507.28711 L 237.48438 544.14062 L 244.79102 544.14062 L 247.08398 535.60742 L 259.29883 535.60742 L 261.5918 544.14062 L 269.05859 544.14062 L 257.64453 507.28711 L 248.95117 507.28711 z M 273.2168 507.28711 L 273.2168 544.14062 L 280.25781 544.14062 L 280.25781 531.28711 L 284.57617 531.28711 C 292.89617 531.28711 299.03125 527.50148 299.03125 519.02148 C 299.03125 511.07482 293.37766 507.28711 284.09766 507.28711 L 273.2168 507.28711 z M 280.25781 512.46094 L 284.04297 512.46094 C 288.84297 512.46094 291.66992 514.38148 291.66992 519.02148 C 291.66992 524.40815 288.7363 526.00781 284.04297 526.00781 L 280.25781 526.00781 L 280.25781 512.46094 z M 253.16406 512.67383 L 257.85742 530.27344 L 248.4707 530.27344 L 253.16406 512.67383 z M 300.45117 536.30078 C 298.05117 536.30078 296.18555 538.16836 296.18555 540.56836 C 296.18555 542.06169 296.82471 543.34062 297.99805 544.14062 L 295.8125 553.31445 L 299.97266 553.31445 L 303.43945 545.41992 C 304.39945 543.28659 304.82617 542.00776 304.82617 540.62109 C 304.82617 538.16776 302.95784 536.30078 300.45117 536.30078 z M 364.35742 573.1543 C 359.39742 573.1543 355.55698 575.12844 352.57031 578.64844 L 356.99805 582.11328 C 359.02471 579.71328 361.36953 578.59375 363.76953 578.59375 C 366.54286 578.59375 368.25 579.98146 368.25 582.32812 C 368.25 587.34146 359.39648 586.59484 359.39648 595.71484 L 359.39648 597.79492 L 365.74414 597.79492 L 365.74414 595.98047 C 365.74414 589.52714 375.39648 590.38159 375.39648 581.79492 C 375.39648 577.26159 371.66409 573.1543 364.35742 573.1543 z M 221.75586 573.95508 L 233.00781 610.80664 L 241.38281 610.80664 L 252.31445 573.95508 L 245.11523 573.95508 L 237.32812 604.56836 L 229.32812 573.95508 L 221.75586 573.95508 z M 266.39844 581.79492 C 258.0251 581.79492 253.06445 587.82049 253.06445 596.67383 C 253.06445 605.95383 258.0257 611.60742 266.3457 611.60742 C 274.6657 611.60742 279.625 605.5805 279.625 596.67383 C 279.625 587.44716 274.71844 581.79492 266.39844 581.79492 z M 325.66016 581.79492 C 319.10016 581.79492 314.78125 585.31448 314.78125 590.00781 C 314.78125 594.16781 317.34096 596.94102 323.1543 598.54102 C 328.4343 600.03435 329.55469 600.78029 329.55469 603.12695 C 329.55469 605.26029 327.58102 606.54102 324.54102 606.54102 C 321.66102 606.54102 319.04799 605.42091 316.86133 603.76758 L 313.44727 607.60742 C 316.0606 609.95409 319.84784 611.60742 324.70117 611.60742 C 331.15451 611.60742 336.59375 608.5151 336.59375 602.64844 C 336.59375 597.6351 333.34008 595.2869 327.58008 593.74023 C 322.78008 592.4069 321.66016 591.55417 321.66016 589.6875 C 321.66016 587.98083 323.20773 586.86133 325.92773 586.86133 C 328.4344 586.86133 330.67286 587.66096 333.01953 589.1543 L 335.6875 585.1543 C 333.02083 583.0743 329.71349 581.79492 325.66016 581.79492 z M 285.75781 582.59375 L 285.75781 602.86133 C 285.75781 608.30133 288.53039 611.60742 293.65039 611.60742 C 297.49039 611.60742 300.21102 610.06133 302.29102 606.86133 L 302.66406 610.80664 L 308.58398 610.80664 L 308.58398 582.59375 L 301.75781 582.59375 L 301.75781 602.43359 C 300.26448 604.88693 298.34411 606.43359 296.05078 606.43359 C 293.70411 606.43359 292.58398 605.31448 292.58398 602.00781 L 292.58398 582.59375 L 285.75781 582.59375 z M 266.39844 586.9668 C 270.3451 586.9668 272.42578 589.95383 272.42578 596.67383 C 272.42578 603.39383 270.3457 606.43359 266.3457 606.43359 C 262.3457 606.43359 260.26563 603.44716 260.26562 596.67383 C 260.26562 590.00716 262.39844 586.9668 266.39844 586.9668 z M 362.65039 602.9668 C 360.25039 602.9668 358.38281 604.88711 358.38281 607.28711 C 358.38281 609.63378 360.25039 611.60742 362.65039 611.60742 C 365.10372 611.60742 367.02344 609.63378 367.02344 607.28711 C 367.02344 604.88711 365.10372 602.9668 362.65039 602.9668 z "
       transform="matrix(0.26458333,0,0,0.26458333,0,117)"
       id="flowRoot4713" />
    <path
       style="font-style:normal;font-variant:normal;font-weight:500;font-stretch:normal;font-size:16px;line-height:1.25;font-family:'Fira Sans';-inkscape-font-specification:'Fira Sans, Medium';font-variant-ligatures:normal;font-variant-caps:normal;font-variant-numeric:normal;font-feature-settings:normal;text-align:center;letter-spacing:0px;word-spacing:0px;writing-mode:lr-tb;text-anchor:middle;fill:#000000;fill-opacity:1;stroke:none;stroke-width:2.61143565"
       d="M 691.06445 307.16602 C 687.17864 307.16602 684.21136 308.83691 681.95508 311.76172 L 685.21484 314.35352 C 686.96973 312.30615 688.43199 311.38672 690.64648 311.38672 C 693.0699 311.38672 694.69922 312.88992 694.69922 315.48047 C 694.69922 319.44985 692.35813 322.08216 682.74805 331.85938 L 682.74805 335.78711 L 700.25586 335.78711 L 700.8418 331.56641 L 688.80664 331.56641 C 697.4975 323.29338 700.21484 319.82576 700.21484 315.0625 C 700.21484 310.67529 696.87229 307.16602 691.06445 307.16602 z M 746.56641 307.16602 C 741.55245 307.16602 737.37305 309.96637 737.37305 314.5625 C 737.37305 317.32018 738.58538 319.57554 741.59375 321.20508 C 738.25111 322.6257 736.24609 324.88239 736.24609 328.30859 C 736.24609 332.86294 740.13218 336.41406 746.44141 336.41406 C 752.8342 336.41406 756.88672 332.82074 756.88672 328.22461 C 756.88672 324.88197 754.96513 322.41623 751.12109 320.70312 C 754.2966 319.07359 755.75781 316.94406 755.75781 314.35352 C 755.75781 309.67382 751.53858 307.16602 746.56641 307.16602 z M 767.69336 307.16602 C 763.80754 307.16602 760.84026 308.83691 758.58398 311.76172 L 761.84375 314.35352 C 763.59863 312.30615 765.06089 311.38672 767.27539 311.38672 C 769.6988 311.38672 771.32812 312.88992 771.32812 315.48047 C 771.32812 319.44985 768.98899 322.08216 759.37891 331.85938 L 759.37891 335.78711 L 776.88477 335.78711 L 777.4707 331.56641 L 765.4375 331.56641 C 774.12836 323.29338 776.84375 319.82576 776.84375 315.0625 C 776.84375 310.67529 773.50119 307.16602 767.69336 307.16602 z M 791.125 307.16602 C 784.52329 307.16602 781.05664 312.38866 781.05664 321.74805 C 781.05664 331.14922 784.52329 336.41406 791.125 336.41406 C 797.76849 336.41406 801.19531 331.14922 801.19531 321.74805 C 801.19531 312.38866 797.76849 307.16602 791.125 307.16602 z M 829.45117 307.16602 C 823.89404 307.16602 819.42411 310.75871 817.91992 316.98438 L 814.99414 316.98438 L 814.24219 320.03516 L 817.71094 320.03516 L 817.71094 323.37695 L 814.99414 323.37695 L 814.24219 326.38672 L 817.83594 326.38672 C 819.04764 332.8213 823.10128 336.41406 829.28516 336.41406 C 831.83392 336.41406 833.79638 335.78718 835.84375 334.82617 L 835.84375 330.56445 C 834.13065 331.52546 832.20899 332.32031 829.86914 332.32031 C 826.23402 332.32031 824.10366 330.52323 823.35156 326.38672 L 831.625 326.38672 L 832.33398 323.37695 L 823.18359 323.37695 L 823.18359 320.03516 L 833.04492 320.03516 L 833.83789 316.98438 L 823.43555 316.98438 C 824.48012 312.97321 826.73535 311.21875 829.66016 311.21875 C 831.87465 311.21875 833.46233 311.76172 835.30078 312.93164 L 837.26562 309.54688 C 835.09291 308.08447 832.62668 307.16602 829.45117 307.16602 z M 672.66992 307.66797 L 663.51953 313.26562 L 665.85938 316.85938 L 672.12695 313.05664 L 672.12695 335.78711 L 677.39062 335.78711 L 677.39062 307.66797 L 672.66992 307.66797 z M 705.2207 307.66797 L 705.2207 322.375 L 709.02344 322.375 C 710.31871 321.70647 711.36293 321.41406 712.6582 321.41406 C 715.24875 321.41406 717.16992 322.7509 717.16992 326.63672 C 717.16992 330.27184 715.20599 332.27734 712.07227 332.27734 C 709.73242 332.27734 707.93659 331.31662 706.39062 329.60352 L 703.33984 332.44531 C 705.51256 334.82694 708.26967 336.41406 712.19727 336.41406 C 718.54828 336.41406 722.68555 332.40277 722.68555 326.63672 C 722.68555 320.91245 719.30079 317.57031 714.62109 317.57031 C 713.24226 317.57031 711.78 317.90492 710.35938 318.61523 L 710.35938 311.63672 L 720.88867 311.63672 L 721.51562 307.66797 L 705.2207 307.66797 z M 746.56641 310.92578 C 749.19873 310.92578 750.57617 312.38902 750.57617 314.60352 C 750.57617 316.6091 749.78286 317.98835 747.56836 319.36719 L 746.77539 319.07422 C 744.0595 318.07143 742.55469 317.02616 742.55469 314.64453 C 742.55469 312.17934 744.14299 310.92578 746.56641 310.92578 z M 984.16797 311.19336 C 980.78355 311.19336 977.86049 312.40548 975.35352 314.78711 L 978.06836 317.75195 C 979.82324 316.08063 981.53627 315.28711 983.70898 315.28711 C 986.21596 315.28711 987.8457 316.66678 987.8457 318.96484 C 987.8457 321.72252 985.96631 323.22656 983.33398 323.22656 L 981.82812 323.22656 L 981.20312 327.0293 L 983.41602 327.0293 C 986.59152 327.0293 988.47266 328.19838 988.47266 331.54102 C 988.47266 334.46582 986.50837 336.26172 983.5 336.26172 C 981.2855 336.26172 979.53062 335.42711 977.65039 333.54688 L 974.68359 336.38867 C 976.85631 339.021 979.94894 340.44141 983.79297 340.44141 C 990.22755 340.44141 993.98828 336.59606 993.98828 331.79102 C 993.98828 327.44559 991.10547 325.27372 987.5957 324.93945 C 990.89656 324.06201 993.06836 321.84766 993.06836 318.33789 C 993.06836 314.45207 989.9758 311.19336 984.16797 311.19336 z M 1007.7246 311.19336 C 1001.1229 311.19336 997.6543 316.41601 997.6543 325.77539 C 997.6543 335.17656 1001.1229 340.44141 1007.7246 340.44141 C 1014.3681 340.44141 1017.7949 335.17656 1017.7949 325.77539 C 1017.7949 316.41601 1014.3681 311.19336 1007.7246 311.19336 z M 1042.082 311.19336 C 1035.4803 311.19336 1032.0117 316.41601 1032.0117 325.77539 C 1032.0117 335.17656 1035.4803 340.44141 1042.082 340.44141 C 1048.7255 340.44141 1052.1504 335.17656 1052.1504 325.77539 C 1052.1504 316.41601 1048.7255 311.19336 1042.082 311.19336 z M 1065.9922 311.19336 C 1059.3905 311.19336 1055.9219 316.41601 1055.9219 325.77539 C 1055.9219 335.17656 1059.3905 340.44141 1065.9922 340.44141 C 1072.6357 340.44141 1076.0625 335.17656 1076.0625 325.77539 C 1076.0625 316.41601 1072.6357 311.19336 1065.9922 311.19336 z M 1089.9043 311.19336 C 1083.3026 311.19336 1079.834 316.41601 1079.834 325.77539 C 1079.834 335.17656 1083.3026 340.44141 1089.9043 340.44141 C 1096.5478 340.44141 1099.9727 335.17656 1099.9727 325.77539 C 1099.9727 316.41601 1096.5478 311.19336 1089.9043 311.19336 z M 1128.2285 311.19336 C 1122.6714 311.19336 1118.2015 314.78606 1116.6973 321.01172 L 1113.7734 321.01172 L 1113.0195 324.0625 L 1116.4883 324.0625 L 1116.4883 327.4043 L 1113.7734 327.4043 L 1113.0195 330.41211 L 1116.6133 330.41211 C 1117.825 336.84669 1121.8786 340.44141 1128.0625 340.44141 C 1130.6113 340.44141 1132.5757 339.81452 1134.623 338.85352 L 1134.623 334.5918 C 1132.9099 335.55281 1130.9863 336.3457 1128.6465 336.3457 C 1125.0114 336.3457 1122.881 334.54862 1122.1289 330.41211 L 1130.4023 330.41211 L 1131.1133 327.4043 L 1121.9629 327.4043 L 1121.9629 324.0625 L 1131.8223 324.0625 L 1132.6172 321.01172 L 1122.2129 321.01172 C 1123.2575 317.00055 1125.5127 315.24609 1128.4375 315.24609 C 1130.652 315.24609 1132.2397 315.78906 1134.0781 316.95898 L 1136.043 313.57422 C 1133.8703 312.11181 1131.404 311.19336 1128.2285 311.19336 z M 791.125 311.21875 C 794.21694 311.21875 795.67969 313.85107 795.67969 321.74805 C 795.67969 329.68681 794.21694 332.36133 791.125 332.36133 C 788.03306 332.36133 786.57031 329.60325 786.57031 321.74805 C 786.57031 313.97641 788.03306 311.21875 791.125 311.21875 z M 965.81641 311.69336 L 956.66602 317.29297 L 959.00586 320.88672 L 965.27344 317.08398 L 965.27344 339.81445 L 970.53906 339.81445 L 970.53906 311.69336 L 965.81641 311.69336 z M 1007.7246 315.24609 C 1010.8165 315.24609 1012.2793 317.87841 1012.2793 325.77539 C 1012.2793 333.71416 1010.8165 336.38867 1007.7246 336.38867 C 1004.6327 336.38867 1003.1699 333.63059 1003.1699 325.77539 C 1003.1699 318.00376 1004.6327 315.24609 1007.7246 315.24609 z M 1042.082 315.24609 C 1045.174 315.24609 1046.6367 317.87841 1046.6367 325.77539 C 1046.6367 333.71416 1045.174 336.38867 1042.082 336.38867 C 1038.9901 336.38867 1037.5273 333.63059 1037.5273 325.77539 C 1037.5273 318.00376 1038.9901 315.24609 1042.082 315.24609 z M 1065.9922 315.24609 C 1069.0841 315.24609 1070.5469 317.87841 1070.5469 325.77539 C 1070.5469 333.71416 1069.0841 336.38867 1065.9922 336.38867 C 1062.9002 336.38867 1061.4375 333.63059 1061.4375 325.77539 C 1061.4375 318.00376 1062.9002 315.24609 1065.9922 315.24609 z M 1089.9043 315.24609 C 1092.9962 315.24609 1094.457 317.87841 1094.457 325.77539 C 1094.457 333.71416 1092.9962 336.38867 1089.9043 336.38867 C 1086.8124 336.38867 1085.3496 333.63059 1085.3496 325.77539 C 1085.3496 318.00376 1086.8124 315.24609 1089.9043 315.24609 z M 745.01953 322.58398 L 746.31445 323.04297 C 750.07492 324.42181 751.45508 325.59228 751.45508 328.22461 C 751.45508 330.64802 749.70013 332.44531 746.56641 332.44531 C 743.55803 332.44531 741.63477 330.81474 741.63477 328.14062 C 741.63477 325.59186 742.76325 323.79569 745.01953 322.58398 z M 767.4668 414.29492 L 759.27734 432.8457 L 759.27734 436.52344 L 771.22656 436.52344 L 771.22656 442.95703 L 776.44922 442.95703 L 776.44922 436.52344 L 779.83398 436.52344 L 779.83398 432.42773 L 776.44922 432.42773 L 776.44922 425.36719 L 771.8125 425.36719 L 771.26953 432.42773 L 764.83398 432.42773 L 772.02148 416.00781 L 767.4668 414.29492 z M 667.18359 414.33594 C 662.16964 414.33594 657.99219 417.1363 657.99219 421.73242 C 657.99219 424.4901 659.20452 426.74546 662.21289 428.375 C 658.87025 429.79562 656.86328 432.05231 656.86328 435.47852 C 656.86328 440.03286 660.74937 443.58398 667.05859 443.58398 C 673.45139 443.58398 677.50391 439.99066 677.50391 435.39453 C 677.50391 432.05189 675.58231 429.58615 671.73828 427.87305 C 674.91379 426.24351 676.37695 424.11398 676.37695 421.52344 C 676.37695 416.84374 672.15577 414.33594 667.18359 414.33594 z M 690.84961 414.33594 C 685.83565 414.33594 681.6582 417.1363 681.6582 421.73242 C 681.6582 424.4901 682.87053 426.74546 685.87891 428.375 C 682.53627 429.79562 680.5293 432.05231 680.5293 435.47852 C 680.5293 440.03286 684.41538 443.58398 690.72461 443.58398 C 697.1174 443.58398 701.16992 439.99066 701.16992 435.39453 C 701.16992 432.05189 699.24833 429.58615 695.4043 427.87305 C 698.5798 426.24351 700.04297 424.11398 700.04297 421.52344 C 700.04297 416.84374 695.82178 414.33594 690.84961 414.33594 z M 714.51562 414.33594 C 709.50167 414.33594 705.32422 417.1363 705.32422 421.73242 C 705.32422 424.4901 706.53655 426.74546 709.54492 428.375 C 706.20228 429.79562 704.19531 432.05231 704.19531 435.47852 C 704.19531 440.03286 708.0814 443.58398 714.39062 443.58398 C 720.78342 443.58398 724.83594 439.99066 724.83594 435.39453 C 724.83594 432.05189 722.91435 429.58615 719.07031 427.87305 C 722.24582 426.24351 723.70898 424.11398 723.70898 421.52344 C 723.70898 416.84374 719.4878 414.33594 714.51562 414.33594 z M 746.45508 414.33594 C 743.07066 414.33594 740.14565 415.54806 737.63867 417.92969 L 740.35547 420.89648 C 742.11035 419.22517 743.82338 418.43164 745.99609 418.43164 C 748.50307 418.43164 750.13281 419.80936 750.13281 422.10742 C 750.13281 424.8651 748.25147 426.36914 745.61914 426.36914 L 744.11523 426.36914 L 743.48828 430.17188 L 745.70312 430.17188 C 748.87863 430.17188 750.75977 431.34096 750.75977 434.68359 C 750.75977 437.6084 748.79548 439.40625 745.78711 439.40625 C 743.57261 439.40625 741.81773 438.56969 739.9375 436.68945 L 736.9707 439.53125 C 739.14342 442.16358 742.23604 443.58398 746.08008 443.58398 C 752.51466 443.58398 756.27539 439.74059 756.27539 434.93555 C 756.27539 430.59012 753.39063 428.4163 749.88086 428.08203 C 753.18171 427.20459 755.35547 424.99024 755.35547 421.48047 C 755.35547 417.59465 752.26291 414.33594 746.45508 414.33594 z M 792.86133 414.33594 C 786.25962 414.33594 782.79102 419.55858 782.79102 428.91797 C 782.79102 438.31914 786.25962 443.58398 792.86133 443.58398 C 799.50482 443.58398 802.93164 438.31914 802.93164 428.91797 C 802.93164 419.55858 799.50482 414.33594 792.86133 414.33594 z M 831.1875 414.33594 C 825.63036 414.33594 821.16044 417.92863 819.65625 424.1543 L 816.73047 424.1543 L 815.97852 427.20508 L 819.44727 427.20508 L 819.44727 430.54883 L 816.73047 430.54883 L 815.97852 433.55664 L 819.57227 433.55664 C 820.78397 439.99122 824.83565 443.58398 831.01953 443.58398 C 833.56829 443.58398 835.53271 442.9571 837.58008 441.99609 L 837.58008 437.73438 C 835.86698 438.69538 833.94532 439.49023 831.60547 439.49023 C 827.97035 439.49023 825.83998 437.69315 825.08789 433.55664 L 833.35938 433.55664 L 834.07031 430.54883 L 824.91992 430.54883 L 824.91992 427.20508 L 834.78125 427.20508 L 835.57422 424.1543 L 825.16992 424.1543 C 826.2145 420.14313 828.47168 418.38867 831.39648 418.38867 C 833.61098 418.38867 835.19866 418.93164 837.03711 420.10156 L 839 416.7168 C 836.82729 415.25439 834.36301 414.33594 831.1875 414.33594 z M 636.21289 414.83789 L 627.0625 420.43555 L 629.40234 424.0293 L 635.66992 420.22656 L 635.66992 442.95703 L 640.93555 442.95703 L 640.93555 414.83789 L 636.21289 414.83789 z M 930.92383 415.38281 C 927.53941 415.38281 924.61635 416.59493 922.10938 418.97656 L 924.82422 421.94141 C 926.5791 420.27009 928.29213 419.47656 930.46484 419.47656 C 932.97182 419.47656 934.60156 420.85623 934.60156 423.1543 C 934.60156 425.91197 932.72217 427.41602 930.08984 427.41602 L 928.58398 427.41602 L 927.95898 431.21875 L 930.17188 431.21875 C 933.34738 431.21875 935.22852 432.38783 935.22852 435.73047 C 935.22852 438.65528 933.26423 440.45117 930.25586 440.45117 C 928.04136 440.45117 926.28648 439.61656 924.40625 437.73633 L 921.43945 440.57812 C 923.61217 443.21045 926.70479 444.63086 930.54883 444.63086 C 936.98341 444.63086 940.74414 440.78551 940.74414 435.98047 C 940.74414 431.63504 937.86133 429.46317 934.35156 429.12891 C 937.65242 428.25146 939.82422 426.03711 939.82422 422.52734 C 939.82422 418.64153 936.73166 415.38281 930.92383 415.38281 z M 964.8418 415.38281 C 959.82784 415.38281 955.65039 418.18122 955.65039 422.77734 C 955.65039 425.53502 956.86272 427.79234 959.87109 429.42188 C 956.52846 430.8425 954.52148 433.09919 954.52148 436.52539 C 954.52148 441.07973 958.40757 444.63086 964.7168 444.63086 C 971.10959 444.63086 975.16211 441.03753 975.16211 436.44141 C 975.16211 433.09877 973.24052 430.63302 969.39648 428.91992 C 972.57199 427.29039 974.03516 425.1589 974.03516 422.56836 C 974.03516 417.88867 969.81397 415.38281 964.8418 415.38281 z M 985.9707 415.38281 C 982.08489 415.38281 979.11761 417.05371 976.86133 419.97852 L 980.12109 422.56836 C 981.87598 420.52099 983.33824 419.60156 985.55273 419.60156 C 987.97615 419.60156 989.60547 421.10672 989.60547 423.69727 C 989.60547 427.66665 987.26438 430.29896 977.6543 440.07617 L 977.6543 444.00391 L 995.16211 444.00391 L 995.74609 439.7832 L 983.71289 439.7832 C 992.40375 431.51017 995.12109 428.04256 995.12109 423.2793 C 995.12109 418.89208 991.77854 415.38281 985.9707 415.38281 z M 1009.4023 415.38281 C 1002.8006 415.38281 999.33203 420.60546 999.33203 429.96484 C 999.33203 439.36601 1002.8006 444.63086 1009.4023 444.63086 C 1016.0458 444.63086 1019.4727 439.36601 1019.4727 429.96484 C 1019.4727 420.60546 1016.0458 415.38281 1009.4023 415.38281 z M 1043.7598 415.38281 C 1037.1581 415.38281 1033.6895 420.60546 1033.6895 429.96484 C 1033.6895 439.36601 1037.1581 444.63086 1043.7598 444.63086 C 1050.4033 444.63086 1053.8281 439.36601 1053.8281 429.96484 C 1053.8281 420.60546 1050.4033 415.38281 1043.7598 415.38281 z M 1067.6699 415.38281 C 1061.0682 415.38281 1057.5996 420.60546 1057.5996 429.96484 C 1057.5996 439.36601 1061.0682 444.63086 1067.6699 444.63086 C 1074.3134 444.63086 1077.7402 439.36601 1077.7402 429.96484 C 1077.7402 420.60546 1074.3134 415.38281 1067.6699 415.38281 z M 1091.5801 415.38281 C 1084.9784 415.38281 1081.5117 420.60546 1081.5117 429.96484 C 1081.5117 439.36601 1084.9784 444.63086 1091.5801 444.63086 C 1098.2236 444.63086 1101.6504 439.36601 1101.6504 429.96484 C 1101.6504 420.60546 1098.2236 415.38281 1091.5801 415.38281 z M 1129.9062 415.38281 C 1124.3491 415.38281 1119.8792 418.97551 1118.375 425.20117 L 1115.4492 425.20117 L 1114.6973 428.25195 L 1118.166 428.25195 L 1118.166 431.59375 L 1115.4492 431.59375 L 1114.6973 434.60156 L 1118.291 434.60156 C 1119.5027 441.03614 1123.5564 444.63086 1129.7402 444.63086 C 1132.289 444.63086 1134.2515 444.00398 1136.2988 443.04297 L 1136.2988 438.78125 C 1134.5857 439.74226 1132.6641 440.53516 1130.3242 440.53516 C 1126.6891 440.53516 1124.5587 438.73808 1123.8066 434.60156 L 1132.0801 434.60156 L 1132.7891 431.59375 L 1123.6387 431.59375 L 1123.6387 428.25195 L 1133.5 428.25195 L 1134.2949 425.20117 L 1123.8906 425.20117 C 1124.9352 421.19001 1127.1904 419.43555 1130.1152 419.43555 C 1132.3297 419.43555 1133.9174 419.97851 1135.7559 421.14844 L 1137.7207 417.76367 C 1135.548 416.30127 1133.0818 415.38281 1129.9062 415.38281 z M 667.18359 418.0957 C 669.81592 418.0957 671.19531 419.55894 671.19531 421.77344 C 671.19531 423.77902 670.402 425.15827 668.1875 426.53711 L 667.39258 426.24414 C 664.67669 425.24135 663.17383 424.19608 663.17383 421.81445 C 663.17383 419.34926 664.76018 418.0957 667.18359 418.0957 z M 690.84961 418.0957 C 693.48194 418.0957 694.86133 419.55894 694.86133 421.77344 C 694.86133 423.77902 694.06801 425.15827 691.85352 426.53711 L 691.05859 426.24414 C 688.3427 425.24135 686.83984 424.19608 686.83984 421.81445 C 686.83984 419.34926 688.4262 418.0957 690.84961 418.0957 z M 714.51562 418.0957 C 717.14795 418.0957 718.52734 419.55894 718.52734 421.77344 C 718.52734 423.77902 717.73403 425.15827 715.51953 426.53711 L 714.72461 426.24414 C 712.00872 425.24135 710.50586 424.19608 710.50586 421.81445 C 710.50586 419.34926 712.09221 418.0957 714.51562 418.0957 z M 792.86133 418.38867 C 795.95327 418.38867 797.41602 421.02099 797.41602 428.91797 C 797.41602 436.85673 795.95327 439.53125 792.86133 439.53125 C 789.76939 439.53125 788.30664 436.77317 788.30664 428.91797 C 788.30664 421.14634 789.76939 418.38867 792.86133 418.38867 z M 964.8418 419.14258 C 967.47412 419.14258 968.85352 420.60582 968.85352 422.82031 C 968.85352 424.8259 968.0602 426.20319 965.8457 427.58203 L 965.05078 427.29102 C 962.33489 426.28822 960.83203 425.24296 960.83203 422.86133 C 960.83203 420.39613 962.41838 419.14258 964.8418 419.14258 z M 1009.4023 419.43555 C 1012.4943 419.43555 1013.957 422.06786 1013.957 429.96484 C 1013.957 437.90361 1012.4943 440.57812 1009.4023 440.57812 C 1006.3104 440.57812 1004.8477 437.82004 1004.8477 429.96484 C 1004.8477 422.19321 1006.3104 419.43555 1009.4023 419.43555 z M 1043.7598 419.43555 C 1046.8517 419.43555 1048.3125 422.06786 1048.3125 429.96484 C 1048.3125 437.90361 1046.8517 440.57812 1043.7598 440.57812 C 1040.6678 440.57812 1039.2051 437.82004 1039.2051 429.96484 C 1039.2051 422.19321 1040.6678 419.43555 1043.7598 419.43555 z M 1067.6699 419.43555 C 1070.7619 419.43555 1072.2246 422.06786 1072.2246 429.96484 C 1072.2246 437.90361 1070.7619 440.57812 1067.6699 440.57812 C 1064.578 440.57812 1063.1152 437.82004 1063.1152 429.96484 C 1063.1152 422.19321 1064.578 419.43555 1067.6699 419.43555 z M 1091.5801 419.43555 C 1094.672 419.43555 1096.1348 422.06786 1096.1348 429.96484 C 1096.1348 437.90361 1094.672 440.57812 1091.5801 440.57812 C 1088.4881 440.57812 1087.0273 437.82004 1087.0273 429.96484 C 1087.0273 422.19321 1088.4881 419.43555 1091.5801 419.43555 z M 665.63867 429.75391 L 666.93359 430.21289 C 670.69406 431.59173 672.07227 432.7622 672.07227 435.39453 C 672.07227 437.81794 670.31732 439.61523 667.18359 439.61523 C 664.17522 439.61523 662.25391 437.98466 662.25391 435.31055 C 662.25391 432.76179 663.38239 430.96561 665.63867 429.75391 z M 689.30469 429.75391 L 690.59961 430.21289 C 694.36008 431.59173 695.73828 432.7622 695.73828 435.39453 C 695.73828 437.81794 693.98333 439.61523 690.84961 439.61523 C 687.84124 439.61523 685.91992 437.98466 685.91992 435.31055 C 685.91992 432.76179 687.04841 430.96561 689.30469 429.75391 z M 712.9707 429.75391 L 714.26562 430.21289 C 718.02609 431.59173 719.4043 432.7622 719.4043 435.39453 C 719.4043 437.81794 717.64935 439.61523 714.51562 439.61523 C 711.50725 439.61523 709.58594 437.98466 709.58594 435.31055 C 709.58594 432.76179 710.71442 430.96561 712.9707 429.75391 z M 963.29688 430.80078 L 964.5918 431.25977 C 968.35226 432.6386 969.73047 433.80908 969.73047 436.44141 C 969.73047 438.86482 967.97552 440.66016 964.8418 440.66016 C 961.83342 440.66016 959.91211 439.03153 959.91211 436.35742 C 959.91211 433.80866 961.04059 432.01249 963.29688 430.80078 z M 931.73242 518.55273 C 926.30064 518.55273 921.95508 522.18868 921.95508 528.08008 C 921.95508 533.76256 925.50613 537.23047 929.85156 537.23047 C 932.56746 537.23047 934.53013 536.01974 935.86719 534.30664 C 935.11509 539.86378 931.10548 542.57952 924.08594 544.41797 L 925.21289 548.21875 C 936.49429 545.54464 941.5918 541.03287 941.5918 529.45898 C 941.5918 522.98262 938.25057 518.55273 931.73242 518.55273 z M 965.65625 518.55273 C 959.05454 518.55273 955.58594 523.77733 955.58594 533.13672 C 955.58594 542.53789 959.05454 547.80078 965.65625 547.80078 C 972.29974 547.80078 975.72656 542.53789 975.72656 533.13672 C 975.72656 523.77733 972.29974 518.55273 965.65625 518.55273 z M 986.86328 518.55273 C 982.97746 518.55273 980.01019 520.22558 977.75391 523.15039 L 981.01367 525.74023 C 982.76856 523.69287 984.23082 522.77344 986.44531 522.77344 C 988.86872 522.77344 990.49805 524.2786 990.49805 526.86914 C 990.49805 530.83852 988.15891 533.47083 978.54883 543.24805 L 978.54883 547.17578 L 996.05469 547.17578 L 996.64062 542.95508 L 984.60742 542.95508 C 993.29828 534.68205 996.01367 531.21443 996.01367 526.45117 C 996.01367 522.06396 992.67111 518.55273 986.86328 518.55273 z M 1010.2949 518.55273 C 1003.6932 518.55273 1000.2266 523.77733 1000.2266 533.13672 C 1000.2266 542.53789 1003.6932 547.80078 1010.2949 547.80078 C 1016.9384 547.80078 1020.3652 542.53789 1020.3652 533.13672 C 1020.3652 523.77733 1016.9384 518.55273 1010.2949 518.55273 z M 1044.6523 518.55273 C 1038.0506 518.55273 1034.582 523.77733 1034.582 533.13672 C 1034.582 542.53789 1038.0506 547.80078 1044.6523 547.80078 C 1051.2958 547.80078 1054.7227 542.53789 1054.7227 533.13672 C 1054.7227 523.77733 1051.2958 518.55273 1044.6523 518.55273 z M 1068.5625 518.55273 C 1061.9608 518.55273 1058.4941 523.77733 1058.4941 533.13672 C 1058.4941 542.53789 1061.9608 547.80078 1068.5625 547.80078 C 1075.206 547.80078 1078.6328 542.53789 1078.6328 533.13672 C 1078.6328 523.77733 1075.206 518.55273 1068.5625 518.55273 z M 1092.4746 518.55273 C 1085.8729 518.55273 1082.4043 523.77733 1082.4043 533.13672 C 1082.4043 542.53789 1085.8729 547.80078 1092.4746 547.80078 C 1099.1181 547.80078 1102.543 542.53789 1102.543 533.13672 C 1102.543 523.77733 1099.1181 518.55273 1092.4746 518.55273 z M 1130.8008 518.55273 C 1125.2436 518.55273 1120.7718 522.14738 1119.2676 528.37305 L 1116.3438 528.37305 L 1115.5918 531.42188 L 1119.0586 531.42188 L 1119.0586 534.76562 L 1116.3438 534.76562 L 1115.5918 537.77344 L 1119.1836 537.77344 C 1120.3953 544.20801 1124.4489 547.80078 1130.6328 547.80078 C 1133.1816 547.80078 1135.146 547.17585 1137.1934 546.21484 L 1137.1934 541.95117 C 1135.4803 542.91218 1133.5586 543.70703 1131.2188 543.70703 C 1127.5836 543.70703 1125.4513 541.90995 1124.6992 537.77344 L 1132.9727 537.77344 L 1133.6836 534.76562 L 1124.5332 534.76562 L 1124.5332 531.42188 L 1134.3926 531.42188 L 1135.1875 528.37305 L 1124.7832 528.37305 C 1125.8278 524.36188 1128.085 522.60742 1131.0098 522.60742 C 1133.2243 522.60742 1134.8119 523.15039 1136.6504 524.32031 L 1138.6133 520.93555 C 1136.4406 519.47314 1133.9763 518.55273 1130.8008 518.55273 z M 911.83398 519.05469 L 902.68359 524.6543 L 905.02344 528.24805 L 911.29102 524.44531 L 911.29102 547.17578 L 916.55469 547.17578 L 916.55469 519.05469 L 911.83398 519.05469 z M 767.16211 521.40625 L 758.97266 539.95898 L 758.97266 543.63477 L 770.92383 543.63477 L 770.92383 550.07031 L 776.14648 550.07031 L 776.14648 543.63477 L 779.5293 543.63477 L 779.5293 539.54102 L 776.14648 539.54102 L 776.14648 532.48047 L 771.50781 532.48047 L 770.96484 539.54102 L 764.5293 539.54102 L 771.7168 523.12109 L 767.16211 521.40625 z M 676.04688 521.44922 C 670.61509 521.44922 666.26953 525.08321 666.26953 530.97461 C 666.26953 536.65709 669.82059 540.125 674.16602 540.125 C 676.88191 540.125 678.84654 538.91427 680.18359 537.20117 C 679.4315 542.75831 675.41993 545.47405 668.40039 547.3125 L 669.52734 551.11523 C 680.80875 548.44112 685.90625 543.9274 685.90625 532.35352 C 685.90625 525.87716 682.56502 521.44922 676.04688 521.44922 z M 699.44141 521.44922 C 694.42745 521.44922 690.25 524.24762 690.25 528.84375 C 690.25 531.60143 691.46038 533.85875 694.46875 535.48828 C 691.12611 536.9089 689.12109 539.16559 689.12109 542.5918 C 689.12109 547.14614 693.00718 550.69727 699.31641 550.69727 C 705.7092 550.69727 709.76172 547.10394 709.76172 542.50781 C 709.76172 539.16517 707.84013 536.69943 703.99609 534.98633 C 707.1716 533.35679 708.63281 531.22531 708.63281 528.63477 C 708.63281 523.95507 704.41358 521.44922 699.44141 521.44922 z M 792.55664 521.44922 C 785.95493 521.44922 782.48828 526.67186 782.48828 536.03125 C 782.48828 545.43242 785.95493 550.69727 792.55664 550.69727 C 799.20013 550.69727 802.62695 545.43242 802.62695 536.03125 C 802.62695 526.67186 799.20013 521.44922 792.55664 521.44922 z M 830.88281 521.44922 C 825.32568 521.44922 820.85575 525.04192 819.35156 531.26758 L 816.42578 531.26758 L 815.67383 534.31836 L 819.14258 534.31836 L 819.14258 537.66016 L 816.42578 537.66016 L 815.67383 540.66992 L 819.26758 540.66992 C 820.47928 547.1045 824.53292 550.69727 830.7168 550.69727 C 833.26556 550.69727 835.22803 550.07038 837.27539 549.10938 L 837.27539 544.84766 C 835.56229 545.80866 833.64063 546.60156 831.30078 546.60156 C 827.66566 546.60156 825.5353 544.80644 824.7832 540.66992 L 833.05664 540.66992 L 833.76562 537.66016 L 824.61523 537.66016 L 824.61523 534.31836 L 834.47656 534.31836 L 835.27148 531.26758 L 824.86719 531.26758 C 825.91176 527.25641 828.16699 525.50195 831.0918 525.50195 C 833.30629 525.50195 834.89397 526.04492 836.73242 527.21484 L 838.69727 523.83008 C 836.52455 522.36767 834.05832 521.44922 830.88281 521.44922 z M 635.32812 521.95117 L 635.32812 536.6582 L 639.12891 536.6582 C 640.42418 535.98968 641.47035 535.69727 642.76562 535.69727 C 645.35617 535.69727 647.27734 537.03411 647.27734 540.91992 C 647.27734 544.55504 645.31341 546.56055 642.17969 546.56055 C 639.83984 546.56055 638.04402 545.59982 636.49805 543.88672 L 633.44727 546.72852 C 635.61998 549.11014 638.37709 550.69727 642.30469 550.69727 C 648.6557 550.69727 652.79297 546.68597 652.79297 540.91992 C 652.79297 535.19565 649.40821 531.85352 644.72852 531.85352 C 643.34968 531.85352 641.88742 532.18617 640.4668 532.89648 L 640.4668 525.91992 L 650.99609 525.91992 L 651.62305 521.95117 L 635.32812 521.95117 z M 711.33984 521.95117 L 711.33984 526.08594 L 723.20703 526.08594 L 713.42969 549.02539 L 718.31836 550.61328 L 728.72266 525.71094 L 728.72266 521.95117 L 711.33984 521.95117 z M 740.88281 521.95117 L 740.88281 526.08594 L 752.74805 526.08594 L 742.9707 549.02539 L 747.85938 550.61328 L 758.26367 525.71094 L 758.26367 521.95117 L 740.88281 521.95117 z M 931.73242 522.52344 C 934.86614 522.52344 936.20271 524.6531 936.11914 530.46094 C 934.86565 532.29939 933.23647 533.3457 931.31445 533.3457 C 929.05817 533.3457 927.30273 531.84013 927.30273 527.99609 C 927.30273 524.40276 929.01653 522.52344 931.73242 522.52344 z M 965.65625 522.60742 C 968.74819 522.60742 970.21094 525.23974 970.21094 533.13672 C 970.21094 541.07548 968.74819 543.74805 965.65625 543.74805 C 962.56431 543.74805 961.10156 540.99192 961.10156 533.13672 C 961.10156 525.36509 962.56431 522.60742 965.65625 522.60742 z M 1010.2949 522.60742 C 1013.3869 522.60742 1014.8496 525.23974 1014.8496 533.13672 C 1014.8496 541.07548 1013.3869 543.74805 1010.2949 543.74805 C 1007.203 543.74805 1005.7402 540.99192 1005.7402 533.13672 C 1005.7402 525.36509 1007.203 522.60742 1010.2949 522.60742 z M 1044.6523 522.60742 C 1047.7443 522.60742 1049.207 525.23974 1049.207 533.13672 C 1049.207 541.07548 1047.7443 543.74805 1044.6523 543.74805 C 1041.5604 543.74805 1040.0977 540.99192 1040.0977 533.13672 C 1040.0977 525.36509 1041.5604 522.60742 1044.6523 522.60742 z M 1068.5625 522.60742 C 1071.6544 522.60742 1073.1172 525.23974 1073.1172 533.13672 C 1073.1172 541.07548 1071.6544 543.74805 1068.5625 543.74805 C 1065.4706 543.74805 1064.0078 540.99192 1064.0078 533.13672 C 1064.0078 525.36509 1065.4706 522.60742 1068.5625 522.60742 z M 1092.4746 522.60742 C 1095.5665 522.60742 1097.0273 525.23974 1097.0273 533.13672 C 1097.0273 541.07548 1095.5665 543.74805 1092.4746 543.74805 C 1089.3827 543.74805 1087.9199 540.99192 1087.9199 533.13672 C 1087.9199 525.36509 1089.3827 522.60742 1092.4746 522.60742 z M 699.44141 525.20898 C 702.07373 525.20898 703.45312 526.67222 703.45312 528.88672 C 703.45312 530.8923 702.65786 532.27155 700.44336 533.65039 L 699.65039 533.35742 C 696.9345 532.35463 695.42969 531.30936 695.42969 528.92773 C 695.42969 526.46254 697.01799 525.20898 699.44141 525.20898 z M 676.04688 525.41797 C 679.1806 525.41797 680.51716 527.54959 680.43359 533.35742 C 679.1801 535.19587 677.55092 536.24023 675.62891 536.24023 C 673.37263 536.24023 671.61719 534.73661 671.61719 530.89258 C 671.61719 527.29924 673.33098 525.41797 676.04688 525.41797 z M 792.55664 525.50195 C 795.64858 525.50195 797.11133 528.13427 797.11133 536.03125 C 797.11133 543.97001 795.64858 546.64453 792.55664 546.64453 C 789.4647 546.64453 788.00391 543.88645 788.00391 536.03125 C 788.00391 528.25962 789.4647 525.50195 792.55664 525.50195 z M 697.89453 536.86719 L 699.19141 537.32617 C 702.95187 538.70501 704.33008 539.87549 704.33008 542.50781 C 704.33008 544.93122 702.57513 546.72852 699.44141 546.72852 C 696.43303 546.72852 694.51172 545.09794 694.51172 542.42383 C 694.51172 539.87507 695.63825 538.07889 697.89453 536.86719 z "
       transform="matrix(0.26458333,0,0,0.26458333,0,117)"
       id="flowRoot4538" />
    <path
       style="font-style:normal;font-variant:normal;font-weight:500;font-stretch:normal;font-size:16px;line-height:1.25;font-family:'Fira Sans';-inkscape-font-specification:'Fira Sans, Medium';font-variant-ligatures:normal;font-variant-caps:normal;font-variant-numeric:normal;font-feature-settings:normal;text-align:center;letter-spacing:0px;word-spacing:0px;writing-mode:lr-tb;text-anchor:middle;fill:#000000;fill-opacity:1;stroke:none;stroke-width:4.53425407"
       d="M 533.10156 292.73828 L 517.21289 302.45898 L 521.27734 308.69727 L 532.1582 302.0957 L 532.1582 341.5625 L 541.29883 341.5625 L 541.29883 292.73828 L 533.10156 292.73828 z M 562.28516 300.57617 C 558.98535 300.57617 557.11523 303.25898 557.11523 306.80078 C 557.11523 310.47457 559.05236 312.87305 562.66016 312.87305 C 564.42006 312.87305 565.82677 312.23449 566.9707 311.31055 L 565.80469 309.70508 C 564.79275 310.40904 563.93628 310.73828 562.90234 310.73828 C 561.36243 310.73828 560.239 309.96961 560.04102 307.59375 L 567.3457 307.59375 C 567.3677 307.28577 567.41211 306.8232 567.41211 306.44922 C 567.41211 302.77543 565.54097 300.57617 562.28516 300.57617 z M 555.57031 300.59766 C 554.20639 300.59766 553.08512 301.52146 552.53516 303.19336 L 552.27148 300.90625 L 549.82812 300.90625 L 549.82812 312.54297 L 552.64453 312.54297 L 552.64453 306.33984 C 553.08451 304.38196 553.81083 303.34766 555.21875 303.34766 C 555.61473 303.34766 555.89997 303.39247 556.25195 303.48047 L 556.73633 300.75195 C 556.36235 300.64196 555.98829 300.59766 555.57031 300.59766 z M 562.35156 302.57812 C 563.93547 302.57812 564.61719 303.72088 564.61719 305.63477 L 564.61719 305.76758 L 560.04102 305.76758 C 560.19501 303.45771 561.03164 302.57812 562.35156 302.57812 z M 536.23242 405.66016 C 529.48545 405.66016 524.33556 408.56031 520.41797 413.63867 L 526.07617 418.13672 C 529.12319 414.58186 531.66277 412.98633 535.50781 412.98633 C 539.7156 412.98633 542.54492 415.59772 542.54492 420.0957 C 542.54492 426.98777 538.48098 431.55891 521.79492 448.53516 L 521.79492 455.35547 L 552.19336 455.35547 L 553.20898 448.02734 L 532.31445 448.02734 C 547.40445 433.66283 552.12109 427.64157 552.12109 419.37109 C 552.12109 411.75355 546.3166 405.66016 536.23242 405.66016 z M 562.28516 414.36914 C 558.98535 414.36914 557.11523 417.05195 557.11523 420.59375 C 557.11523 424.26754 559.05236 426.66602 562.66016 426.66602 C 564.42006 426.66602 565.82677 426.02746 566.9707 425.10352 L 565.80469 423.49805 C 564.79275 424.20201 563.93628 424.53125 562.90234 424.53125 C 561.36243 424.53125 560.239 423.76258 560.04102 421.38672 L 567.3457 421.38672 C 567.3677 421.07874 567.41211 420.61617 567.41211 420.24219 C 567.41211 416.5684 565.54097 414.36914 562.28516 414.36914 z M 562.35156 416.37109 C 563.93547 416.37109 564.61719 417.51384 564.61719 419.42773 L 564.61719 419.56055 L 560.04102 419.56055 C 560.19501 417.25068 561.03164 416.37109 562.35156 416.37109 z M 536.01758 513.16602 C 530.14119 513.16602 525.06382 515.26906 520.71094 519.4043 L 525.42578 524.55469 C 528.4728 521.65277 531.4482 520.27539 535.2207 520.27539 C 539.57359 520.27539 542.40234 522.67001 542.40234 526.66016 C 542.40234 531.44833 539.13889 534.05859 534.56836 534.05859 L 531.95508 534.05859 L 530.86719 540.66211 L 534.71289 540.66211 C 540.22654 540.66211 543.49023 542.69225 543.49023 548.49609 C 543.49023 553.57446 540.08088 556.69336 534.85742 556.69336 C 531.01237 556.69336 527.96583 555.24318 524.70117 551.97852 L 519.55078 556.91211 C 523.32328 561.48264 528.69081 563.94922 535.36523 563.94922 C 546.53764 563.94922 553.06641 557.27467 553.06641 548.93164 C 553.06641 541.38664 548.06083 537.61359 541.9668 537.0332 C 547.69809 535.50969 551.4707 531.66435 551.4707 525.57031 C 551.4707 518.82334 546.10176 513.16602 536.01758 513.16602 z M 562.28516 521.875 C 558.98535 521.875 557.11523 524.55781 557.11523 528.09961 C 557.11523 531.7734 559.05236 534.17188 562.66016 534.17188 C 564.42006 534.17188 565.82677 533.53332 566.9707 532.60938 L 565.80469 531.00391 C 564.79275 531.70787 563.93628 532.03711 562.90234 532.03711 C 561.36243 532.03711 560.239 531.26844 560.04102 528.89258 L 567.3457 528.89258 C 567.3677 528.5846 567.41211 528.12203 567.41211 527.74805 C 567.41211 524.07426 565.54097 521.875 562.28516 521.875 z M 562.35156 523.87695 C 563.93547 523.87695 564.61719 525.0197 564.61719 526.93359 L 564.61719 527.06641 L 560.04102 527.06641 C 560.19501 524.75654 561.03164 523.87695 562.35156 523.87695 z "
       transform="matrix(0.26458333,0,0,0.26458333,0,117)"
       id="flowRoot4562" />
  </g>
</svg>
