<?xml version="1.0" encoding="UTF-8" standalone="no"?>
<!-- Created with Inkscape (http://www.inkscape.org/) -->

<svg
   xmlns:dc="http://purl.org/dc/elements/1.1/"
   xmlns:cc="http://creativecommons.org/ns#"
   xmlns:rdf="http://www.w3.org/1999/02/22-rdf-syntax-ns#"
   xmlns:svg="http://www.w3.org/2000/svg"
   xmlns="http://www.w3.org/2000/svg"
   xmlns:sodipodi="http://sodipodi.sourceforge.net/DTD/sodipodi-0.dtd"
   xmlns:inkscape="http://www.inkscape.org/namespaces/inkscape"
   width="320mm"
   height="180mm"
   viewBox="0 0 320 180"
   version="1.1"
   id="svg1265"
   inkscape:version="0.92.1 r15371"
   sodipodi:docname="3.svg">
  <defs
     id="defs1259" />
  <sodipodi:namedview
     id="base"
     pagecolor="#ffffff"
     bordercolor="#666666"
     borderopacity="1.0"
     inkscape:pageopacity="0.0"
     inkscape:pageshadow="2"
     inkscape:zoom="0.40748411"
     inkscape:cx="570.20517"
     inkscape:cy="275.90786"
     inkscape:document-units="mm"
     inkscape:current-layer="layer1"
     showgrid="false"
     inkscape:window-width="1822"
     inkscape:window-height="1046"
     inkscape:window-x="87"
     inkscape:window-y="-11"
     inkscape:window-maximized="1"
     showguides="true"
     inkscape:guide-bbox="true"
     inkscape:snap-global="true">
    <sodipodi:guide
       position="249.01023,183.42996"
       orientation="0,1"
       id="guide4531"
       inkscape:locked="false" />
    <sodipodi:guide
       position="46.205417,35.950129"
       orientation="0,1"
       id="guide4533"
       inkscape:locked="false" />
    <sodipodi:guide
       position="265.44629,91.969853"
       orientation="1,0"
       id="guide4658"
       inkscape:locked="false" />
    <sodipodi:guide
       position="46.201435,142.34672"
       orientation="1,0"
       id="guide4696"
       inkscape:locked="false" />
  </sodipodi:namedview>
  <metadata
     id="metadata1262">
    <rdf:RDF>
      <cc:Work
         rdf:about="">
        <dc:format>image/svg+xml</dc:format>
        <dc:type
           rdf:resource="http://purl.org/dc/dcmitype/StillImage" />
        <dc:title />
      </cc:Work>
    </rdf:RDF>
  </metadata>
  <g
     inkscape:label="Calque 1"
     inkscape:groupmode="layer"
     id="layer1"
     transform="translate(0,-117)">
    <path
       style="font-style:normal;font-variant:normal;font-weight:500;font-stretch:normal;font-size:16px;line-height:1.25;font-family:'Fira Sans';-inkscape-font-specification:'Fira Sans, Medium';font-variant-ligatures:normal;font-variant-caps:normal;font-variant-numeric:normal;font-feature-settings:normal;text-align:center;letter-spacing:0px;word-spacing:0px;writing-mode:lr-tb;text-anchor:middle;fill:#000000;fill-opacity:1;stroke:none;stroke-width:1.22427762"
       d="M 1001.4297 47.689453 L 984.74023 62.498047 L 988.15039 67.316406 L 1002.0176 58.384766 L 1015.0645 67.316406 L 1019.1777 62.498047 L 1005.5449 47.689453 L 1001.4297 47.689453 z M 113.42383 49.921875 L 111.89648 63.791016 L 124.00195 63.791016 L 125.41211 49.921875 L 113.42383 49.921875 z M 43.384766 51.097656 L 42.208984 62.263672 L 50.671875 62.263672 L 45.03125 116.32812 L 36.568359 116.32812 L 35.392578 127.49219 L 68.771484 127.49219 L 69.947266 116.32812 L 57.488281 116.32812 L 59.369141 97.875 L 91.572266 97.875 L 92.748047 86.828125 L 60.544922 86.828125 L 63.130859 62.263672 L 86.400391 62.263672 L 87.341797 75.191406 L 98.271484 74.134766 L 98.271484 51.097656 L 43.384766 51.097656 z M 643.83398 58.384766 L 639.95508 62.380859 L 638.42773 74.720703 L 633.84375 74.720703 L 630.43555 77.894531 L 629.49609 84.476562 L 637.25195 84.476562 L 633.96094 111.74414 C 632.55057 122.43943 638.78127 128.66797 649.47656 128.66797 C 659.23161 128.66797 664.1672 123.61532 667.10547 112.21484 L 658.52539 109.27539 C 656.29231 117.62007 653.59027 119.03125 650.76953 119.03125 C 646.89102 119.03125 645.48036 116.56208 646.18555 110.68555 L 649.35742 84.476562 L 662.75586 84.476562 L 666.16602 81.185547 L 667.10547 74.720703 L 650.5332 74.720703 L 652.53125 58.384766 L 643.83398 58.384766 z M 810.94727 58.384766 L 807.07031 62.380859 L 805.54102 74.720703 L 800.95898 74.720703 L 797.54883 77.894531 L 796.60938 84.476562 L 804.36719 84.476562 L 801.07617 111.74414 C 799.6658 122.43943 805.89455 128.66797 816.58984 128.66797 C 826.34489 128.66797 831.28048 123.61532 834.21875 112.21484 L 825.63867 109.27539 C 823.40559 117.62007 820.70355 119.03125 817.88281 119.03125 C 814.0043 119.03125 812.59364 116.56208 813.29883 110.68555 L 816.47266 84.476562 L 829.87109 84.476562 L 833.2793 81.185547 L 834.21875 74.720703 L 817.64648 74.720703 L 819.64453 58.384766 L 810.94727 58.384766 z M 1046.4688 58.384766 L 1042.5898 62.380859 L 1041.0625 74.720703 L 1036.4785 74.720703 L 1033.0703 77.894531 L 1032.1289 84.476562 L 1039.8867 84.476562 L 1036.5957 111.74414 C 1035.1853 122.43943 1041.4141 128.66797 1052.1094 128.66797 C 1061.8644 128.66797 1066.802 123.61532 1069.7402 112.21484 L 1061.1602 109.27539 C 1058.9271 117.62007 1056.2231 119.03125 1053.4023 119.03125 C 1049.5238 119.03125 1048.1132 116.56208 1048.8184 110.68555 L 1051.9922 84.476562 L 1065.3906 84.476562 L 1068.7988 81.185547 L 1069.7402 74.720703 L 1053.168 74.720703 L 1055.166 58.384766 L 1046.4688 58.384766 z M 169.4375 73.664062 C 161.32789 73.664062 155.80361 78.130488 152.16016 84.947266 L 151.80664 74.720703 L 136.64453 74.720703 L 133.35547 77.542969 L 132.53125 84.476562 L 140.64062 84.476562 L 135.35352 127.49219 L 147.33984 127.49219 L 151.10156 97.169922 L 151.10156 97.287109 C 152.04181 89.647617 156.15509 83.417969 163.91211 83.417969 C 170.37629 83.417969 173.43312 87.179817 172.25781 97.169922 L 168.49609 127.49219 L 185.18555 127.49219 L 188.35938 124.90625 L 189.29883 117.85547 L 181.66016 117.85547 L 184.71484 92.585938 C 186.36027 79.540036 179.07501 73.664062 169.4375 73.664062 z M 219.29297 73.664062 C 201.7809 73.664062 194.84766 92.234556 194.84766 106.2207 C 194.84766 119.2666 200.84137 128.66797 212.35938 128.66797 C 221.05664 128.66797 226.58024 123.26106 229.87109 116.79688 L 230.10547 127.49219 L 244.67969 127.49219 L 247.73633 124.90625 L 248.55859 117.85547 L 241.38867 117.85547 L 244.5625 92.585938 C 245.26768 86.591875 246.79563 80.714766 248.55859 74.720703 L 236.92383 74.720703 C 235.86605 77.658969 235.16026 80.598843 234.45508 83.537109 C 232.33953 77.425516 227.04999 73.664063 219.29297 73.664062 z M 292.70508 73.664062 C 284.59546 73.664062 279.07314 78.130488 275.42969 84.947266 L 275.07617 74.720703 L 259.91406 74.720703 L 256.625 77.542969 L 255.80078 84.476562 L 263.91016 84.476562 L 258.62305 127.49219 L 270.60938 127.49219 L 274.37109 97.169922 L 274.37109 97.287109 C 275.31134 89.647617 279.42462 83.417969 287.18164 83.417969 C 293.64583 83.417969 296.70265 87.179817 295.52734 97.169922 L 291.76562 127.49219 L 308.45508 127.49219 L 311.62891 124.90625 L 312.56836 117.85547 L 304.92969 117.85547 L 307.98438 92.585938 C 309.6298 79.540036 302.34259 73.664062 292.70508 73.664062 z M 344.79688 73.664062 C 325.63938 73.664062 318.11719 90.353591 318.11719 105.04492 C 318.11719 119.97131 325.99018 128.66797 339.38867 128.66797 C 353.96247 128.66797 360.89812 118.32536 363.01367 108.57031 L 353.25781 106.57227 C 350.9072 114.68188 347.73372 119.03125 341.26953 119.03125 C 333.74757 119.03125 331.16211 113.27183 331.16211 104.45703 C 331.16211 92.233844 335.86328 83.417969 344.56055 83.417969 C 347.26375 83.417969 349.61481 83.653742 352.43555 85.181641 L 353.25781 94.349609 L 363.36523 93.291016 L 362.77734 78.482422 C 357.37093 75.074033 350.67341 73.664062 344.79688 73.664062 z M 397.50195 73.664062 C 380.22495 73.664062 369.64844 88.002292 369.64844 105.2793 C 369.64844 121.26346 378.81646 128.66797 391.50977 128.66797 C 404.79073 128.66797 413.01634 120.67681 414.7793 111.62695 L 405.02539 109.62891 C 403.61502 113.74248 401.02816 119.03125 393.38867 119.03125 C 385.86671 119.03125 383.16509 114.33032 382.8125 106.2207 C 388.10138 105.63305 392.91963 104.92657 397.0332 103.98633 C 411.01935 101.04806 415.83789 95.524944 415.83789 87.650391 C 415.83789 79.188184 408.07971 73.664062 397.50195 73.664062 z M 458.66602 73.664062 C 450.5564 73.664062 445.15126 78.248019 441.50781 84.947266 L 441.27148 74.720703 L 426.11133 74.720703 L 422.82031 77.542969 L 421.99609 84.476562 L 430.10742 84.476562 L 424.81836 127.49219 L 436.80664 127.49219 L 440.44922 97.052734 L 440.56641 97.287109 C 441.50665 89.530087 444.67979 83.417969 452.67188 83.417969 C 458.901 83.417969 461.72218 87.179817 460.54688 97.169922 L 456.78516 127.49219 L 468.77344 127.49219 L 472.53516 95.876953 C 473.71046 88.942645 477.00148 83.417969 484.52344 83.417969 C 490.87009 83.417969 493.69127 87.179817 492.39844 97.169922 L 488.75391 127.49219 L 505.44336 127.49219 L 508.61719 124.90625 L 509.43945 117.85547 L 501.91797 117.85547 L 504.97461 92.585938 C 506.50251 79.657566 500.15509 73.664063 490.51758 73.664062 C 482.1729 73.664062 476.64931 78.483317 473.00586 85.535156 C 471.94808 77.543072 466.42304 73.664062 458.66602 73.664062 z M 543.03906 73.664062 C 525.76206 73.664062 515.18359 88.002292 515.18359 105.2793 C 515.18359 121.26346 524.35161 128.66797 537.04492 128.66797 C 550.32588 128.66797 558.55345 120.67681 560.31641 111.62695 L 550.56055 109.62891 C 549.15018 113.74248 546.56527 119.03125 538.92578 119.03125 C 531.40382 119.03125 528.70025 114.33032 528.34766 106.2207 C 533.63654 105.63305 538.45479 104.92657 542.56836 103.98633 C 556.55451 101.04806 561.37305 95.524944 561.37305 87.650391 C 561.37305 79.188184 553.61682 73.664062 543.03906 73.664062 z M 604.4375 73.664062 C 596.32789 73.664062 590.80361 78.130488 587.16016 84.947266 L 586.80859 74.720703 L 571.64648 74.720703 L 568.35547 77.542969 L 567.5332 84.476562 L 575.64258 84.476562 L 570.35352 127.49219 L 582.3418 127.49219 L 586.10352 97.169922 L 586.10352 97.287109 C 587.04376 89.647617 591.15704 83.417969 598.91406 83.417969 C 605.37825 83.417969 608.43312 87.179817 607.25781 97.169922 L 603.49805 127.49219 L 620.1875 127.49219 L 623.35938 124.90625 L 624.30078 117.85547 L 616.66016 117.85547 L 619.7168 92.585938 C 621.36223 79.540036 614.07501 73.664062 604.4375 73.664062 z M 695.49023 73.664062 C 684.79495 73.664062 674.21875 78.483263 674.21875 90.236328 C 674.21875 99.521249 681.15197 102.45935 687.96875 104.33984 C 695.25565 106.33786 701.48438 107.16034 701.48438 112.44922 C 701.48438 116.68032 697.72326 119.03125 691.49414 119.03125 C 689.026 119.03125 684.79534 118.6776 681.97461 117.38477 L 682.79688 110.80273 L 673.16016 109.86328 L 669.86914 123.49609 C 675.51061 126.90448 685.38405 128.66797 692.31836 128.66797 C 704.54155 128.66797 714.17773 122.90829 714.17773 111.50781 C 714.17773 100.45993 705.01082 97.874631 697.95898 95.994141 C 690.78961 94.231181 686.79297 93.17309 686.79297 89.412109 C 686.79297 85.416067 691.14252 83.417969 695.84375 83.417969 C 698.89955 83.417969 702.07184 84.240709 704.89258 85.416016 L 705.12891 92.703125 L 714.88281 91.529297 L 715 78.482422 C 709.59359 75.191564 701.71936 73.664062 695.49023 73.664062 z M 772.82031 73.664062 C 755.54331 73.664062 744.96484 88.002292 744.96484 105.2793 C 744.96484 121.26346 754.13286 128.66797 766.82617 128.66797 C 780.10713 128.66797 788.3347 120.67681 790.09766 111.62695 L 780.3418 109.62891 C 778.93143 113.74248 776.34652 119.03125 768.70703 119.03125 C 761.18507 119.03125 758.4815 114.33032 758.12891 106.2207 C 763.41779 105.63305 768.23604 104.92657 772.34961 103.98633 C 786.33576 101.04806 791.15625 95.524944 791.15625 87.650391 C 791.15625 79.188184 783.39807 73.664062 772.82031 73.664062 z M 888.14648 73.664062 C 868.98899 73.664062 861.4668 90.353591 861.4668 105.04492 C 861.4668 119.97131 869.33979 128.66797 882.73828 128.66797 C 897.31208 128.66797 904.24773 118.32536 906.36328 108.57031 L 896.60742 106.57227 C 894.25681 114.68188 891.08333 119.03125 884.61914 119.03125 C 877.09718 119.03125 874.51172 113.27183 874.51172 104.45703 C 874.51172 92.233844 879.21289 83.417969 887.91016 83.417969 C 890.61336 83.417969 892.96442 83.653742 895.78516 85.181641 L 896.60742 94.349609 L 906.71484 93.291016 L 906.12695 78.482422 C 900.72054 75.074033 894.02302 73.664062 888.14648 73.664062 z M 941.08789 73.664062 C 922.16546 73.664062 913.11523 88.708505 913.11523 104.92773 C 913.11523 119.7366 920.8722 128.66797 935.21094 128.66797 C 952.48794 128.66797 963.53516 115.85685 963.53516 97.992188 C 963.53516 84.123571 956.95453 73.664062 941.08789 73.664062 z M 1098.125 73.664062 C 1087.4297 73.664062 1076.8516 78.483263 1076.8516 90.236328 C 1076.8516 99.521249 1083.7867 102.45935 1090.6035 104.33984 C 1097.8904 106.33786 1104.1191 107.16034 1104.1191 112.44922 C 1104.1191 116.68032 1100.358 119.03125 1094.1289 119.03125 C 1091.6608 119.03125 1087.4301 118.6776 1084.6094 117.38477 L 1085.4316 110.80273 L 1075.7949 109.86328 L 1072.5039 123.49609 C 1078.1454 126.90448 1088.0169 128.66797 1094.9512 128.66797 C 1107.1744 128.66797 1116.8125 122.90829 1116.8125 111.50781 C 1116.8125 100.45993 1107.6456 97.874631 1100.5938 95.994141 C 1093.4244 94.231181 1089.4277 93.17309 1089.4277 89.412109 C 1089.4277 85.416067 1093.7773 83.417969 1098.4785 83.417969 C 1101.5343 83.417969 1104.7066 84.240709 1107.5273 85.416016 L 1107.7617 92.703125 L 1117.5176 91.529297 L 1117.6348 78.482422 C 1112.2284 75.191564 1104.3541 73.664062 1098.125 73.664062 z M 105.43164 74.720703 L 102.25781 77.542969 L 101.31836 84.476562 L 109.42773 84.476562 L 104.13867 127.49219 L 120.82812 127.49219 L 124.00195 124.90625 L 124.82422 117.85547 L 117.41992 117.85547 L 122.5918 74.720703 L 105.43164 74.720703 z M 973.45898 74.720703 L 970.40234 77.306641 L 969.46289 84.476562 L 977.10156 84.476562 L 974.04492 109.62891 C 972.39949 122.67481 979.68671 128.55078 989.32422 128.55078 C 997.3163 128.55078 1002.9585 124.08401 1006.4844 117.38477 L 1006.8359 127.49219 L 1021.998 127.49219 L 1025.2891 124.67188 L 1026.1113 117.85547 L 1018.1191 117.85547 L 1023.291 74.720703 L 1011.3027 74.720703 L 1007.4238 106.2207 C 1006.131 113.27254 1002.1365 118.91406 994.84961 118.91406 C 988.26789 118.91406 985.21107 115.03503 986.50391 105.04492 L 990.26562 74.720703 L 973.45898 74.720703 z M 395.97461 82.478516 C 399.97065 82.478516 403.14453 84.124022 403.14453 88.472656 C 403.14453 91.998576 401.38176 95.288745 391.03906 97.404297 C 388.92351 97.756889 386.21986 98.344674 383.16406 98.697266 C 384.22184 90.47012 387.74746 82.478516 395.97461 82.478516 z M 541.51172 82.478516 C 545.50776 82.478516 548.67969 84.124022 548.67969 88.472656 C 548.67969 91.998576 546.91692 95.288745 536.57422 97.404297 C 534.45867 97.756889 531.75502 98.344674 528.69922 98.697266 C 529.75699 90.47012 533.28457 82.478516 541.51172 82.478516 z M 771.29297 82.478516 C 775.28901 82.478516 778.46289 84.124022 778.46289 88.472656 C 778.46289 91.998576 776.69817 95.288745 766.35547 97.404297 C 764.23992 97.756889 761.53822 98.344674 758.48242 98.697266 C 759.5402 90.47012 763.06582 82.478516 771.29297 82.478516 z M 221.05664 83.417969 C 227.28576 83.417969 232.33892 88.591214 231.98633 96.818359 L 231.04688 103.98633 C 229.51898 111.03817 224.11273 119.03125 216.94336 119.03125 C 210.9493 119.03125 207.89258 113.8588 207.89258 104.69141 C 207.89258 94.583771 211.41913 83.417969 221.05664 83.417969 z M 939.79492 83.417969 C 947.55194 83.417969 950.60742 88.473129 950.60742 98.345703 C 950.60742 109.51111 946.61189 119.03125 936.38672 119.03125 C 928.39463 119.03125 926.16211 113.03619 926.16211 103.98633 C 926.16211 90.822896 930.62753 83.417969 939.79492 83.417969 z "
       transform="matrix(0.26458333,0,0,0.26458333,0,117)"
       id="flowRoot5181" />
    <g
       id="g4516"
       transform="matrix(0.63879028,0,0,0.63879028,-2.3086713,62.039869)">
      <rect
         y="168.6954"
         x="20.674778"
         height="33.005314"
         width="66.323471"
         id="rect5204"
         style="opacity:1;fill:#cafbab;fill-opacity:1;fill-rule:nonzero;stroke:#000000;stroke-width:1.36277628;stroke-linecap:butt;stroke-linejoin:round;stroke-miterlimit:4;stroke-dasharray:1.36277629, 1.36277629;stroke-dashoffset:0;stroke-opacity:0.00276244;paint-order:normal" />
      <rect
         y="168.57808"
         x="65.098999"
         height="33.239948"
         width="14.234519"
         id="rect5206"
         style="opacity:1;fill:#b5b5b5;fill-opacity:1;fill-rule:nonzero;stroke:#000000;stroke-width:1.36277628;stroke-linecap:butt;stroke-linejoin:round;stroke-miterlimit:4;stroke-dasharray:1.36277629, 1.36277629;stroke-dashoffset:0;stroke-opacity:0.00276244;paint-order:normal" />
      <path
         id="flowRoot5208"
         transform="matrix(0.26458333,0,0,0.26458333,0,117)"
         d="m 278.10156,205.30273 c -7.75195,0 -13.98766,5.0108 -16.08594,13.69532 h -4.08007 l -1.05078,4.25586 h 4.83789 v 4.66211 h -3.78711 l -1.05078,4.19726 h 5.01367 c 1.69027,8.97595 7.34446,13.98828 15.9707,13.98828 3.55541,0 6.29441,-0.87428 9.15039,-2.21484 v -5.94531 c -2.3897,1.34056 -5.07195,2.44726 -8.33594,2.44726 -5.07082,0 -8.04266,-2.50514 -9.09179,-8.27539 h 11.54101 l 0.99024,-4.19726 h -12.76367 v -4.66211 h 13.7539 l 1.10742,-4.25586 h -14.51172 c 1.45714,-5.5954 4.60362,-8.04297 8.6836,-8.04297 3.08912,0 5.30458,0.75863 7.86914,2.39062 L 289,208.625 c -3.03084,-2.03999 -6.46875,-3.32227 -10.89844,-3.32227 z"
         style="font-style:normal;font-variant:normal;font-weight:500;font-stretch:normal;font-size:16px;line-height:1.25;font-family:'Fira Sans';-inkscape-font-specification:'Fira Sans, Medium';font-variant-ligatures:normal;font-variant-caps:normal;font-variant-numeric:normal;font-feature-settings:normal;text-align:center;letter-spacing:0px;word-spacing:0px;writing-mode:lr-tb;text-anchor:middle;fill:#ffffff;fill-opacity:1;stroke:none;stroke-width:3.64283633"
         inkscape:connector-curvature="0" />
      <path
         id="flowRoot5224"
         transform="matrix(0.26458333,0,0,0.26458333,0,117)"
         d="m 102.87695,210.4668 -9.144528,20.71484 v 4.10547 h 13.343748 v 7.18359 h 5.83203 v -7.18359 h 3.7793 v -4.57227 h -3.7793 v -7.88476 h -5.17968 l -0.60547,7.88476 H 99.9375 l 8.02539,-18.33593 z m 28.35547,0.0469 c -7.37149,0 -11.24219,5.83053 -11.24219,16.28125 0,10.49738 3.8707,16.37696 11.24219,16.37696 7.41815,0 11.24414,-5.87958 11.24414,-16.37696 0,-10.45072 -3.82599,-16.28125 -11.24414,-16.28125 z m 38.36328,0 c -7.37149,0 -11.24414,5.83053 -11.24414,16.28125 0,10.49738 3.87265,16.37696 11.24414,16.37696 7.41815,0 11.24414,-5.87958 11.24414,-16.37696 0,-10.45072 -3.82599,-16.28125 -11.24414,-16.28125 z m 26.69922,0 c -7.37149,0 -11.24414,5.83053 -11.24414,16.28125 0,10.49738 3.87265,16.37696 11.24414,16.37696 7.41815,0 11.24414,-5.87958 11.24414,-16.37696 0,-10.45072 -3.82599,-16.28125 -11.24414,-16.28125 z m 26.69922,0 c -7.37149,0 -11.24414,5.83053 -11.24414,16.28125 0,10.49738 3.87265,16.37696 11.24414,16.37696 7.41815,0 11.24414,-5.87958 11.24414,-16.37696 0,-10.45072 -3.82599,-16.28125 -11.24414,-16.28125 z m -91.76172,4.52539 c 3.45247,0 5.08594,2.93806 5.08594,11.75586 0,8.86446 -1.63347,11.85156 -5.08594,11.85156 -3.45247,0 -5.08398,-3.08041 -5.08398,-11.85156 0,-8.67783 1.63151,-11.75586 5.08398,-11.75586 z m 38.36328,0 c 3.45248,0 5.08594,2.93806 5.08594,11.75586 0,8.86446 -1.63346,11.85156 -5.08594,11.85156 -3.45247,0 -5.08593,-3.08041 -5.08593,-11.85156 0,-8.67783 1.63346,-11.75586 5.08593,-11.75586 z m 26.69922,0 c 3.45247,0 5.08594,2.93806 5.08594,11.75586 0,8.86446 -1.63347,11.85156 -5.08594,11.85156 -3.45247,0 -5.08594,-3.08041 -5.08594,-11.85156 0,-8.67783 1.63347,-11.75586 5.08594,-11.75586 z m 26.69922,0 c 3.45247,0 5.08594,2.93806 5.08594,11.75586 0,8.86446 -1.63347,11.85156 -5.08594,11.85156 -3.45247,0 -5.08594,-3.08041 -5.08594,-11.85156 0,-8.67783 1.63347,-11.75586 5.08594,-11.75586 z"
         style="font-style:normal;font-variant:normal;font-weight:500;font-stretch:normal;font-size:16px;line-height:1.25;font-family:'Fira Sans';-inkscape-font-specification:'Fira Sans, Medium';font-variant-ligatures:normal;font-variant-caps:normal;font-variant-numeric:normal;font-feature-settings:normal;text-align:center;letter-spacing:0px;word-spacing:0px;writing-mode:lr-tb;text-anchor:middle;fill:#000000;fill-opacity:1;stroke:none;stroke-width:2.91593933"
         inkscape:connector-curvature="0" />
    </g>
    <g
       id="g4522"
       transform="matrix(0.63879028,0,0,0.63879028,8.773581,46.190275)">
      <rect
         y="210.13234"
         x="20.674778"
         height="33.005314"
         width="66.323471"
         id="rect5204-6"
         style="opacity:1;fill:#cafbab;fill-opacity:1;fill-rule:nonzero;stroke:#000000;stroke-width:1.36277628;stroke-linecap:butt;stroke-linejoin:round;stroke-miterlimit:4;stroke-dasharray:1.36277629, 1.36277629;stroke-dashoffset:0;stroke-opacity:0.00276244;paint-order:normal" />
      <rect
         y="210.01501"
         x="65.098999"
         height="33.239948"
         width="14.234519"
         id="rect5206-2"
         style="opacity:1;fill:#b5b5b5;fill-opacity:1;fill-rule:nonzero;stroke:#000000;stroke-width:1.36277628;stroke-linecap:butt;stroke-linejoin:round;stroke-miterlimit:4;stroke-dasharray:1.36277629, 1.36277629;stroke-dashoffset:0;stroke-opacity:0.00276244;paint-order:normal" />
      <path
         id="flowRoot5208-0"
         transform="matrix(0.26458333,0,0,0.26458333,0,117)"
         d="m 278.10156,361.91406 c -7.75195,0 -13.98766,5.01275 -16.08594,13.69727 h -4.08007 l -1.05078,4.2539 h 4.83789 v 4.66407 h -3.78711 l -1.05078,4.19531 h 5.01367 c 1.69027,8.97595 7.34446,13.98828 15.9707,13.98828 3.55541,0 6.29441,-0.87428 9.15039,-2.21484 v -5.94532 c -2.3897,1.34057 -5.07195,2.44922 -8.33594,2.44922 -5.07082,0 -8.04266,-2.50709 -9.09179,-8.27734 h 11.54101 l 0.99024,-4.19531 h -12.76367 v -4.66407 h 13.7539 l 1.10742,-4.2539 h -14.51172 c 1.45714,-5.5954 4.60362,-8.04297 8.6836,-8.04297 3.08912,0 5.30458,0.75668 7.86914,2.38867 L 289,365.23633 c -3.03084,-2.03999 -6.46875,-3.32227 -10.89844,-3.32227 z"
         style="font-style:normal;font-variant:normal;font-weight:500;font-stretch:normal;font-size:16px;line-height:1.25;font-family:'Fira Sans';-inkscape-font-specification:'Fira Sans, Medium';font-variant-ligatures:normal;font-variant-caps:normal;font-variant-numeric:normal;font-feature-settings:normal;text-align:center;letter-spacing:0px;word-spacing:0px;writing-mode:lr-tb;text-anchor:middle;fill:#ffffff;fill-opacity:1;stroke:none;stroke-width:3.64283633"
         inkscape:connector-curvature="0" />
      <path
         id="flowRoot5224-6"
         transform="matrix(0.26458333,0,0,0.26458333,0,117)"
         d="m 102.87695,367.07812 -9.144528,20.71485 v 4.10547 h 13.343748 v 7.18554 h 5.83203 v -7.18554 h 3.7793 v -4.57227 h -3.7793 v -7.88476 h -5.17968 l -0.60547,7.88476 H 99.9375 l 8.02539,-18.33398 z m 28.35547,0.0469 c -7.37149,0 -11.24219,5.83248 -11.24219,16.2832 0,10.49738 3.8707,16.375 11.24219,16.375 7.41815,0 11.24414,-5.87762 11.24414,-16.375 0,-10.45072 -3.82599,-16.2832 -11.24414,-16.2832 z m 38.36328,0 c -7.37149,0 -11.24414,5.83248 -11.24414,16.2832 0,10.49738 3.87265,16.375 11.24414,16.375 7.41815,0 11.24414,-5.87762 11.24414,-16.375 0,-10.45072 -3.82599,-16.2832 -11.24414,-16.2832 z m 26.69922,0 c -7.37149,0 -11.24414,5.83248 -11.24414,16.2832 0,10.49738 3.87265,16.375 11.24414,16.375 7.41815,0 11.24414,-5.87762 11.24414,-16.375 0,-10.45072 -3.82599,-16.2832 -11.24414,-16.2832 z m 26.69922,0 c -7.37149,0 -11.24414,5.83248 -11.24414,16.2832 0,10.49738 3.87265,16.375 11.24414,16.375 7.41815,0 11.24414,-5.87762 11.24414,-16.375 0,-10.45072 -3.82599,-16.2832 -11.24414,-16.2832 z m -91.76172,4.52539 c 3.45247,0 5.08594,2.94001 5.08594,11.75781 0,8.86446 -1.63347,11.84961 -5.08594,11.84961 -3.45247,0 -5.08398,-3.07846 -5.08398,-11.84961 0,-8.67783 1.63151,-11.75781 5.08398,-11.75781 z m 38.36328,0 c 3.45248,0 5.08594,2.94001 5.08594,11.75781 0,8.86446 -1.63346,11.84961 -5.08594,11.84961 -3.45247,0 -5.08593,-3.07846 -5.08593,-11.84961 0,-8.67783 1.63346,-11.75781 5.08593,-11.75781 z m 26.69922,0 c 3.45247,0 5.08594,2.94001 5.08594,11.75781 0,8.86446 -1.63347,11.84961 -5.08594,11.84961 -3.45247,0 -5.08594,-3.07846 -5.08594,-11.84961 0,-8.67783 1.63347,-11.75781 5.08594,-11.75781 z m 26.69922,0 c 3.45247,0 5.08594,2.94001 5.08594,11.75781 0,8.86446 -1.63347,11.84961 -5.08594,11.84961 -3.45247,0 -5.08594,-3.07846 -5.08594,-11.84961 0,-8.67783 1.63347,-11.75781 5.08594,-11.75781 z"
         style="font-style:normal;font-variant:normal;font-weight:500;font-stretch:normal;font-size:16px;line-height:1.25;font-family:'Fira Sans';-inkscape-font-specification:'Fira Sans, Medium';font-variant-ligatures:normal;font-variant-caps:normal;font-variant-numeric:normal;font-feature-settings:normal;text-align:center;letter-spacing:0px;word-spacing:0px;writing-mode:lr-tb;text-anchor:middle;fill:#000000;fill-opacity:1;stroke:none;stroke-width:2.91593933"
         inkscape:connector-curvature="0" />
    </g>
    <g
       id="g4528"
       transform="matrix(0.63879028,0,0,0.63879028,20.860009,29.857374)">
      <rect
         y="251.56927"
         x="20.674778"
         height="33.005314"
         width="66.323471"
         id="rect5204-6-7"
         style="opacity:1;fill:#cafbab;fill-opacity:1;fill-rule:nonzero;stroke:#000000;stroke-width:1.36277628;stroke-linecap:butt;stroke-linejoin:round;stroke-miterlimit:4;stroke-dasharray:1.36277629, 1.36277629;stroke-dashoffset:0;stroke-opacity:0.00276244;paint-order:normal" />
      <rect
         y="251.45197"
         x="65.098999"
         height="33.239948"
         width="14.234519"
         id="rect5206-2-4"
         style="opacity:1;fill:#b5b5b5;fill-opacity:1;fill-rule:nonzero;stroke:#000000;stroke-width:1.36277628;stroke-linecap:butt;stroke-linejoin:round;stroke-miterlimit:4;stroke-dasharray:1.36277629, 1.36277629;stroke-dashoffset:0;stroke-opacity:0.00276244;paint-order:normal" />
      <path
         id="flowRoot5208-0-0"
         transform="matrix(0.26458333,0,0,0.26458333,0,117)"
         d="m 278.10156,518.52539 c -7.75195,0 -13.98766,5.01274 -16.08594,13.69727 h -4.08007 l -1.05078,4.25586 h 4.83789 v 4.6621 h -3.78711 l -1.05078,4.19727 h 5.01367 c 1.69027,8.97595 7.34446,13.98828 15.9707,13.98828 3.55541,0 6.29441,-0.87428 9.15039,-2.21484 v -5.94531 c -2.3897,1.34056 -5.07195,2.44726 -8.33594,2.44726 -5.07082,0 -8.04266,-2.50514 -9.09179,-8.27539 h 11.54101 l 0.99024,-4.19727 h -12.76367 v -4.6621 h 13.7539 l 1.10742,-4.25586 h -14.51172 c 1.45714,-5.5954 4.60362,-8.04297 8.6836,-8.04297 3.08912,0 5.30458,0.75668 7.86914,2.38867 L 289,521.84766 c -3.03084,-2.03999 -6.46875,-3.32227 -10.89844,-3.32227 z"
         style="font-style:normal;font-variant:normal;font-weight:500;font-stretch:normal;font-size:16px;line-height:1.25;font-family:'Fira Sans';-inkscape-font-specification:'Fira Sans, Medium';font-variant-ligatures:normal;font-variant-caps:normal;font-variant-numeric:normal;font-feature-settings:normal;text-align:center;letter-spacing:0px;word-spacing:0px;writing-mode:lr-tb;text-anchor:middle;fill:#ffffff;fill-opacity:1;stroke:none;stroke-width:3.64283633"
         inkscape:connector-curvature="0" />
      <path
         id="flowRoot5224-6-5"
         transform="matrix(0.26458333,0,0,0.26458333,0,117)"
         d="m 130.50391,523.73633 c -7.3715,0 -11.24414,5.83247 -11.24414,16.2832 0,10.49738 3.87264,16.37695 11.24414,16.37695 7.41815,0 11.24414,-5.87957 11.24414,-16.37695 0,-10.45073 -3.82599,-16.2832 -11.24414,-16.2832 z m 38.36328,0 c -7.3715,0 -11.24414,5.83247 -11.24414,16.2832 0,10.49738 3.87264,16.37695 11.24414,16.37695 7.41815,0 11.24414,-5.87957 11.24414,-16.37695 0,-10.45073 -3.82599,-16.2832 -11.24414,-16.2832 z m 26.69922,0 c -7.3715,0 -11.24414,5.83247 -11.24414,16.2832 0,10.49738 3.87264,16.37695 11.24414,16.37695 7.41815,0 11.24414,-5.87957 11.24414,-16.37695 0,-10.45073 -3.82599,-16.2832 -11.24414,-16.2832 z m 26.69921,0 c -7.37149,0 -11.24414,5.83247 -11.24414,16.2832 0,10.49738 3.87265,16.37695 11.24414,16.37695 7.41815,0 11.24415,-5.87957 11.24415,-16.37695 0,-10.45073 -3.826,-16.2832 -11.24415,-16.2832 z m -126.357417,0.56055 v 16.42187 h 4.246097 c 1.4463,-0.74648 2.61228,-1.07227 4.05859,-1.07227 2.89261,0 5.03906,1.49312 5.03906,5.83204 0,4.05898 -2.19423,6.29882 -5.69336,6.29882 -2.61268,0 -4.61751,-1.07347 -6.343746,-2.98632 l -3.40625,3.17187 c 2.426061,2.65934 5.505052,4.43359 9.890626,4.43359 7.09156,0 11.71094,-4.47957 11.71094,-10.91796 0,-6.39174 -3.77855,-10.125 -9.00391,-10.125 -1.53962,0 -3.17349,0.37483 -4.75977,1.16796 v -7.79296 h 11.75782 l 0.69922,-4.43164 z m 34.595707,3.96484 c 3.45247,0 5.08593,2.94001 5.08593,11.75781 0,8.86446 -1.63346,11.84961 -5.08593,11.84961 -3.45248,0 -5.08594,-3.07846 -5.08594,-11.84961 0,-8.67783 1.63346,-11.75781 5.08594,-11.75781 z m 38.36328,0 c 3.45247,0 5.08593,2.94001 5.08593,11.75781 0,8.86446 -1.63346,11.84961 -5.08593,11.84961 -3.45247,0 -5.08594,-3.07846 -5.08594,-11.84961 0,-8.67783 1.63347,-11.75781 5.08594,-11.75781 z m 26.69922,0 c 3.45247,0 5.08593,2.94001 5.08593,11.75781 0,8.86446 -1.63346,11.84961 -5.08593,11.84961 -3.45248,0 -5.08594,-3.07846 -5.08594,-11.84961 0,-8.67783 1.63346,-11.75781 5.08594,-11.75781 z m 26.69921,0 c 3.45248,0 5.08399,2.94001 5.08399,11.75781 0,8.86446 -1.63151,11.84961 -5.08399,11.84961 -3.45247,0 -5.08593,-3.07846 -5.08593,-11.84961 0,-8.67783 1.63346,-11.75781 5.08593,-11.75781 z"
         style="font-style:normal;font-variant:normal;font-weight:500;font-stretch:normal;font-size:16px;line-height:1.25;font-family:'Fira Sans';-inkscape-font-specification:'Fira Sans, Medium';font-variant-ligatures:normal;font-variant-caps:normal;font-variant-numeric:normal;font-feature-settings:normal;text-align:center;letter-spacing:0px;word-spacing:0px;writing-mode:lr-tb;text-anchor:middle;fill:#000000;fill-opacity:1;stroke:none;stroke-width:2.91593933"
         inkscape:connector-curvature="0" />
    </g>
    <path
       style="font-style:normal;font-variant:normal;font-weight:500;font-stretch:normal;font-size:16px;line-height:1.25;font-family:'Fira Sans';-inkscape-font-specification:'Fira Sans, Medium';font-variant-ligatures:normal;font-variant-caps:normal;font-variant-numeric:normal;font-feature-settings:normal;text-align:center;letter-spacing:0px;word-spacing:0px;writing-mode:lr-tb;text-anchor:middle;fill:#000000;fill-opacity:1;stroke:none;stroke-width:0.77661139"
       d="m 103.20797,164.673 -1.20521,8.58601 h 1.62774 l 0.49714,-3.57866 h 2.62168 l 0.16142,-1.21775 h -2.60947 l 0.36048,-2.57184 h 3.00691 l 0.33572,-1.21776 z m -4.447825,0.0743 c -1.006487,0 -1.876424,0.33573 -2.721377,1.03157 l 0.720947,0.93189 c 0.584011,-0.49703 1.118053,-0.74571 1.77662,-0.74571 0.646141,0 1.031575,0.32335 1.031575,0.93222 0,0.73312 -0.459883,1.42869 -1.540926,1.42869 h -0.434747 l -0.335715,1.13093 h 0.683645 c 0.820102,0 1.304571,0.24861 1.304571,0.98173 0,1.06862 -0.708283,1.76441 -1.702347,1.76441 -0.633715,0 -1.143324,-0.22364 -1.578227,-0.79522 l -0.993943,0.80743 c 0.534308,0.78283 1.391697,1.2303 2.534869,1.2303 2.348473,0 3.33009,-1.64022 3.33009,-2.8828 0,-1.06862 -0.70833,-1.64034 -1.602986,-1.71489 1.354406,-0.36035 1.901396,-1.20525 1.901396,-2.11234 0,-1.10589 -0.80779,-1.98821 -2.373445,-1.98821 z"
       id="flowRoot5322"
       inkscape:connector-curvature="0" />
    <path
       style="font-style:normal;font-variant:normal;font-weight:500;font-stretch:normal;font-size:16px;line-height:1.25;font-family:'Fira Sans';-inkscape-font-specification:'Fira Sans, Medium';font-variant-ligatures:normal;font-variant-caps:normal;font-variant-numeric:normal;font-feature-settings:normal;text-align:center;letter-spacing:0px;word-spacing:0px;writing-mode:lr-tb;text-anchor:middle;fill:#000000;fill-opacity:1;stroke:none;stroke-width:0.77661139"
       d="m 121.83144,171.98762 -1.91361,1.56568 0.54665,0.68331 1.72744,-1.0933 1.42869,1.0933 0.68364,-0.68331 -1.49108,-1.56568 z m -13.57981,1.45377 -1.20521,8.58634 h 1.62774 l 0.42253,-2.9947 h 1.00649 c 2.77095,0 3.74008,-1.67742 3.74008,-3.25549 0,-1.57808 -1.16819,-2.33615 -3.10661,-2.33615 z m 19.56163,0.37302 -1.31745,0.14888 -0.40999,1.49108 h -1.08109 l -0.16142,1.14315 h 1.01903 l -0.48459,3.44199 c -0.19881,1.39169 0.43492,2.17473 1.70235,2.17473 0.5343,0 1.13062,-0.14931 1.6525,-0.47238 l -0.44729,-1.056 c -0.31065,0.14911 -0.55928,0.23602 -0.84507,0.23602 -0.42248,0 -0.59621,-0.22368 -0.49681,-0.86982 l 0.4846,-3.45454 h 1.34187 l 0.33538,-1.14315 h -1.51583 z m -18.10786,0.83252 h 0.89459 c 0.96921,0 1.54092,0.32308 1.54092,1.18046 0,0.9195 -0.39753,1.97567 -2.03773,1.97567 h -0.83252 z m 12.31255,0.62126 c -2.64669,0 -3.57865,2.42281 -3.57865,4.21213 0,1.66505 0.91952,2.73392 2.70883,2.73392 0.95678,0 1.77687,-0.33561 2.49756,-0.84507 l -0.60904,-0.99394 c -0.59643,0.42248 -1.11812,0.60871 -1.71456,0.60871 -0.72069,0 -1.24253,-0.34805 -1.27981,-1.36696 2.16208,-0.22367 4.24943,-0.7577 4.24943,-2.60914 0,-0.93194 -0.77024,-1.73965 -2.27376,-1.73965 z m -3.89456,0.0122 c -0.73312,0 -1.40425,0.4849 -1.88886,1.45411 l 0.0498,-1.28014 h -1.35442 l -0.91967,6.57336 h 1.56569 l 0.45983,-3.24327 c 0.41005,-1.16803 0.90712,-1.95059 1.73965,-1.95059 0.21124,0 0.34784,0.0249 0.54665,0.0746 l 0.45984,-1.52838 c -0.21124,-0.0621 -0.41004,-0.0997 -0.65856,-0.0997 z m 3.80742,1.1184 c 0.58401,0 0.7457,0.3853 0.7457,0.6711 0,0.84495 -0.7955,1.32954 -2.55996,1.49108 0.17396,-1.0562 0.68351,-2.16218 1.81426,-2.16218 z"
       id="flowRoot5330"
       inkscape:connector-curvature="0" />
    <path
       style="font-style:normal;font-variant:normal;font-weight:500;font-stretch:normal;font-size:16px;line-height:1.25;font-family:'Fira Sans';-inkscape-font-specification:'Fira Sans, Medium';font-variant-ligatures:normal;font-variant-caps:normal;font-variant-numeric:normal;font-feature-settings:normal;text-align:center;letter-spacing:0px;word-spacing:0px;writing-mode:lr-tb;text-anchor:middle;fill:#000000;fill-opacity:1;stroke:none;stroke-width:0.77661139"
       d="m 118.54889,184.8083 -1.20521,8.58601 h 2.57184 c 2.94491,0 3.88929,-1.23007 3.88929,-2.73359 0,-1.21773 -0.83233,-1.64018 -1.71456,-1.80171 0.99406,-0.22367 1.90106,-0.88218 1.90106,-2.11234 0,-1.37926 -1.21781,-1.93837 -2.9947,-1.93837 z m 7.5234,0 -1.20521,8.58601 h 1.62774 l 0.42254,-2.99438 h 1.00648 c 2.77096,0 3.74008,-1.67774 3.74008,-3.25581 0,-1.57807 -1.16818,-2.33582 -3.10661,-2.33582 z m 7.25635,0 -1.20521,8.58601 h 1.62774 l 1.20521,-8.58601 z m -13.33852,1.20521 h 1.03158 c 0.75797,0 1.30457,0.18641 1.30457,0.86983 0,0.9195 -0.63382,1.45378 -1.67759,1.45378 h -0.9814 z m 7.53595,0 h 0.89458 c 0.96921,0 1.54093,0.32308 1.54093,1.18045 0,0.91951 -0.39753,1.97568 -2.03774,1.97568 h -0.83252 z m -8.02054,3.46676 h 1.1557 c 0.84495,0 1.46632,0.26098 1.46632,1.08109 0,0.90708 -0.42264,1.60298 -2.10012,1.60298 h -0.89459 z"
       id="flowRoot5338"
       inkscape:connector-curvature="0" />
    <path
       style="fill:none;stroke:#000000;stroke-width:0.26458332px;stroke-linecap:butt;stroke-linejoin:miter;stroke-opacity:1"
       d="m 149.99051,182.0722 v 87.00749"
       id="path5385"
       inkscape:connector-curvature="0" />
    <path
       style="opacity:1;fill:#404040;fill-opacity:1;fill-rule:nonzero;stroke:#000000;stroke-width:3.94843864;stroke-linecap:butt;stroke-linejoin:round;stroke-miterlimit:4;stroke-dasharray:3.94843869, 3.94843869;stroke-dashoffset:0;stroke-opacity:0.00276244;paint-order:normal"
       d="M 646.91797 183.99609 L 646.91797 332.93164 L 740.88867 332.93164 L 740.88867 183.99609 L 646.91797 183.99609 z M 681.44727 190.16406 L 705.92578 190.16406 L 705.92578 212.36328 L 681.44727 212.36328 L 681.44727 190.16406 z M 709.28711 190.16406 L 733.76562 190.16406 L 733.76562 212.36328 L 709.28711 212.36328 L 709.28711 190.16406 z M 653.46484 190.32617 L 677.94336 190.32617 L 677.94336 212.52734 L 653.46484 212.52734 L 653.46484 190.32617 z M 681.44727 216.36328 L 705.92578 216.36328 L 705.92578 238.56445 L 681.44727 238.56445 L 681.44727 216.36328 z M 709.28711 216.36328 L 733.76562 216.36328 L 733.76562 238.56445 L 709.28711 238.56445 L 709.28711 216.36328 z M 653.46484 216.52734 L 677.94336 216.52734 L 677.94336 238.72656 L 653.46484 238.72656 L 653.46484 216.52734 z M 681.44727 242.56445 L 705.92578 242.56445 L 705.92578 264.76562 L 681.44727 264.76562 L 681.44727 242.56445 z M 709.28711 242.56445 L 733.76562 242.56445 L 733.76562 264.76562 L 709.28711 264.76562 L 709.28711 242.56445 z M 653.46484 242.72656 L 677.94336 242.72656 L 677.94336 264.92773 L 653.46484 264.92773 L 653.46484 242.72656 z M 681.44727 268.76562 L 705.92578 268.76562 L 705.92578 290.96484 L 681.44727 290.96484 L 681.44727 268.76562 z M 709.28711 268.76562 L 733.76562 268.76562 L 733.76562 290.96484 L 709.28711 290.96484 L 709.28711 268.76562 z M 653.46484 268.92773 L 677.94336 268.92773 L 677.94336 291.12891 L 653.46484 291.12891 L 653.46484 268.92773 z "
       transform="matrix(0.26458333,0,0,0.26458333,0,117)"
       id="rect5387" />
    <flowRoot
       xml:space="preserve"
       id="flowRoot4530"
       style="font-style:normal;font-variant:normal;font-weight:500;font-stretch:normal;font-size:16px;line-height:1.25;font-family:'Fira Sans';-inkscape-font-specification:'Fira Sans, Medium';font-variant-ligatures:normal;font-variant-caps:normal;font-variant-numeric:normal;font-feature-settings:normal;text-align:center;letter-spacing:0px;word-spacing:0px;writing-mode:lr-tb;text-anchor:middle;fill:#000000;fill-opacity:1;stroke:none"
       transform="matrix(0.26458333,0,0,0.26458333,0,117)"><flowRegion
         id="flowRegion4532"><rect
           id="rect4534"
           width="342.72156"
           height="93.706146"
           x="156.17691"
           y="396.59357" /></flowRegion><flowPara
         id="flowPara4536">Investissement de départ : 130 000 €</flowPara></flowRoot>    <flowRoot
       xml:space="preserve"
       id="flowRoot4538"
       style="font-style:normal;font-variant:normal;font-weight:500;font-stretch:normal;font-size:16px;line-height:1.25;font-family:'Fira Sans';-inkscape-font-specification:'Fira Sans, Medium';font-variant-ligatures:normal;font-variant-caps:normal;font-variant-numeric:normal;font-feature-settings:normal;text-align:center;letter-spacing:0px;word-spacing:0px;writing-mode:lr-tb;text-anchor:middle;fill:#000000;fill-opacity:1;stroke:none"
       transform="matrix(0.26458333,0,0,0.26458333,-16.528723,115.62261)"><flowRegion
         id="flowRegion4540"><rect
           id="rect4542"
           width="365.28046"
           height="124.07388"
           x="614.29584"
           y="395.72592" /></flowRegion><flowPara
         id="flowPara4544">Coût de la 1re année (R&amp;D) : 125 820 €</flowPara></flowRoot>    <flowRoot
       xml:space="preserve"
       id="flowRoot4546"
       style="font-style:normal;font-variant:normal;font-weight:500;font-stretch:normal;font-size:16px;line-height:1.25;font-family:'Fira Sans';-inkscape-font-specification:'Fira Sans, Medium';font-variant-ligatures:normal;font-variant-caps:normal;font-variant-numeric:normal;font-feature-settings:normal;text-align:center;letter-spacing:0px;word-spacing:0px;writing-mode:lr-tb;text-anchor:middle;fill:#000000;fill-opacity:1;stroke:none"
       transform="matrix(0.26458333,0,0,0.26458333,0,117)"><flowRegion
         id="flowRegion4548"><rect
           id="rect4550"
           width="313.8671"
           height="40.779526"
           x="174.6196"
           y="449.5202" /></flowRegion><flowPara
         id="flowPara4552">CA 2e année : 3 820 000</flowPara></flowRoot>    <flowRoot
       xml:space="preserve"
       id="flowRoot4554"
       style="font-style:normal;font-variant:normal;font-weight:500;font-stretch:normal;font-size:16px;line-height:1.25;font-family:'Fira Sans';-inkscape-font-specification:'Fira Sans, Medium';font-variant-ligatures:normal;font-variant-caps:normal;font-variant-numeric:normal;font-feature-settings:normal;text-align:center;letter-spacing:0px;word-spacing:0px;writing-mode:lr-tb;text-anchor:middle;fill:#000000;fill-opacity:1;stroke:none"
       transform="matrix(0.26458333,0,0,0.26458333,0,117)"><flowRegion
         id="flowRegion4556"><rect
           id="rect4558"
           width="317.33768"
           height="48.067196"
           x="174.6196"
           y="496.37326" /></flowRegion><flowPara
         id="flowPara4560">Bénéfice net : 1 279 106</flowPara></flowRoot>    <flowRoot
       xml:space="preserve"
       id="flowRoot4562"
       style="font-style:normal;font-variant:normal;font-weight:500;font-stretch:normal;font-size:16px;line-height:1.25;font-family:'Fira Sans';-inkscape-font-specification:'Fira Sans, Medium';font-variant-ligatures:normal;font-variant-caps:normal;font-variant-numeric:normal;font-feature-settings:normal;text-align:center;letter-spacing:0px;word-spacing:0px;writing-mode:lr-tb;text-anchor:middle;fill:#000000;fill-opacity:1;stroke:none"
       transform="matrix(0.56715787,0,0,0.56715786,-20.469601,-15.497365)"><flowRegion
         id="flowRegion4564"><rect
           id="rect4566"
           width="129.27979"
           height="76.353157"
           x="26.897135"
           y="428.69659" /></flowRegion><flowPara
         id="flowPara4568">1<flowSpan
   style="font-size:30.32298088%;baseline-shift:super"
   id="flowSpan5328">re</flowSpan></flowPara></flowRoot>    <flowRoot
       xml:space="preserve"
       id="flowRoot4570"
       style="font-style:normal;font-variant:normal;font-weight:500;font-stretch:normal;font-size:16px;line-height:1.25;font-family:'Fira Sans';-inkscape-font-specification:'Fira Sans, Medium';font-variant-ligatures:normal;font-variant-caps:normal;font-variant-numeric:normal;font-feature-settings:normal;text-align:center;letter-spacing:0px;word-spacing:0px;writing-mode:lr-tb;text-anchor:middle;fill:#000000;fill-opacity:1;stroke:none"
       transform="matrix(0.56715786,0,0,0.56715786,-26.876012,-25.25307)"><flowRegion
         id="flowRegion4572"><rect
           id="rect4574"
           width="104.11794"
           height="71.493736"
           x="51.191322"
           y="472.94672" /></flowRegion><flowPara
         id="flowPara4576">2<flowSpan
   style="font-size:30.32298088%;baseline-shift:super"
   id="flowSpan5326">e</flowSpan></flowPara></flowRoot>    <flowRoot
       xml:space="preserve"
       id="flowRoot4578"
       style="font-style:normal;font-variant:normal;font-weight:500;font-stretch:normal;font-size:16px;line-height:1.25;font-family:'Fira Sans';-inkscape-font-specification:'Fira Sans, Medium';font-variant-ligatures:normal;font-variant-caps:normal;font-variant-numeric:normal;font-feature-settings:normal;text-align:center;letter-spacing:0px;word-spacing:0px;writing-mode:lr-tb;text-anchor:middle;fill:#000000;fill-opacity:1;stroke:none"
       transform="matrix(0.56715787,0,0,0.56715786,-36.051896,-50.489551)"><flowRegion
         id="flowRegion4580"><rect
           id="rect4582"
           width="110.41353"
           height="55.183098"
           x="64.206062"
           y="544.44043" /></flowRegion><flowPara
         id="flowPara4584">3<flowSpan
   style="font-size:30.32298012%;baseline-shift:super"
   id="flowSpan5324">e</flowSpan></flowPara></flowRoot>  </g>
</svg>
