<?xml version="1.0" encoding="UTF-8" standalone="no"?>
<!-- Created with Inkscape (http://www.inkscape.org/) -->

<svg
   xmlns:dc="http://purl.org/dc/elements/1.1/"
   xmlns:cc="http://creativecommons.org/ns#"
   xmlns:rdf="http://www.w3.org/1999/02/22-rdf-syntax-ns#"
   xmlns:svg="http://www.w3.org/2000/svg"
   xmlns="http://www.w3.org/2000/svg"
   xmlns:sodipodi="http://sodipodi.sourceforge.net/DTD/sodipodi-0.dtd"
   xmlns:inkscape="http://www.inkscape.org/namespaces/inkscape"
   width="320mm"
   height="180mm"
   viewBox="0 0 320 180"
   version="1.1"
   id="svg1265"
   inkscape:version="0.92.1 r15371"
   sodipodi:docname="data.svg">
  <defs
     id="defs1259" />
  <sodipodi:namedview
     id="base"
     pagecolor="#ffffff"
     bordercolor="#666666"
     borderopacity="1.0"
     inkscape:pageopacity="0.0"
     inkscape:pageshadow="2"
     inkscape:zoom="0.98994949"
     inkscape:cx="514.39924"
     inkscape:cy="424.35218"
     inkscape:document-units="mm"
     inkscape:current-layer="layer1"
     showgrid="false"
     inkscape:window-width="1822"
     inkscape:window-height="1046"
     inkscape:window-x="87"
     inkscape:window-y="-11"
     inkscape:window-maximized="1"
     showguides="true"
     inkscape:guide-bbox="true">
    <sodipodi:guide
       position="112.45291,142.53367"
       orientation="0,1"
       id="guide4531"
       inkscape:locked="false" />
    <sodipodi:guide
       position="112.45319,40.453559"
       orientation="0,1"
       id="guide4533"
       inkscape:locked="false" />
    <sodipodi:guide
       position="266.60135,91.272547"
       orientation="1,0"
       id="guide4658"
       inkscape:locked="false" />
    <sodipodi:guide
       position="48.002975,168.57739"
       orientation="1,0"
       id="guide4696"
       inkscape:locked="false" />
  </sodipodi:namedview>
  <metadata
     id="metadata1262">
    <rdf:RDF>
      <cc:Work
         rdf:about="">
        <dc:format>image/svg+xml</dc:format>
        <dc:type
           rdf:resource="http://purl.org/dc/dcmitype/StillImage" />
        <dc:title />
      </cc:Work>
    </rdf:RDF>
  </metadata>
  <g
     inkscape:label="Calque 1"
     inkscape:groupmode="layer"
     id="layer1"
     transform="translate(0,-117)">
    <path
       style="color:#000000;font-style:normal;font-variant:normal;font-weight:normal;font-stretch:normal;font-size:medium;line-height:normal;font-family:sans-serif;font-variant-ligatures:normal;font-variant-position:normal;font-variant-caps:normal;font-variant-numeric:normal;font-variant-alternates:normal;font-feature-settings:normal;text-indent:0;text-align:start;text-decoration:none;text-decoration-line:none;text-decoration-style:solid;text-decoration-color:#000000;letter-spacing:normal;word-spacing:normal;text-transform:none;writing-mode:lr-tb;direction:ltr;text-orientation:mixed;dominant-baseline:auto;baseline-shift:baseline;text-anchor:start;white-space:normal;shape-padding:0;clip-rule:nonzero;display:inline;overflow:visible;visibility:visible;opacity:1;isolation:auto;mix-blend-mode:normal;color-interpolation:sRGB;color-interpolation-filters:linearRGB;solid-color:#000000;solid-opacity:1;vector-effect:none;fill:#000000;fill-opacity:1;fill-rule:nonzero;stroke:none;stroke-width:5.18411732;stroke-linecap:butt;stroke-linejoin:miter;stroke-miterlimit:4;stroke-dasharray:none;stroke-dashoffset:0;stroke-opacity:1;color-rendering:auto;image-rendering:auto;shape-rendering:auto;text-rendering:auto;enable-background:accumulate"
       d="m 91.04018,154.46633 v 5.17806 h 8.668378 l -0.0083,37.44577 -31.975372,-42.62383 H 56.251233 v 5.18954 h 7.581478 v 91.71248 h -7.577657 v 5.17807 H 66.393043 77.66383 v -5.17807 h -8.652744 v -36.86109 l 31.967724,42.03918 h 11.46979 v -5.17806 h -7.57746 l 0.0301,-91.72399 h 7.54703 v -5.17806 h -10.1416 z m -22.028746,10.53982 30.689461,40.79064 -0.0083,40.31317 -30.681823,-40.31317 z"
       id="path4611-5-5"
       inkscape:connector-curvature="0"
       sodipodi:nodetypes="cccccccccccccccccccccccccccccc" />
    <path
       inkscape:connector-curvature="0"
       style="font-style:normal;font-variant:normal;font-weight:500;font-stretch:normal;font-size:16px;line-height:0.58499998;font-family:'Fira Sans';-inkscape-font-specification:'Fira Sans, Medium';font-variant-ligatures:normal;font-variant-caps:normal;font-variant-numeric:normal;font-feature-settings:normal;text-align:center;letter-spacing:0px;word-spacing:0px;writing-mode:lr-tb;text-anchor:middle;fill:#000000;fill-opacity:1;stroke:none;stroke-width:1.95947289"
       d="m 221.95654,150.04501 v 4.7656 h 6.43733 v 47.9888 h -6.43733 v 4.76509 h 18.81074 v -4.76509 h -6.43734 v -17.55706 c 0.25082,-5.43428 4.59809,-10.70116 11.11922,-10.70116 5.18346,0 8.77879,2.92578 8.77879,10.95179 v 17.30643 h -6.52105 v 4.76509 h 18.89445 v -4.76509 h -6.43784 v -19.06188 c 0,-9.8653 -5.51791,-14.12937 -12.79147,-14.12937 -6.0195,0 -10.53397,2.84266 -13.0421,7.44089 v -27.00404 z m -25.17262,8.36021 v 11.95535 h -6.01979 v 4.68188 h 6.01979 v 21.57026 c 0,7.27356 4.0965,11.78791 11.53728,11.78791 6.68833,0 10.78517,-3.67863 11.78842,-10.86858 l -4.43125,-1.42111 c -1.08686,6.0195 -3.84553,7.18974 -6.77168,7.18974 -4.51463,0 -6.27042,-2.92574 -6.27042,-7.44037 v -20.81785 h 14.54692 v -4.68188 h -14.54692 v -11.95535 z m -18.63711,11.28665 c -4.26381,0 -7.77507,3.17697 -9.19634,7.35718 v -6.68848 h -12.20649 v 4.7656 h 6.68848 v 27.67324 h -6.52105 v 4.76509 h 20.98425 v -4.76509 h -8.61084 v -18.30947 c 0,-5.76869 3.26039,-9.78183 7.6078,-9.78183 1.00325,0 1.92308,0.16736 2.84272,0.50177 l 1.4211,6.35414 4.76561,-0.5855 -1.42162,-9.36377 c -1.8393,-1.50487 -3.76189,-1.92288 -6.35362,-1.92288 z m -41.72923,48.82493 c -4.84905,0 -9.28003,1.0034 -13.12582,3.59513 l -1.33738,8.61084 4.8488,0.5855 1.4211,-6.43734 c 2.25731,-1.08685 4.68213,-1.50533 7.19025,-1.50533 6.68834,0 8.44394,3.67876 8.44394,9.02942 v 3.3445 c -2.00651,-0.16721 -4.34746,-0.33486 -6.60477,-0.33486 -8.36042,0 -17.38964,2.09041 -17.38964,11.45408 0,7.9424 6.35401,10.45052 11.28665,10.45052 6.0195,0 10.36684,-3.67852 12.70776,-7.69152 v 0.16692 c 0.0836,4.59823 2.42477,7.5246 6.77219,7.5246 1.75569,0 3.51113,-0.50175 4.8488,-1.25418 l -0.0837,-3.84576 c -0.75243,0.33441 -1.75541,0.50177 -2.50785,0.50177 -2.17371,0 -3.17707,-1.25425 -3.17707,-4.01319 v -17.72398 c 0,-8.36042 -4.68202,-12.45712 -13.29324,-12.45712 z m 19.22414,0.75241 v 4.7656 h 4.34703 l 14.21308,32.43833 h 4.51445 l 13.6276,-32.43833 h 4.51445 v -4.7656 h -16.30288 v 4.7656 h 5.93607 l -9.28005,24.49566 h -0.50178 l -10.36681,-24.49566 h 6.43733 v -4.7656 z m -18.72237,19.98121 c 2.50813,0 4.84901,0.25085 6.93912,0.41806 v 2.84272 c -0.41803,6.10311 -5.76885,9.94875 -10.95231,9.94875 -3.26056,0 -6.93911,-1.50447 -6.93911,-6.26991 0,-5.76868 5.43443,-6.93962 10.9523,-6.93962 z"
       id="flowRoot4485-3-8-0" />
    <g
       id="g4736-7-2"
       transform="matrix(7.3629396,0,0,7.3629396,-42.42968,165.98511)">
      <circle
         r="2.1887774"
         cy="3.0703375"
         cx="23.786987"
         id="path4516-5-5-4"
         style="opacity:1;fill:none;fill-opacity:1;fill-rule:nonzero;stroke:#000000;stroke-width:0.653;stroke-linecap:round;stroke-linejoin:round;stroke-miterlimit:4;stroke-dasharray:none;stroke-dashoffset:0;stroke-opacity:1;paint-order:normal" />
      <g
         transform="translate(-0.15793648,-22.447195)"
         id="g4514-5-3-0">
        <path
           style="fill:#000000;fill-opacity:1;stroke:none;stroke-width:0.26458332px;stroke-linecap:butt;stroke-linejoin:miter;stroke-opacity:1"
           d="m 23.614196,25.328543 0.680022,0.392611 0.568298,-1.788032 z"
           id="path4495-9-8-8"
           inkscape:connector-curvature="0"
           sodipodi:nodetypes="cccc" />
        <path
           style="fill:#cbcbcb;fill-opacity:1;stroke:none;stroke-width:0.26458332px;stroke-linecap:butt;stroke-linejoin:miter;stroke-opacity:1"
           d="m 24.294218,25.721154 -0.680022,-0.392611 -0.568298,1.788032 z"
           id="path4495-7-5-8-4"
           inkscape:connector-curvature="0"
           sodipodi:nodetypes="cccc" />
      </g>
    </g>
    <path
       inkscape:connector-curvature="0"
       id="path4516-5-7-5"
       d="m 132.71044,170.06937 c -10.19975,0 -18.51471,8.32942 -18.51471,18.52917 0,10.19975 8.31496,18.51471 18.51471,18.51471 10.19975,0 18.5147,-8.31496 18.5147,-18.51471 0,-10.19975 -8.31495,-18.52917 -18.5147,-18.52917 z m 0,4.81672 c 7.60131,0 13.71245,6.11114 13.71245,13.71245 0,7.60132 -6.11114,13.69799 -13.71245,13.69799 -7.60132,0 -13.71246,-6.09667 -13.71246,-13.69799 0,-7.60131 6.11114,-13.71245 13.71246,-13.71245 z"
       style="color:#000000;font-style:normal;font-variant:normal;font-weight:normal;font-stretch:normal;font-size:medium;line-height:normal;font-family:sans-serif;font-variant-ligatures:normal;font-variant-position:normal;font-variant-caps:normal;font-variant-numeric:normal;font-variant-alternates:normal;font-feature-settings:normal;text-indent:0;text-align:start;text-decoration:none;text-decoration-line:none;text-decoration-style:solid;text-decoration-color:#000000;letter-spacing:normal;word-spacing:normal;text-transform:none;writing-mode:lr-tb;direction:ltr;text-orientation:mixed;dominant-baseline:auto;baseline-shift:baseline;text-anchor:start;white-space:normal;shape-padding:0;clip-rule:nonzero;display:inline;overflow:visible;visibility:visible;opacity:1;isolation:auto;mix-blend-mode:normal;color-interpolation:sRGB;color-interpolation-filters:linearRGB;solid-color:#000000;solid-opacity:1;vector-effect:none;fill:#000000;fill-opacity:1;fill-rule:nonzero;stroke:none;stroke-width:4.80799961;stroke-linecap:round;stroke-linejoin:round;stroke-miterlimit:4;stroke-dasharray:none;stroke-dashoffset:0;stroke-opacity:1;paint-order:normal;color-rendering:auto;image-rendering:auto;shape-rendering:auto;text-rendering:auto;enable-background:accumulate" />
    <path
       style="fill:#ffffff;fill-opacity:1;stroke:none;stroke-width:5.31416178px;stroke-linecap:butt;stroke-linejoin:miter;stroke-opacity:1"
       d="m 125.95169,184.70289 13.65824,7.88561 11.41428,-35.91266 z"
       id="path4495-9-7-5-7"
       inkscape:connector-curvature="0"
       sodipodi:nodetypes="cccc" />
    <path
       style="fill:#ed0000;fill-opacity:1;stroke:#222222;stroke-width:0.4;stroke-linecap:butt;stroke-linejoin:round;stroke-opacity:1;stroke-miterlimit:4;stroke-dasharray:none"
       d="m 127.69381,185.70871 10.174,5.87397 8.50247,-26.75127 z"
       id="path4495-9-7-5"
       inkscape:connector-curvature="0"
       sodipodi:nodetypes="cccc" />
    <path
       style="fill:#ffffff;fill-opacity:1;stroke:none;stroke-width:5.31416178px;stroke-linecap:butt;stroke-linejoin:miter;stroke-opacity:1"
       d="m 139.60993,192.5885 -13.65824,-7.88561 -11.41428,35.91267 z"
       id="path4495-7-5-0-2-1"
       inkscape:connector-curvature="0"
       sodipodi:nodetypes="cccc" />
    <path
       style="fill:#cbcbcb;fill-opacity:1;stroke:#222222;stroke-width:0.4;stroke-linecap:butt;stroke-linejoin:round;stroke-opacity:1;stroke-miterlimit:4;stroke-dasharray:none"
       d="m 137.86781,191.58268 -10.174,-5.87397 -8.50247,26.75128 z"
       id="path4495-7-5-0-2"
       inkscape:connector-curvature="0"
       sodipodi:nodetypes="cccc" />
    <path
       style="opacity:1;fill:#000000;fill-opacity:1;fill-rule:nonzero;stroke:none;stroke-width:0.6724183;stroke-linecap:round;stroke-linejoin:round;stroke-miterlimit:4;stroke-dasharray:none;stroke-dashoffset:0;stroke-opacity:1;paint-order:normal"
       d="m 185.22386,251.75766 -2.03553,4.78886 h 83.30192 v -4.78886 z"
       id="path4654"
       inkscape:connector-curvature="0"
       sodipodi:nodetypes="ccccc" />
    <path
       style="opacity:1;fill:#000000;fill-opacity:1;fill-rule:nonzero;stroke:none;stroke-width:0.6724183;stroke-linecap:round;stroke-linejoin:round;stroke-miterlimit:4;stroke-dasharray:none;stroke-dashoffset:0;stroke-opacity:1;paint-order:normal"
       d="m 188.67585,243.63568 -2.03502,4.78834 h 79.84942 v -4.78834 z"
       id="path4650"
       inkscape:connector-curvature="0"
       sodipodi:nodetypes="ccccc" />
    <path
       style="opacity:1;fill:#000000;fill-opacity:1;fill-rule:nonzero;stroke:none;stroke-width:0.6724183;stroke-linecap:round;stroke-linejoin:round;stroke-miterlimit:4;stroke-dasharray:none;stroke-dashoffset:0;stroke-opacity:1;paint-order:normal"
       d="m 192.12783,235.51369 -2.03501,4.78834 h 76.39743 v -4.78834 z"
       id="path4646"
       inkscape:connector-curvature="0"
       sodipodi:nodetypes="ccccc" />
    <path
       style="opacity:1;fill:#000000;fill-opacity:1;fill-rule:nonzero;stroke:none;stroke-width:0.6724183;stroke-linecap:round;stroke-linejoin:round;stroke-miterlimit:4;stroke-dasharray:none;stroke-dashoffset:0;stroke-opacity:1;paint-order:normal"
       d="m 195.58034,227.39119 -2.03554,4.78886 h 72.94545 v -4.78886 z"
       id="path4642"
       inkscape:connector-curvature="0"
       sodipodi:nodetypes="ccccc" />
    <path
       style="opacity:1;fill:#000000;fill-opacity:1;fill-rule:nonzero;stroke:none;stroke-width:0.6724183;stroke-linecap:round;stroke-linejoin:round;stroke-miterlimit:4;stroke-dasharray:none;stroke-dashoffset:0;stroke-opacity:1;paint-order:normal"
       d="m 201.34296,219.26921 -0.0512,4.78834 h 65.19845 v -4.78834 z"
       id="rect4553"
       inkscape:connector-curvature="0"
       sodipodi:nodetypes="ccccc" />
  </g>
</svg>
