<?xml version="1.0" encoding="UTF-8" standalone="no"?>
<!-- Created with Inkscape (http://www.inkscape.org/) -->

<svg
   xmlns:dc="http://purl.org/dc/elements/1.1/"
   xmlns:cc="http://creativecommons.org/ns#"
   xmlns:rdf="http://www.w3.org/1999/02/22-rdf-syntax-ns#"
   xmlns:svg="http://www.w3.org/2000/svg"
   xmlns="http://www.w3.org/2000/svg"
   xmlns:sodipodi="http://sodipodi.sourceforge.net/DTD/sodipodi-0.dtd"
   xmlns:inkscape="http://www.inkscape.org/namespaces/inkscape"
   width="320mm"
   height="180mm"
   viewBox="0 0 320 180"
   version="1.1"
   id="svg1265"
   inkscape:version="0.92.1 r15371"
   sodipodi:docname="logo.svg">
  <defs
     id="defs1259" />
  <sodipodi:namedview
     id="base"
     pagecolor="#ffffff"
     bordercolor="#666666"
     borderopacity="1.0"
     inkscape:pageopacity="0.0"
     inkscape:pageshadow="2"
     inkscape:zoom="0.47440939"
     inkscape:cx="729.89039"
     inkscape:cy="540.19748"
     inkscape:document-units="mm"
     inkscape:current-layer="layer1"
     showgrid="false"
     inkscape:window-width="1822"
     inkscape:window-height="1046"
     inkscape:window-x="87"
     inkscape:window-y="-11"
     inkscape:window-maximized="1"
     showguides="true"
     inkscape:guide-bbox="true"
     inkscape:snap-global="true">
    <sodipodi:guide
       position="57.452381,142.49702"
       orientation="0,1"
       id="guide4531"
       inkscape:locked="false" />
    <sodipodi:guide
       position="46.205417,35.950129"
       orientation="0,1"
       id="guide4533"
       inkscape:locked="false" />
    <sodipodi:guide
       position="265.44629,91.969853"
       orientation="1,0"
       id="guide4658"
       inkscape:locked="false" />
    <sodipodi:guide
       position="46.201435,142.34672"
       orientation="1,0"
       id="guide4696"
       inkscape:locked="false" />
  </sodipodi:namedview>
  <metadata
     id="metadata1262">
    <rdf:RDF>
      <cc:Work
         rdf:about="">
        <dc:format>image/svg+xml</dc:format>
        <dc:type
           rdf:resource="http://purl.org/dc/dcmitype/StillImage" />
        <dc:title />
      </cc:Work>
    </rdf:RDF>
  </metadata>
  <g
     inkscape:label="Calque 1"
     inkscape:groupmode="layer"
     id="layer1"
     transform="translate(0,-117)">
    <rect
       style="opacity:1;fill:#ffffff;fill-opacity:1;fill-rule:nonzero;stroke:none;stroke-width:2;stroke-linecap:round;stroke-linejoin:round;stroke-miterlimit:4;stroke-dasharray:none;stroke-dashoffset:0;stroke-opacity:1;paint-order:normal"
       id="rect6741"
       width="249.2363"
       height="131.71664"
       x="31.94326"
       y="141.86574"
       inkscape:export-xdpi="200"
       inkscape:export-ydpi="200" />
    <g
       id="g6760"
       transform="translate(-1.0198992e-8,-0.15029997)">
      <path
         sodipodi:nodetypes="cccccccccccccccccccccccccccccc"
         inkscape:connector-curvature="0"
         id="path4611-5-5"
         d="m 82.461446,154.65328 v 5.39702 h 9.034924 l -0.0087,39.02918 -33.327463,-44.4262 H 46.201435 v 5.40899 h 7.902064 v 95.59057 h -7.898082 v 5.39703 h 10.566678 11.747377 v -5.39703 h -9.018629 v -38.41977 l 33.319492,43.81682 h 11.954795 v -5.39701 h -7.897876 l 0.03137,-95.60258 h 7.866166 v -5.39702 H 94.204344 Z m -22.96024,10.9855 31.987177,42.51549 -0.0087,42.01783 -31.979216,-42.01783 z"
         style="color:#000000;font-style:normal;font-variant:normal;font-weight:normal;font-stretch:normal;font-size:medium;line-height:normal;font-family:sans-serif;font-variant-ligatures:normal;font-variant-position:normal;font-variant-caps:normal;font-variant-numeric:normal;font-variant-alternates:normal;font-feature-settings:normal;text-indent:0;text-align:start;text-decoration:none;text-decoration-line:none;text-decoration-style:solid;text-decoration-color:#000000;letter-spacing:normal;word-spacing:normal;text-transform:none;writing-mode:lr-tb;direction:ltr;text-orientation:mixed;dominant-baseline:auto;baseline-shift:baseline;text-anchor:start;white-space:normal;shape-padding:0;clip-rule:nonzero;display:inline;overflow:visible;visibility:visible;opacity:1;isolation:auto;mix-blend-mode:normal;color-interpolation:sRGB;color-interpolation-filters:linearRGB;solid-color:#000000;solid-opacity:1;vector-effect:none;fill:#000000;fill-opacity:1;fill-rule:nonzero;stroke:none;stroke-width:5.40332985;stroke-linecap:butt;stroke-linejoin:miter;stroke-miterlimit:4;stroke-dasharray:none;stroke-dashoffset:0;stroke-opacity:1;color-rendering:auto;image-rendering:auto;shape-rendering:auto;text-rendering:auto;enable-background:accumulate" />
      <path
         id="flowRoot4485-3-8-0"
         d="m 218.91366,150.04501 v 4.96711 h 6.70953 v 50.01803 h -6.70953 v 4.96658 h 19.60616 v -4.96658 h -6.70955 v -18.29947 c 0.26143,-5.66407 4.79252,-11.15366 11.5894,-11.15366 5.40265,0 9.15001,3.04949 9.15001,11.41489 v 18.03824 h -6.7968 v 4.96658 h 19.69341 v -4.96658 h -6.71007 v -19.86792 c 0,-10.28246 -5.75123,-14.72684 -13.33236,-14.72684 -6.27404,0 -10.9794,2.96287 -13.59359,7.75553 v -28.14591 z m -26.23706,8.71372 v 12.46089 h -6.27434 v 4.87985 h 6.27434 v 22.48237 c 0,7.58113 4.26972,12.28637 12.02514,12.28637 6.97115,0 11.24123,-3.83419 12.2869,-11.32817 l -4.61863,-1.4812 c -1.13282,6.27404 -4.00814,7.49376 -7.05802,7.49376 -4.70553,0 -6.53557,-3.04945 -6.53557,-7.75499 v -21.69814 h 15.16204 v -4.87985 h -15.16204 v -12.46089 z m -19.42518,11.76391 c -4.44411,0 -8.10385,3.31131 -9.58522,7.66828 v -6.9713 h -12.72264 v 4.96711 h 6.9713 v 28.84342 h -6.79679 v 4.96658 h 21.87158 v -4.96658 h -8.97496 v -19.0837 c 0,-6.01262 3.39826,-10.19545 7.9295,-10.19545 1.04567,0 2.0044,0.17443 2.96293,0.52298 l 1.48119,6.62283 4.96712,-0.61026 -1.48173,-9.75972 c -1.91708,-1.5685 -3.92096,-2.00419 -6.62228,-2.00419 z m -43.49377,50.88951 c -5.0541,0 -9.67244,1.04583 -13.68085,3.74715 l -1.39393,8.97496 5.05383,0.61026 1.48119,-6.70955 c 2.35276,-1.13281 4.88012,-1.56898 7.49429,-1.56898 6.97116,0 8.801,3.83431 8.801,9.41123 v 3.48592 c -2.09136,-0.17428 -4.5313,-0.34902 -6.88406,-0.34902 -8.71394,0 -18.12496,2.17881 -18.12496,11.93842 0,8.27825 6.62269,10.89243 11.76391,10.89243 6.27403,0 10.8052,-3.83407 13.24511,-8.01676 v 0.17398 c 0.0871,4.79267 2.5273,7.84278 7.05855,7.84278 1.82993,0 3.6596,-0.52297 5.05384,-1.30722 l -0.0872,-4.00837 c -0.78425,0.34855 -1.82964,0.52298 -2.6139,0.52298 -2.26562,0 -3.31141,-1.30728 -3.31141,-4.18289 v -18.47344 c 0,-8.71395 -4.88,-12.98388 -13.85535,-12.98388 z m 20.03704,0.78423 v 4.96711 h 4.53084 l 14.81409,33.81 h 4.70535 l 14.20384,-33.81 h 4.70535 v -4.96711 h -16.99225 v 4.96711 h 6.18707 l -9.67246,25.53147 h -0.52299 l -10.80518,-25.53147 h 6.70954 v -4.96711 z m -19.51405,20.82612 c 2.61418,0 5.05405,0.26146 7.23254,0.43574 v 2.96293 c -0.43571,6.36118 -6.01279,10.36943 -11.41543,10.36943 -3.39844,0 -7.23254,-1.56808 -7.23254,-6.53503 0,-6.01261 5.66423,-7.23307 11.41543,-7.23307 z"
         style="font-style:normal;font-variant:normal;font-weight:500;font-stretch:normal;font-size:16px;line-height:0.58499998;font-family:'Fira Sans';-inkscape-font-specification:'Fira Sans, Medium';font-variant-ligatures:normal;font-variant-caps:normal;font-variant-numeric:normal;font-feature-settings:normal;text-align:center;letter-spacing:0px;word-spacing:0px;writing-mode:lr-tb;text-anchor:middle;fill:#000000;fill-opacity:1;stroke:none;stroke-width:2.04233003"
         inkscape:connector-curvature="0" />
      <g
         transform="matrix(7.6742844,0,0,7.6742844,-56.65224,166.65914)"
         id="g4736-7-2">
        <circle
           style="opacity:1;fill:none;fill-opacity:1;fill-rule:nonzero;stroke:#000000;stroke-width:0.653;stroke-linecap:round;stroke-linejoin:round;stroke-miterlimit:4;stroke-dasharray:none;stroke-dashoffset:0;stroke-opacity:1;paint-order:normal"
           id="path4516-5-5-4"
           cx="23.786987"
           cy="3.0703375"
           r="2.1887774" />
        <g
           id="g4514-5-3-0"
           transform="translate(-0.15793648,-22.447195)">
          <path
             sodipodi:nodetypes="cccc"
             inkscape:connector-curvature="0"
             id="path4495-9-8-8"
             d="m 23.614196,25.328543 0.680022,0.392611 0.568298,-1.788032 z"
             style="fill:#000000;fill-opacity:1;stroke:none;stroke-width:0.26458332px;stroke-linecap:butt;stroke-linejoin:miter;stroke-opacity:1" />
          <path
             sodipodi:nodetypes="cccc"
             inkscape:connector-curvature="0"
             id="path4495-7-5-8-4"
             d="m 24.294218,25.721154 -0.680022,-0.392611 -0.568298,1.788032 z"
             style="fill:#cbcbcb;fill-opacity:1;stroke:none;stroke-width:0.26458332px;stroke-linecap:butt;stroke-linejoin:miter;stroke-opacity:1" />
        </g>
      </g>
      <path
         style="color:#000000;font-style:normal;font-variant:normal;font-weight:normal;font-stretch:normal;font-size:medium;line-height:normal;font-family:sans-serif;font-variant-ligatures:normal;font-variant-position:normal;font-variant-caps:normal;font-variant-numeric:normal;font-variant-alternates:normal;font-feature-settings:normal;text-indent:0;text-align:start;text-decoration:none;text-decoration-line:none;text-decoration-style:solid;text-decoration-color:#000000;letter-spacing:normal;word-spacing:normal;text-transform:none;writing-mode:lr-tb;direction:ltr;text-orientation:mixed;dominant-baseline:auto;baseline-shift:baseline;text-anchor:start;white-space:normal;shape-padding:0;clip-rule:nonzero;display:inline;overflow:visible;visibility:visible;opacity:1;isolation:auto;mix-blend-mode:normal;color-interpolation:sRGB;color-interpolation-filters:linearRGB;solid-color:#000000;solid-opacity:1;vector-effect:none;fill:#000000;fill-opacity:1;fill-rule:nonzero;stroke:none;stroke-width:5.01130772;stroke-linecap:round;stroke-linejoin:round;stroke-miterlimit:4;stroke-dasharray:none;stroke-dashoffset:0;stroke-opacity:1;paint-order:normal;color-rendering:auto;image-rendering:auto;shape-rendering:auto;text-rendering:auto;enable-background:accumulate"
         d="m 125.89375,170.9161 c -10.63105,0 -19.29761,8.68164 -19.29761,19.31269 0,10.63105 8.66656,19.29761 19.29761,19.29761 10.63105,0 19.2976,-8.66656 19.2976,-19.29761 0,-10.63105 -8.66655,-19.31269 -19.2976,-19.31269 z m 0,5.0204 c 7.92273,0 14.29229,6.36955 14.29229,14.29229 0,7.92274 -6.36956,14.27721 -14.29229,14.27721 -7.92274,0 -14.2923,-6.35447 -14.2923,-14.27721 0,-7.92274 6.36956,-14.29229 14.2923,-14.29229 z"
         id="path4516-5-7-5"
         inkscape:connector-curvature="0" />
      <path
         sodipodi:nodetypes="cccc"
         inkscape:connector-curvature="0"
         id="path4495-9-7-5-7"
         d="m 118.8492,186.16841 14.23579,8.21905 11.89694,-37.43124 z"
         style="fill:#ffffff;fill-opacity:1;stroke:none;stroke-width:5.5388732px;stroke-linecap:butt;stroke-linejoin:miter;stroke-opacity:1" />
      <path
         sodipodi:nodetypes="cccc"
         inkscape:connector-curvature="0"
         id="path4495-9-7-5"
         d="m 120.66499,187.21676 10.60421,6.12235 8.862,-27.88245 z"
         style="fill:#ed0000;fill-opacity:1;stroke:#222222;stroke-width:0.41691417;stroke-linecap:butt;stroke-linejoin:round;stroke-miterlimit:4;stroke-dasharray:none;stroke-opacity:1" />
      <path
         sodipodi:nodetypes="cccc"
         inkscape:connector-curvature="0"
         id="path4495-7-5-0-2-1"
         d="m 133.08499,194.38746 -14.23579,-8.21905 -11.89693,37.43125 z"
         style="fill:#ffffff;fill-opacity:1;stroke:none;stroke-width:5.5388732px;stroke-linecap:butt;stroke-linejoin:miter;stroke-opacity:1" />
      <path
         sodipodi:nodetypes="cccc"
         inkscape:connector-curvature="0"
         id="path4495-7-5-0-2"
         d="m 131.2692,193.33911 -10.60421,-6.12235 -8.862,27.88247 z"
         style="fill:#cbcbcb;fill-opacity:1;stroke:#222222;stroke-width:0.41691417;stroke-linecap:butt;stroke-linejoin:round;stroke-miterlimit:4;stroke-dasharray:none;stroke-opacity:1" />
      <path
         sodipodi:nodetypes="ccccc"
         inkscape:connector-curvature="0"
         id="path4654"
         d="m 180.62772,256.05862 -2.1216,4.99136 h 86.82437 v -4.99136 z"
         style="opacity:1;fill:#000000;fill-opacity:1;fill-rule:nonzero;stroke:none;stroke-width:0.7008518;stroke-linecap:round;stroke-linejoin:round;stroke-miterlimit:4;stroke-dasharray:none;stroke-dashoffset:0;stroke-opacity:1;paint-order:normal" />
      <path
         sodipodi:nodetypes="ccccc"
         inkscape:connector-curvature="0"
         id="path4650"
         d="m 184.22568,247.5932 -2.12107,4.99081 h 83.22588 v -4.99081 z"
         style="opacity:1;fill:#000000;fill-opacity:1;fill-rule:nonzero;stroke:none;stroke-width:0.7008518;stroke-linecap:round;stroke-linejoin:round;stroke-miterlimit:4;stroke-dasharray:none;stroke-dashoffset:0;stroke-opacity:1;paint-order:normal" />
      <path
         sodipodi:nodetypes="ccccc"
         inkscape:connector-curvature="0"
         id="path4646"
         d="m 187.82363,239.12776 -2.12106,4.99082 h 79.62792 v -4.99082 z"
         style="opacity:1;fill:#000000;fill-opacity:1;fill-rule:nonzero;stroke:none;stroke-width:0.7008518;stroke-linecap:round;stroke-linejoin:round;stroke-miterlimit:4;stroke-dasharray:none;stroke-dashoffset:0;stroke-opacity:1;paint-order:normal" />
      <path
         sodipodi:nodetypes="ccccc"
         inkscape:connector-curvature="0"
         id="path4642"
         d="m 191.42213,230.6618 -2.12161,4.99136 h 76.02997 v -4.99136 z"
         style="opacity:1;fill:#000000;fill-opacity:1;fill-rule:nonzero;stroke:none;stroke-width:0.7008518;stroke-linecap:round;stroke-linejoin:round;stroke-miterlimit:4;stroke-dasharray:none;stroke-dashoffset:0;stroke-opacity:1;paint-order:normal" />
      <path
         sodipodi:nodetypes="ccccc"
         inkscape:connector-curvature="0"
         id="rect4553"
         d="m 197.42842,222.19638 -0.0534,4.99082 h 67.95539 v -4.99082 z"
         style="opacity:1;fill:#000000;fill-opacity:1;fill-rule:nonzero;stroke:none;stroke-width:0.7008518;stroke-linecap:round;stroke-linejoin:round;stroke-miterlimit:4;stroke-dasharray:none;stroke-dashoffset:0;stroke-opacity:1;paint-order:normal" />
    </g>
  </g>
</svg>
